<svg width="8192" height="8192" viewBox="0 0 8192 8192" fill="none" xmlns="http://www.w3.org/2000/svg">
<circle cx="4089" cy="6783" r="12" fill="#9C27B0" fill-opacity="0.5" stroke="#9C27B0" stroke-width="6"/>
<circle cx="2596" cy="4456" r="12" fill="#9C27B0" fill-opacity="0.5" stroke="#9C27B0" stroke-width="6"/>
<circle cx="3088" cy="4613" r="12" fill="#9C27B0" fill-opacity="0.5" stroke="#9C27B0" stroke-width="6"/>
<path d="M3077 4610L2596 4456L2517.37 4431.43C2512.16 4429.8 2506.62 4432.64 2504.9 4437.81L2478 4518.5C2473.67 4540.17 2476.3 4587.3 2521.5 4602.5L3118.11 4790.05C3123.32 4791.69 3128.88 4788.84 3130.6 4783.66L3174.41 4651.79C3176.13 4646.63 3181.66 4643.78 3186.85 4645.39L3292.5 4678M3292.5 4678L3368.31 4454.52C3368.77 4453.19 3369.49 4451.97 3370.45 4450.94L3430.94 4385.65C3431.64 4384.89 3432.22 4384.02 3432.66 4383.08L4399.5 2312C4414.03 2275.17 4441.7 2194.47 4437.13 2163.82C4437.05 2163.26 4437 2162.71 4437 2162.14V1309C4443.83 1196.67 4520.5 967.6 4772.5 950L5003.5 943H6796.9C6802.06 943 6806.37 939.076 6806.86 933.94L6816.86 828.025C6816.95 827.014 6816.89 825.995 6816.68 825.002L6781.66 660.613C6781.23 658.588 6780.18 656.746 6778.66 655.343L6687.63 571.462C6686.24 570.18 6684.51 569.319 6682.65 568.979L6268.39 493.163C6267.8 493.055 6267.2 493 6266.59 493H5735.36C5734.79 493 5734.22 493.049 5733.65 493.147L5445.29 543.064C5440.5 543.894 5437 548.053 5437 552.918V751.5C5437 757.023 5441.48 761.5 5447 761.5H5678.5C5684.02 761.5 5688.5 765.977 5688.5 771.5V2321.24C5688.5 2327.05 5693.44 2331.64 5699.23 2331.21L5751.76 2327.35C5754.76 2327.13 5757.5 2325.57 5759.22 2323.11L6254.99 1614.73C6259.63 1608.11 6254.89 1599 6246.8 1599H3740.4C3737.31 1599 3734.39 1600.43 3732.5 1602.87L3711.19 1630.32C3710.08 1631.75 3708.61 1632.85 3706.94 1633.5L3496.92 1715.75C3495.65 1716.24 3494.5 1716.99 3493.53 1717.95L3403.52 1806.99C3402.52 1807.99 3401.74 1809.18 3401.23 1810.5L3337.17 1976.26C3336.73 1977.41 3336.5 1978.63 3336.5 1979.86V2032.38C3336.5 2034.41 3337.12 2036.4 3338.28 2038.07L4308.02 3438.69C4309.89 3441.39 4312.96 3443 4316.24 3443H4378.01C4384.42 3443 4389.21 3448.97 4388.99 3455.37C4387.85 3489.48 4408.18 3547.03 4499.5 3577L4872.95 3660.65C4873.98 3660.88 4875.03 3660.95 4876.08 3660.83C4892.24 3658.94 4922.87 3650.05 4928.8 3627.78C4928.94 3627.26 4929.1 3626.75 4929.3 3626.26L5104.5 3202.5C5117.5 3173.67 5162 3118.9 5236 3130.5L5332.95 3157.35C5338.24 3158.82 5341.36 3164.27 5339.94 3169.57L4883.59 4875.92C4882.89 4878.53 4881.17 4880.74 4878.81 4882.06L4384.28 5158.73C4382.78 5159.56 4381.1 5160 4379.39 5160H3629.97C3628.99 5160 3628.03 5159.86 3627.1 5159.58L3323.81 5068.69C3322.29 5068.24 3320.9 5067.44 3319.78 5066.31C3303.11 5049.45 3277.56 5011.51 3296.07 4980.71C3296.35 4980.24 3296.61 4979.75 3296.82 4979.24L3402.82 4725.02C3405.07 4719.63 3402.23 4713.46 3396.67 4711.66L3292.5 4678ZM3292.5 4678L2850.96 6077.21C2849.53 6081.75 2851.48 6086.66 2855.64 6088.96L3004.91 6171.89C3005.63 6172.3 3006.41 6172.61 3007.21 6172.82L3195.18 6222.52C3196.38 6222.84 3197.52 6223.38 3198.52 6224.11L3318.42 6311.71C3319.14 6312.23 3319.92 6312.66 3320.75 6312.98L3570.2 6408.01C3571.06 6408.33 3571.87 6408.78 3572.61 6409.33L3726.95 6524.22C3727.65 6524.74 3728.41 6525.16 3729.21 6525.48L3861.33 6578.33C3862.44 6578.77 3863.45 6579.41 3864.33 6580.21L4080.5 6776" stroke="#9C27B0" stroke-width="6" stroke-linecap="round"/>
<circle cx="5309" cy="3149" r="12" fill="#9C27B0" fill-opacity="0.5" stroke="#9C27B0" stroke-width="6"/>
<circle cx="4096" cy="1596" r="12" fill="#9C27B0" fill-opacity="0.5" stroke="#9C27B0" stroke-width="6"/>
<circle cx="5688" cy="2089" r="12" fill="#9C27B0" fill-opacity="0.5" stroke="#9C27B0" stroke-width="6"/>
<circle cx="6092" cy="1597" r="12" fill="#9C27B0" fill-opacity="0.5" stroke="#9C27B0" stroke-width="6"/>
<circle cx="5688" cy="1038" r="12" fill="#9C27B0" fill-opacity="0.5" stroke="#9C27B0" stroke-width="6"/>
<circle cx="6794" cy="714" r="12" fill="#9C27B0" fill-opacity="0.5" stroke="#9C27B0" stroke-width="6"/>
<circle cx="4048" cy="5160" r="12" fill="#9C27B0" fill-opacity="0.5" stroke="#9C27B0" stroke-width="6"/>
</svg>
