<svg width="8192" height="8192" viewBox="0 0 8192 8192" fill="none" xmlns="http://www.w3.org/2000/svg">
<circle cx="4469" cy="6790" r="12" fill="#FF9800" fill-opacity="0.5" stroke="#FF9800" stroke-width="6"/>
<circle cx="2596" cy="4456" r="12" fill="#FF9800" fill-opacity="0.5" stroke="#FF9800" stroke-width="6"/>
<circle cx="3088" cy="4613" r="12" fill="#FF9800" fill-opacity="0.5" stroke="#FF9800" stroke-width="6"/>
<circle cx="5688" cy="2089" r="12" fill="#FF9800" fill-opacity="0.5" stroke="#FF9800" stroke-width="6"/>
<circle cx="6092" cy="1597" r="12" fill="#FF9800" fill-opacity="0.5" stroke="#FF9800" stroke-width="6"/>
<circle cx="5688" cy="1038" r="12" fill="#FF9800" fill-opacity="0.5" stroke="#FF9800" stroke-width="6"/>
<path d="M6080.5 1597.5H5991.96C5986.45 1597.5 5981.98 1593.05 5981.96 1587.54L5978.54 771.458C5978.52 765.952 5974.05 761.5 5968.54 761.5H5696C5690.48 761.5 5686 765.977 5686 771.5V2333V2419.28C5686 2420.42 5685.8 2421.55 5685.42 2422.63L5670.92 2463.4C5670.32 2465.1 5669.26 2466.61 5667.87 2467.76L5545.08 2569.2C5544.04 2570.06 5543.18 2571.12 5542.56 2572.32L5457.99 2736.04C5457.66 2736.68 5457.41 2737.35 5457.22 2738.04L4886.57 4862.01C4885.88 4864.57 4884.21 4866.74 4881.92 4868.07L4379.32 5159.15C4377.8 5160.04 4376.07 5160.5 4374.31 5160.5H3626C3625.01 5160.5 3624.01 5160.35 3623.06 5160.06L3328.97 5069.45C3328 5069.15 3327.08 5068.72 3326.25 5068.12C3306.27 5053.74 3274.43 5017.72 3297.02 4980.76C3297.33 4980.26 3297.61 4979.73 3297.83 4979.18L3401.42 4725C3403.62 4719.61 3400.76 4713.48 3395.21 4711.71L3292.27 4678.75M3179.05 4642.5L2516.97 4430.53C2511.73 4428.85 2506.12 4431.72 2504.41 4436.95L2476.77 4521.65C2476.59 4522.22 2476.46 4522.78 2476.39 4523.37C2474.15 4541.77 2479.31 4581.39 2517.5 4599.5L3116.8 4788.6C3121.94 4790.22 3127.43 4787.49 3129.23 4782.42L3179.05 4642.5ZM3179.05 4642.5L3292.27 4678.75M3292.27 4678.75L2850.52 6078.52C2849.06 6083.14 2851.12 6088.14 2855.41 6090.39L2999.59 6166.02C3000.2 6166.34 3000.83 6166.59 3001.49 6166.78L3196.29 6222.51C3197.42 6222.83 3198.49 6223.35 3199.43 6224.05L3309.44 6304.23C3310.15 6304.74 3310.91 6305.16 3311.72 6305.47L3572.23 6406.51C3573.07 6406.83 3573.87 6407.27 3574.59 6407.81L3723.03 6518.28C3723.67 6518.76 3724.37 6519.16 3725.12 6519.47L3858.89 6575.82C3859.96 6576.27 3860.93 6576.9 3861.79 6577.68L4078 6777L4157.31 6846.46C4158.1 6847.15 4158.77 6847.96 4159.31 6848.86L4225 6959C4242.09 6980.23 4289.75 7012.49 4344.23 6972.57C4344.73 6972.2 4345.21 6971.77 4345.64 6971.31L4372.45 6942.1C4372.82 6941.7 4373.15 6941.27 4373.45 6940.82L4464.5 6802" stroke="#FF9800" stroke-width="6" stroke-linecap="round"/>
</svg>
