<svg width="8192" height="8192" viewBox="0 0 8192 8192" fill="none" xmlns="http://www.w3.org/2000/svg">
<path d="M4785.74 2570.43C4935.85 2335.06 5023.19 1848.19 5050.52 1615.36C5051.88 1603.79 5051.06 1592.24 5048.48 1580.89C4972.23 1245.14 5037.89 851.383 5101.84 616.227C5118.78 553.937 5200.43 499.938 5263.81 487.652C5385.84 463.994 5565.48 412.366 5671 379.5C5822.18 352.937 6312.47 375.713 6554.99 391.386C6566.34 392.119 6577.76 390.858 6588.74 387.862C6984.95 279.663 7194.99 337.103 7260.39 385.449L7261.55 386.303C7267.16 390.454 7272.73 394.58 7278.68 398.237C7436.27 495.055 7495.05 702.967 7507.78 817.535C7509.67 834.57 7506.51 851.944 7496.49 865.852C7417.11 976.063 7168.23 1059.62 7046.5 1089C6712.8 1216.27 6595.77 1424.11 6574.67 1526.76C6572.46 1537.49 6569.65 1548.06 6564.68 1557.82C6477.73 1728.34 6301.71 1895.01 6222.5 1958.5C6010.1 2090.5 5759 2466.5 5660 2638C5529.92 2862.86 5512.75 3090.67 5520.84 3187.85C5521.49 3195.66 5521.56 3203.46 5520.52 3211.22C5496.6 3389.41 5414 3528.77 5369.61 3584.13C5365.59 3589.13 5361.13 3593.46 5355.94 3597.23C5190.77 3717.16 4703.8 3754.9 4462.78 3759.26C4452.21 3759.45 4441.83 3757.97 4431.86 3754.48C4265.69 3696.43 4139.02 3553.85 4095.5 3488C4053.5 3418.8 4118.67 3340.5 4156.5 3310C4212.48 3276.02 4392.53 3185.59 4453.85 3111.9C4458.12 3106.77 4462.45 3101.8 4467.26 3097.17C4596.47 2973.09 4724.49 2712.59 4776.8 2587.42C4779.31 2581.44 4782.25 2575.9 4785.74 2570.43Z" fill="#49ACD1" fill-opacity="0.2" stroke="#49ACD1" stroke-opacity="0.5" stroke-width="10"/>
<path d="M5309.87 1942V1865.27H5322.85V1931.99H5362.17V1942H5309.87ZM5398.04 1943.19C5388.19 1943.19 5380.56 1940.77 5375.16 1935.92C5369.76 1931.08 5367.06 1923.65 5367.06 1913.64C5367.06 1904.59 5369.36 1897.44 5373.97 1892.2C5378.58 1886.95 5385.57 1884.33 5394.94 1884.33C5403.52 1884.33 5409.95 1886.6 5414.24 1891.12C5418.61 1895.57 5420.79 1901.33 5420.79 1908.4V1918.89H5379.45C5380.09 1924.37 5382.07 1928.14 5385.41 1930.2C5388.74 1932.27 5393.83 1933.3 5400.66 1933.3C5403.52 1933.3 5406.46 1933.02 5409.48 1932.47C5412.49 1931.91 5415.12 1931.2 5417.34 1930.32V1939.86C5414.8 1940.97 5411.86 1941.8 5408.52 1942.36C5405.27 1942.91 5401.77 1943.19 5398.04 1943.19ZM5379.45 1910.43H5409.36V1906.49C5409.36 1902.6 5408.28 1899.58 5406.14 1897.44C5403.99 1895.21 5400.38 1894.1 5395.3 1894.1C5389.26 1894.1 5385.09 1895.41 5382.79 1898.03C5380.56 1900.66 5379.45 1904.79 5379.45 1910.43ZM5462.03 1943.19C5452.18 1943.19 5444.56 1940.77 5439.16 1935.92C5433.76 1931.08 5431.05 1923.65 5431.05 1913.64C5431.05 1904.59 5433.36 1897.44 5437.97 1892.2C5442.57 1886.95 5449.56 1884.33 5458.94 1884.33C5467.51 1884.33 5473.95 1886.6 5478.24 1891.12C5482.61 1895.57 5484.79 1901.33 5484.79 1908.4V1918.89H5443.45C5444.08 1924.37 5446.07 1928.14 5449.4 1930.2C5452.74 1932.27 5457.82 1933.3 5464.65 1933.3C5467.51 1933.3 5470.45 1933.02 5473.47 1932.47C5476.49 1931.91 5479.11 1931.2 5481.34 1930.32V1939.86C5478.79 1940.97 5475.85 1941.8 5472.52 1942.36C5469.26 1942.91 5465.77 1943.19 5462.03 1943.19ZM5443.45 1910.43H5473.35V1906.49C5473.35 1902.6 5472.28 1899.58 5470.14 1897.44C5467.99 1895.21 5464.38 1894.1 5459.29 1894.1C5453.26 1894.1 5449.09 1895.41 5446.78 1898.03C5444.56 1900.66 5443.45 1904.79 5443.45 1910.43ZM5515.68 1943.19C5511.79 1943.19 5508.05 1942.91 5504.48 1942.36C5500.98 1941.8 5498.08 1941.13 5495.78 1940.33V1929.37C5498.48 1930.4 5501.46 1931.2 5504.72 1931.75C5507.97 1932.31 5511.07 1932.59 5514.01 1932.59C5518.46 1932.59 5521.63 1932.19 5523.54 1931.4C5525.45 1930.6 5526.4 1929.05 5526.4 1926.75C5526.4 1925.08 5525.8 1923.77 5524.61 1922.82C5523.5 1921.86 5521.79 1920.99 5519.49 1920.2C5517.27 1919.4 5514.41 1918.45 5510.91 1917.34C5507.58 1916.22 5504.68 1915.03 5502.21 1913.76C5499.75 1912.41 5497.84 1910.7 5496.49 1908.64C5495.14 1906.57 5494.47 1903.87 5494.47 1900.54C5494.47 1895.37 5496.34 1891.4 5500.07 1888.62C5503.8 1885.76 5509.8 1884.33 5518.06 1884.33C5521.32 1884.33 5524.41 1884.57 5527.35 1885.05C5530.29 1885.52 5532.8 1886.12 5534.86 1886.83V1897.68C5532.64 1896.8 5530.17 1896.13 5527.47 1895.65C5524.85 1895.17 5522.39 1894.94 5520.09 1894.94C5515.96 1894.94 5512.82 1895.29 5510.67 1896.01C5508.61 1896.72 5507.58 1898.15 5507.58 1900.3C5507.58 1902.52 5508.65 1904.11 5510.79 1905.06C5513.02 1905.94 5516.55 1907.17 5521.4 1908.76C5525.84 1910.11 5529.38 1911.54 5532 1913.05C5534.62 1914.56 5536.49 1916.38 5537.6 1918.53C5538.79 1920.59 5539.39 1923.29 5539.39 1926.63C5539.39 1932.19 5537.36 1936.36 5533.31 1939.14C5529.26 1941.84 5523.38 1943.19 5515.68 1943.19ZM5583.1 1943.19C5578.97 1943.19 5575.39 1942.64 5572.38 1941.52C5569.36 1940.41 5566.58 1938.7 5564.04 1936.4L5563.32 1942H5552.12V1861.69H5565.11V1889.22C5570.03 1885.96 5575.95 1884.33 5582.86 1884.33C5590.88 1884.33 5597.2 1886.64 5601.81 1891.24C5606.49 1895.77 5608.84 1903.12 5608.84 1913.29C5608.84 1923.53 5606.53 1931.08 5601.93 1935.92C5597.32 1940.77 5591.04 1943.19 5583.1 1943.19ZM5579.64 1933.42C5585.52 1933.42 5589.65 1931.75 5592.04 1928.42C5594.5 1925.08 5595.73 1920.04 5595.73 1913.29C5595.73 1906.3 5594.42 1901.37 5591.8 1898.51C5589.18 1895.65 5585.05 1894.22 5579.41 1894.22C5573.53 1894.22 5568.76 1895.85 5565.11 1899.11V1927.46C5568.84 1931.44 5573.69 1933.42 5579.64 1933.42ZM5641.84 1943.19C5635.09 1943.19 5629.89 1941.32 5626.24 1937.59C5622.66 1933.86 5620.87 1928.38 5620.87 1921.15V1885.52H5633.86V1921.15C5633.86 1925.36 5634.89 1928.46 5636.96 1930.44C5639.02 1932.43 5642.2 1933.42 5646.49 1933.42C5649.67 1933.42 5652.61 1932.83 5655.31 1931.63C5658.01 1930.44 5660.35 1928.85 5662.34 1926.87V1885.52H5675.21V1942H5663.41L5662.81 1936.16C5660.27 1938.15 5657.25 1939.82 5653.76 1941.17C5650.26 1942.52 5646.29 1943.19 5641.84 1943.19ZM5690.35 1942V1885.52H5702.27L5702.98 1892.08C5705.68 1890.33 5708.9 1888.74 5712.63 1887.31C5716.37 1885.88 5720.06 1884.89 5723.71 1884.33V1894.22C5721.49 1894.62 5719.07 1895.21 5716.45 1896.01C5713.9 1896.72 5711.48 1897.56 5709.18 1898.51C5706.87 1899.38 5704.93 1900.3 5703.34 1901.25V1942H5690.35ZM5756.05 1962.97C5751.84 1962.97 5747.63 1962.69 5743.42 1962.14C5739.21 1961.66 5735.63 1960.9 5732.7 1959.87V1949.86C5735.87 1950.9 5739.53 1951.69 5743.66 1952.25C5747.79 1952.8 5751.72 1953.08 5755.45 1953.08C5761.17 1953.08 5765.34 1952.76 5767.96 1952.13C5770.58 1951.49 5771.9 1950.06 5771.9 1947.84C5771.9 1946.17 5771.26 1944.98 5769.99 1944.26C5768.72 1943.63 5766.3 1943.31 5762.72 1943.31H5747.47C5737.22 1943.31 5732.1 1939.7 5732.1 1932.47C5732.1 1930.16 5732.77 1928.02 5734.12 1926.03C5735.48 1924.05 5737.62 1922.54 5740.56 1921.51C5737.3 1919.92 5734.88 1917.73 5733.29 1914.95C5731.78 1912.17 5731.03 1908.84 5731.03 1904.94C5731.03 1897.72 5733.17 1892.47 5737.46 1889.22C5741.83 1885.96 5748.34 1884.33 5757 1884.33C5758.83 1884.33 5760.73 1884.49 5762.72 1884.81C5764.71 1885.05 5766.26 1885.29 5767.37 1885.52H5788.1L5787.74 1893.98H5778.21C5779.72 1895.25 5780.83 1896.84 5781.55 1898.75C5782.26 1900.66 5782.62 1902.72 5782.62 1904.94C5782.62 1910.98 5780.79 1915.75 5777.14 1919.24C5773.48 1922.66 5767.96 1924.37 5760.58 1924.37C5759.3 1924.37 5758.11 1924.33 5757 1924.25C5755.97 1924.09 5754.82 1923.93 5753.55 1923.77C5751.16 1924.01 5749.02 1924.64 5747.11 1925.68C5745.21 1926.71 5744.25 1928.1 5744.25 1929.85C5744.25 1931.04 5744.73 1931.91 5745.68 1932.47C5746.64 1932.94 5748.22 1933.18 5750.45 1933.18H5766.3C5771.93 1933.18 5776.26 1934.41 5779.28 1936.88C5782.38 1939.26 5783.93 1942.75 5783.93 1947.36C5783.93 1952.92 5781.51 1956.89 5776.66 1959.28C5771.9 1961.74 5765.02 1962.97 5756.05 1962.97ZM5757 1916.14C5762.16 1916.14 5765.74 1915.27 5767.72 1913.52C5769.79 1911.78 5770.82 1908.8 5770.82 1904.59C5770.82 1900.38 5769.79 1897.32 5767.72 1895.41C5765.74 1893.51 5762.16 1892.55 5757 1892.55C5752.16 1892.55 5748.62 1893.47 5746.4 1895.29C5744.17 1897.12 5743.06 1900.22 5743.06 1904.59C5743.06 1908.64 5744.09 1911.58 5746.16 1913.4C5748.3 1915.23 5751.92 1916.14 5757 1916.14Z" fill="white"/>
<path d="M5309.87 1942H5300.93V1950.94H5309.87V1942ZM5309.87 1865.27V1856.33H5300.93V1865.27H5309.87ZM5322.85 1865.27H5331.79V1856.33H5322.85V1865.27ZM5322.85 1931.99H5313.92V1940.93H5322.85V1931.99ZM5362.17 1931.99H5371.11V1923.06H5362.17V1931.99ZM5362.17 1942V1950.94H5371.11V1942H5362.17ZM5318.8 1942V1865.27H5300.93V1942H5318.8ZM5309.87 1874.2H5322.85V1856.33H5309.87V1874.2ZM5313.92 1865.27V1931.99H5331.79V1865.27H5313.92ZM5322.85 1940.93H5362.17V1923.06H5322.85V1940.93ZM5353.24 1931.99V1942H5371.11V1931.99H5353.24ZM5362.17 1933.06H5309.87V1950.94H5362.17V1933.06ZM5375.16 1935.92L5381.13 1929.27L5381.13 1929.27L5375.16 1935.92ZM5373.97 1892.2L5380.68 1898.09L5380.68 1898.09L5373.97 1892.2ZM5414.24 1891.12L5407.75 1897.27L5407.81 1897.33L5407.87 1897.39L5414.24 1891.12ZM5420.79 1918.89V1927.82H5429.73V1918.89H5420.79ZM5379.45 1918.89V1909.95H5369.42L5370.57 1919.91L5379.45 1918.89ZM5385.41 1930.2L5390.11 1922.61L5390.11 1922.61L5385.41 1930.2ZM5417.34 1930.32H5426.28V1917.21L5414.07 1922.01L5417.34 1930.32ZM5417.34 1939.86L5420.92 1948.04L5426.28 1945.7V1939.86H5417.34ZM5408.52 1942.36L5407.05 1933.54L5407.04 1933.55L5407.02 1933.55L5408.52 1942.36ZM5379.45 1910.43H5370.51V1919.36H5379.45V1910.43ZM5409.36 1910.43V1919.36H5418.29V1910.43H5409.36ZM5406.14 1897.44L5399.71 1903.64L5399.76 1903.7L5399.82 1903.76L5406.14 1897.44ZM5382.79 1898.03L5376.07 1892.14L5376.02 1892.19L5375.97 1892.25L5382.79 1898.03ZM5398.04 1934.26C5389.6 1934.26 5384.38 1932.19 5381.13 1929.27L5369.19 1942.58C5376.74 1949.35 5386.78 1952.13 5398.04 1952.13V1934.26ZM5381.13 1929.27C5378.25 1926.69 5375.99 1922.11 5375.99 1913.64H5358.12C5358.12 1925.19 5361.27 1935.47 5369.19 1942.58L5381.13 1929.27ZM5375.99 1913.64C5375.99 1906.1 5377.89 1901.27 5380.68 1898.09L5367.26 1886.3C5360.83 1893.61 5358.12 1903.08 5358.12 1913.64H5375.99ZM5380.68 1898.09C5383.06 1895.38 5387.21 1893.27 5394.94 1893.27V1875.4C5383.92 1875.4 5374.09 1878.52 5367.26 1886.3L5380.68 1898.09ZM5394.94 1893.27C5402.01 1893.27 5405.71 1895.11 5407.75 1897.27L5420.73 1884.98C5414.19 1878.08 5405.02 1875.4 5394.94 1875.4V1893.27ZM5407.87 1897.39C5410.37 1899.93 5411.86 1903.33 5411.86 1908.4H5429.73C5429.73 1899.33 5426.85 1891.21 5420.62 1884.86L5407.87 1897.39ZM5411.86 1908.4V1918.89H5429.73V1908.4H5411.86ZM5420.79 1909.95H5379.45V1927.82H5420.79V1909.95ZM5370.57 1919.91C5371.39 1926.95 5374.21 1933.78 5380.7 1937.8L5390.11 1922.61C5389.94 1922.5 5388.78 1921.78 5388.33 1917.86L5370.57 1919.91ZM5380.7 1937.8C5386.15 1941.17 5393.24 1942.24 5400.66 1942.24V1924.37C5394.41 1924.37 5391.34 1923.36 5390.11 1922.61L5380.7 1937.8ZM5400.66 1942.24C5404.1 1942.24 5407.58 1941.9 5411.09 1941.26L5407.86 1923.68C5405.33 1924.14 5402.94 1924.37 5400.66 1924.37V1942.24ZM5411.09 1941.26C5414.53 1940.62 5417.72 1939.77 5420.61 1938.64L5414.07 1922.01C5412.51 1922.62 5410.46 1923.2 5407.86 1923.68L5411.09 1941.26ZM5408.4 1930.32V1939.86H5426.28V1930.32H5408.4ZM5413.76 1931.67C5412.02 1932.43 5409.81 1933.08 5407.05 1933.54L5409.99 1951.17C5413.9 1950.52 5417.58 1949.51 5420.92 1948.04L5413.76 1931.67ZM5407.02 1933.55C5404.32 1934.01 5401.33 1934.26 5398.04 1934.26V1952.13C5402.21 1952.13 5406.21 1951.82 5410.03 1951.17L5407.02 1933.55ZM5379.45 1919.36H5409.36V1901.49H5379.45V1919.36ZM5418.29 1910.43V1906.49H5400.42V1910.43H5418.29ZM5418.29 1906.49C5418.29 1900.93 5416.72 1895.38 5412.46 1891.12L5399.82 1903.76C5399.85 1903.79 5400.42 1904.27 5400.42 1906.49H5418.29ZM5412.57 1891.24C5407.93 1886.42 5401.31 1885.17 5395.3 1885.17V1903.04C5397.23 1903.04 5398.47 1903.26 5399.19 1903.48C5399.87 1903.69 5399.89 1903.84 5399.71 1903.64L5412.57 1891.24ZM5395.3 1885.17C5388.47 1885.17 5380.97 1886.56 5376.07 1892.14L5389.5 1903.93C5389.33 1904.13 5389.4 1903.9 5390.32 1903.61C5391.28 1903.31 5392.87 1903.04 5395.3 1903.04V1885.17ZM5375.97 1892.25C5371.74 1897.24 5370.51 1903.93 5370.51 1910.43H5388.39C5388.39 1905.64 5389.39 1904.07 5389.6 1903.82L5375.97 1892.25ZM5439.16 1935.92L5445.12 1929.27L5445.12 1929.27L5439.16 1935.92ZM5437.97 1892.2L5444.68 1898.09L5444.68 1898.09L5437.97 1892.2ZM5478.24 1891.12L5471.75 1897.27L5471.81 1897.33L5471.86 1897.39L5478.24 1891.12ZM5484.79 1918.89V1927.82H5493.73V1918.89H5484.79ZM5443.45 1918.89V1909.95H5433.41L5434.57 1919.91L5443.45 1918.89ZM5449.4 1930.2L5454.11 1922.61L5454.11 1922.61L5449.4 1930.2ZM5481.34 1930.32H5490.27V1917.21L5478.07 1922.01L5481.34 1930.32ZM5481.34 1939.86L5484.92 1948.04L5490.27 1945.7V1939.86H5481.34ZM5472.52 1942.36L5471.05 1933.54L5471.03 1933.55L5471.01 1933.55L5472.52 1942.36ZM5443.45 1910.43H5434.51V1919.36H5443.45V1910.43ZM5473.35 1910.43V1919.36H5482.29V1910.43H5473.35ZM5470.14 1897.44L5463.7 1903.64L5463.76 1903.7L5463.82 1903.76L5470.14 1897.44ZM5446.78 1898.03L5440.07 1892.14L5440.02 1892.19L5439.97 1892.25L5446.78 1898.03ZM5462.03 1934.26C5453.59 1934.26 5448.38 1932.19 5445.12 1929.27L5433.19 1942.58C5440.74 1949.35 5450.78 1952.13 5462.03 1952.13V1934.26ZM5445.12 1929.27C5442.25 1926.69 5439.99 1922.11 5439.99 1913.64H5422.12C5422.12 1925.19 5425.26 1935.47 5433.19 1942.58L5445.12 1929.27ZM5439.99 1913.64C5439.99 1906.1 5441.89 1901.27 5444.68 1898.09L5431.25 1886.3C5424.83 1893.61 5422.12 1903.08 5422.12 1913.64H5439.99ZM5444.68 1898.09C5447.06 1895.38 5451.21 1893.27 5458.94 1893.27V1875.4C5447.92 1875.4 5438.09 1878.52 5431.25 1886.3L5444.68 1898.09ZM5458.94 1893.27C5466.01 1893.27 5469.71 1895.11 5471.75 1897.27L5484.72 1884.98C5478.19 1878.08 5469.02 1875.4 5458.94 1875.4V1893.27ZM5471.86 1897.39C5474.37 1899.93 5475.85 1903.33 5475.85 1908.4H5493.73C5493.73 1899.33 5490.85 1891.21 5484.61 1884.86L5471.86 1897.39ZM5475.85 1908.4V1918.89H5493.73V1908.4H5475.85ZM5484.79 1909.95H5443.45V1927.82H5484.79V1909.95ZM5434.57 1919.91C5435.38 1926.95 5438.2 1933.78 5444.7 1937.8L5454.11 1922.61C5453.93 1922.5 5452.78 1921.78 5452.32 1917.86L5434.57 1919.91ZM5444.7 1937.8C5450.15 1941.17 5457.24 1942.24 5464.65 1942.24V1924.37C5458.41 1924.37 5455.33 1923.36 5454.11 1922.61L5444.7 1937.8ZM5464.65 1942.24C5468.1 1942.24 5471.58 1941.9 5475.09 1941.26L5471.85 1923.68C5469.33 1924.14 5466.93 1924.37 5464.65 1924.37V1942.24ZM5475.09 1941.26C5478.52 1940.62 5481.72 1939.77 5484.6 1938.64L5478.07 1922.01C5476.5 1922.62 5474.46 1923.2 5471.85 1923.68L5475.09 1941.26ZM5472.4 1930.32V1939.86H5490.27V1930.32H5472.4ZM5477.75 1931.67C5476.02 1932.43 5473.81 1933.08 5471.05 1933.54L5473.99 1951.17C5477.9 1950.52 5481.57 1949.51 5484.92 1948.04L5477.75 1931.67ZM5471.01 1933.55C5468.31 1934.01 5465.33 1934.26 5462.03 1934.26V1952.13C5466.21 1952.13 5470.21 1951.82 5474.02 1951.17L5471.01 1933.55ZM5443.45 1919.36H5473.35V1901.49H5443.45V1919.36ZM5482.29 1910.43V1906.49H5464.42V1910.43H5482.29ZM5482.29 1906.49C5482.29 1900.93 5480.71 1895.38 5476.45 1891.12L5463.82 1903.76C5463.85 1903.79 5464.42 1904.27 5464.42 1906.49H5482.29ZM5476.57 1891.24C5471.93 1886.42 5465.31 1885.17 5459.29 1885.17V1903.04C5461.23 1903.04 5462.47 1903.26 5463.19 1903.48C5463.87 1903.69 5463.89 1903.84 5463.7 1903.64L5476.57 1891.24ZM5459.29 1885.17C5452.47 1885.17 5444.97 1886.56 5440.07 1892.14L5453.49 1903.93C5453.33 1904.13 5453.4 1903.9 5454.32 1903.61C5455.28 1903.31 5456.86 1903.04 5459.29 1903.04V1885.17ZM5439.97 1892.25C5435.73 1897.24 5434.51 1903.93 5434.51 1910.43H5452.38C5452.38 1905.64 5453.38 1904.07 5453.6 1903.82L5439.97 1892.25ZM5504.48 1942.36L5503.07 1951.18L5503.09 1951.19L5503.1 1951.19L5504.48 1942.36ZM5495.78 1940.33H5486.84V1946.7L5492.87 1948.78L5495.78 1940.33ZM5495.78 1929.37L5498.97 1921.02L5486.84 1916.39V1929.37H5495.78ZM5504.72 1931.75L5506.22 1922.94L5506.22 1922.94L5504.72 1931.75ZM5523.54 1931.4L5520.1 1923.15L5520.1 1923.15L5523.54 1931.4ZM5524.61 1922.82L5518.8 1929.6L5518.91 1929.7L5519.03 1929.79L5524.61 1922.82ZM5519.49 1920.2L5516.48 1928.61L5516.53 1928.63L5516.58 1928.64L5519.49 1920.2ZM5510.91 1917.34L5508.09 1925.81L5508.14 1925.83L5508.2 1925.85L5510.91 1917.34ZM5502.21 1913.76L5497.92 1921.6L5498.02 1921.65L5498.11 1921.7L5502.21 1913.76ZM5496.49 1908.64L5489.02 1913.53L5489.02 1913.53L5496.49 1908.64ZM5500.07 1888.62L5505.41 1895.79L5505.45 1895.75L5505.5 1895.72L5500.07 1888.62ZM5527.35 1885.05L5525.92 1893.87L5525.92 1893.87L5527.35 1885.05ZM5534.86 1886.83H5543.8V1880.47L5537.78 1878.39L5534.86 1886.83ZM5534.86 1897.68L5531.59 1905.99L5543.8 1910.79V1897.68H5534.86ZM5527.47 1895.65L5525.87 1904.44L5525.9 1904.45L5525.92 1904.45L5527.47 1895.65ZM5510.67 1896.01L5507.85 1887.53L5507.8 1887.55L5507.75 1887.56L5510.67 1896.01ZM5510.79 1905.06L5507.16 1913.23L5507.34 1913.31L5507.52 1913.38L5510.79 1905.06ZM5521.4 1908.76L5518.61 1917.25L5518.71 1917.28L5518.8 1917.31L5521.4 1908.76ZM5532 1913.05L5527.54 1920.79L5527.54 1920.79L5532 1913.05ZM5537.6 1918.53L5529.67 1922.64L5529.76 1922.82L5529.86 1922.99L5537.6 1918.53ZM5533.31 1939.14L5538.27 1946.58L5538.32 1946.54L5538.37 1946.51L5533.31 1939.14ZM5515.68 1934.26C5512.21 1934.26 5508.94 1934.01 5505.85 1933.53L5503.1 1951.19C5507.17 1951.82 5511.36 1952.13 5515.68 1952.13V1934.26ZM5505.88 1933.53C5502.69 1933.02 5500.34 1932.45 5498.69 1931.88L5492.87 1948.78C5495.83 1949.8 5499.27 1950.58 5503.07 1951.18L5505.88 1933.53ZM5504.72 1940.33V1929.37H5486.84V1940.33H5504.72ZM5492.59 1937.72C5495.91 1938.99 5499.46 1939.92 5503.21 1940.56L5506.22 1922.94C5503.46 1922.47 5501.05 1921.82 5498.97 1921.02L5492.59 1937.72ZM5503.21 1940.56C5506.91 1941.19 5510.51 1941.52 5514.01 1941.52V1923.65C5511.63 1923.65 5509.04 1923.43 5506.22 1922.94L5503.21 1940.56ZM5514.01 1941.52C5518.59 1941.52 5523.31 1941.17 5526.98 1939.64L5520.1 1923.15C5520.19 1923.11 5519.8 1923.28 5518.62 1923.42C5517.51 1923.56 5515.99 1923.65 5514.01 1923.65V1941.52ZM5526.98 1939.64C5529.42 1938.63 5531.71 1936.9 5533.3 1934.32C5534.84 1931.81 5535.34 1929.12 5535.34 1926.75H5517.46C5517.46 1926.68 5517.48 1925.92 5518.08 1924.95C5518.71 1923.92 5519.57 1923.37 5520.1 1923.15L5526.98 1939.64ZM5535.34 1926.75C5535.34 1922.66 5533.72 1918.66 5530.2 1915.84L5519.03 1929.79C5518.6 1929.45 5518.14 1928.91 5517.82 1928.21C5517.51 1927.54 5517.46 1926.99 5517.46 1926.75H5535.34ZM5530.43 1916.03C5528.08 1914.02 5525.16 1912.7 5522.4 1911.75L5516.58 1928.64C5517.43 1928.94 5518.03 1929.2 5518.43 1929.4C5518.84 1929.61 5518.91 1929.7 5518.8 1929.6L5530.43 1916.03ZM5522.5 1911.78C5520.14 1910.94 5517.17 1909.95 5513.62 1908.82L5508.2 1925.85C5511.65 1926.95 5514.4 1927.87 5516.48 1928.61L5522.5 1911.78ZM5513.74 1908.86C5510.73 1907.86 5508.27 1906.83 5506.31 1905.82L5498.11 1921.7C5501.08 1923.23 5504.42 1924.59 5508.09 1925.81L5513.74 1908.86ZM5506.51 1905.93C5505.15 1905.18 5504.42 1904.42 5503.97 1903.75L5489.02 1913.53C5491.27 1916.98 5494.35 1919.64 5497.92 1921.6L5506.51 1905.93ZM5503.97 1903.75C5503.85 1903.57 5503.4 1902.73 5503.4 1900.54H5485.53C5485.53 1905.01 5486.43 1909.58 5489.02 1913.53L5503.97 1903.75ZM5503.4 1900.54C5503.4 1897.84 5504.21 1896.68 5505.41 1895.79L5494.73 1881.45C5488.46 1886.12 5485.53 1892.91 5485.53 1900.54H5503.4ZM5505.5 1895.72C5506.88 1894.66 5510.44 1893.27 5518.06 1893.27V1875.4C5509.16 1875.4 5500.73 1876.86 5494.63 1881.53L5505.5 1895.72ZM5518.06 1893.27C5520.88 1893.27 5523.5 1893.47 5525.92 1893.87L5528.78 1876.23C5525.33 1875.67 5521.75 1875.4 5518.06 1875.4V1893.27ZM5525.92 1893.87C5528.52 1894.29 5530.5 1894.78 5531.94 1895.28L5537.78 1878.39C5535.09 1877.46 5532.06 1876.76 5528.78 1876.23L5525.92 1893.87ZM5525.92 1886.83V1897.68H5543.8V1886.83H5525.92ZM5538.13 1889.36C5535.28 1888.24 5532.23 1887.42 5529.03 1886.85L5525.92 1904.45C5528.12 1904.84 5530 1905.37 5531.59 1905.99L5538.13 1889.36ZM5529.07 1886.86C5526 1886.3 5523 1886 5520.09 1886V1903.87C5521.78 1903.87 5523.7 1904.05 5525.87 1904.44L5529.07 1886.86ZM5520.09 1886C5515.65 1886 5511.37 1886.36 5507.85 1887.53L5513.5 1904.49C5514.27 1904.23 5516.26 1903.87 5520.09 1903.87V1886ZM5507.75 1887.56C5505.4 1888.38 5502.93 1889.86 5501.11 1892.38C5499.27 1894.93 5498.64 1897.76 5498.64 1900.3H5516.51C5516.51 1900.69 5516.4 1901.74 5515.59 1902.85C5514.8 1903.95 5513.88 1904.35 5513.6 1904.45L5507.75 1887.56ZM5498.64 1900.3C5498.64 1902.9 5499.29 1905.66 5500.97 1908.16C5502.64 1910.62 5504.9 1912.23 5507.16 1913.23L5514.42 1896.9C5514.54 1896.95 5515.19 1897.28 5515.79 1898.16C5516.4 1899.07 5516.51 1899.92 5516.51 1900.3H5498.64ZM5507.52 1913.38C5510 1914.35 5513.74 1915.65 5518.61 1917.25L5524.18 1900.27C5519.36 1898.69 5516.03 1897.52 5514.06 1896.75L5507.52 1913.38ZM5518.8 1917.31C5522.91 1918.55 5525.73 1919.75 5527.54 1920.79L5536.46 1905.3C5533.03 1903.33 5528.78 1901.66 5523.99 1900.21L5518.8 1917.31ZM5527.54 1920.79C5529.05 1921.66 5529.52 1922.36 5529.67 1922.64L5545.53 1914.41C5543.46 1910.41 5540.19 1907.45 5536.46 1905.3L5527.54 1920.79ZM5529.86 1922.99C5530.02 1923.26 5530.45 1924.27 5530.45 1926.63H5548.32C5548.32 1922.32 5547.57 1917.92 5545.34 1914.06L5529.86 1922.99ZM5530.45 1926.63C5530.45 1929.7 5529.53 1930.9 5528.25 1931.77L5538.37 1946.51C5545.2 1941.82 5548.32 1934.68 5548.32 1926.63H5530.45ZM5528.35 1931.71C5526.4 1933.01 5522.56 1934.26 5515.68 1934.26V1952.13C5524.2 1952.13 5532.12 1950.67 5538.27 1946.58L5528.35 1931.71ZM5572.38 1941.52L5569.29 1949.91L5569.29 1949.91L5572.38 1941.52ZM5564.04 1936.4L5570.04 1929.78L5557.34 1918.27L5555.17 1935.27L5564.04 1936.4ZM5563.32 1942V1950.94H5571.19L5572.19 1943.13L5563.32 1942ZM5552.12 1942H5543.18V1950.94H5552.12V1942ZM5552.12 1861.69V1852.76H5543.18V1861.69H5552.12ZM5565.11 1861.69H5574.04V1852.76H5565.11V1861.69ZM5565.11 1889.22H5556.17V1905.84L5570.04 1896.67L5565.11 1889.22ZM5601.81 1891.24L5595.49 1897.56L5595.54 1897.62L5595.6 1897.67L5601.81 1891.24ZM5601.93 1935.92L5608.4 1942.08L5608.4 1942.08L5601.93 1935.92ZM5592.04 1928.42L5584.85 1923.11L5584.8 1923.17L5584.76 1923.22L5592.04 1928.42ZM5591.8 1898.51L5598.39 1892.47L5598.39 1892.47L5591.8 1898.51ZM5565.11 1899.11L5559.16 1892.44L5556.17 1895.1V1899.11H5565.11ZM5565.11 1927.46H5556.17V1931L5558.6 1933.58L5565.11 1927.46ZM5583.1 1934.26C5579.74 1934.26 5577.26 1933.8 5575.47 1933.14L5569.29 1949.91C5573.53 1951.47 5578.2 1952.13 5583.1 1952.13V1934.26ZM5575.47 1933.14C5573.59 1932.45 5571.79 1931.36 5570.04 1929.78L5558.04 1943.02C5561.37 1946.04 5565.12 1948.37 5569.29 1949.91L5575.47 1933.14ZM5555.17 1935.27L5554.46 1940.87L5572.19 1943.13L5572.9 1937.53L5555.17 1935.27ZM5563.32 1933.06H5552.12V1950.94H5563.32V1933.06ZM5561.06 1942V1861.69H5543.18V1942H5561.06ZM5552.12 1870.63H5565.11V1852.76H5552.12V1870.63ZM5556.17 1861.69V1889.22H5574.04V1861.69H5556.17ZM5570.04 1896.67C5573.26 1894.54 5577.4 1893.27 5582.86 1893.27V1875.4C5574.5 1875.4 5566.8 1877.38 5560.18 1881.76L5570.04 1896.67ZM5582.86 1893.27C5589.1 1893.27 5592.93 1895 5595.49 1897.56L5608.13 1884.92C5601.47 1878.27 5592.67 1875.4 5582.86 1875.4V1893.27ZM5595.6 1897.67C5597.77 1899.77 5599.9 1904.21 5599.9 1913.29H5617.77C5617.77 1902.02 5615.21 1891.77 5608.02 1884.82L5595.6 1897.67ZM5599.9 1913.29C5599.9 1922.43 5597.81 1927.28 5595.45 1929.77L5608.4 1942.08C5615.25 1934.88 5617.77 1924.64 5617.77 1913.29H5599.9ZM5595.45 1929.77C5592.84 1932.51 5589.09 1934.26 5583.1 1934.26V1952.13C5592.99 1952.13 5601.79 1949.03 5608.4 1942.08L5595.45 1929.77ZM5579.64 1942.36C5587.08 1942.36 5594.6 1940.2 5599.31 1933.61L5584.76 1923.22C5584.71 1923.3 5583.97 1924.49 5579.64 1924.49V1942.36ZM5599.23 1933.72C5603.34 1928.15 5604.67 1920.85 5604.67 1913.29H5586.79C5586.79 1919.23 5585.66 1922.01 5584.85 1923.11L5599.23 1933.72ZM5604.67 1913.29C5604.67 1905.68 5603.34 1897.87 5598.39 1892.47L5585.21 1904.55C5585.5 1904.87 5586.79 1906.91 5586.79 1913.29H5604.67ZM5598.39 1892.47C5593.42 1887.06 5586.4 1885.29 5579.41 1885.29V1903.16C5583.69 1903.16 5584.93 1904.24 5585.21 1904.55L5598.39 1892.47ZM5579.41 1885.29C5571.8 1885.29 5564.77 1887.44 5559.16 1892.44L5571.05 1905.78C5572.76 1904.26 5575.26 1903.16 5579.41 1903.16V1885.29ZM5556.17 1899.11V1927.46H5574.04V1899.11H5556.17ZM5558.6 1933.58C5564.19 1939.53 5571.48 1942.36 5579.64 1942.36V1924.49C5575.9 1924.49 5573.5 1923.34 5571.62 1921.34L5558.6 1933.58ZM5626.24 1937.59L5619.78 1943.77L5619.81 1943.81L5619.85 1943.84L5626.24 1937.59ZM5620.87 1885.52V1876.59H5611.94V1885.52H5620.87ZM5633.86 1885.52H5642.8V1876.59H5633.86V1885.52ZM5636.96 1930.44L5630.77 1936.88L5630.77 1936.88L5636.96 1930.44ZM5655.31 1931.63L5651.7 1923.46L5651.7 1923.46L5655.31 1931.63ZM5662.34 1926.87L5668.66 1933.19L5671.27 1930.57V1926.87H5662.34ZM5662.34 1885.52V1876.59H5653.4V1885.52H5662.34ZM5675.21 1885.52H5684.14V1876.59H5675.21V1885.52ZM5675.21 1942V1950.94H5684.14V1942H5675.21ZM5663.41 1942L5654.52 1942.91L5655.34 1950.94H5663.41V1942ZM5662.81 1936.16L5671.7 1935.25L5670.06 1919.16L5657.31 1929.12L5662.81 1936.16ZM5653.76 1941.17L5650.54 1932.83L5650.54 1932.83L5653.76 1941.17ZM5641.84 1934.26C5636.76 1934.26 5634.14 1932.89 5632.62 1931.34L5619.85 1943.84C5625.64 1949.76 5633.43 1952.13 5641.84 1952.13V1934.26ZM5632.69 1931.41C5631.25 1929.91 5629.81 1927 5629.81 1921.15H5611.94C5611.94 1929.75 5614.07 1937.81 5619.78 1943.77L5632.69 1931.41ZM5629.81 1921.15V1885.52H5611.94V1921.15H5629.81ZM5620.87 1894.46H5633.86V1876.59H5620.87V1894.46ZM5624.92 1885.52V1921.15H5642.8V1885.52H5624.92ZM5624.92 1921.15C5624.92 1926.65 5626.27 1932.56 5630.77 1936.88L5643.15 1924C5643.52 1924.36 5642.8 1924.07 5642.8 1921.15H5624.92ZM5630.77 1936.88C5635.16 1941.11 5641.02 1942.36 5646.49 1942.36V1924.49C5643.38 1924.49 5642.89 1923.75 5643.15 1924L5630.77 1936.88ZM5646.49 1942.36C5650.81 1942.36 5654.99 1941.54 5658.91 1939.81L5651.7 1923.46C5650.22 1924.11 5648.52 1924.49 5646.49 1924.49V1942.36ZM5658.91 1939.81C5662.57 1938.2 5665.85 1935.99 5668.66 1933.19L5656.02 1920.55C5654.85 1921.71 5653.44 1922.69 5651.7 1923.46L5658.91 1939.81ZM5671.27 1926.87V1885.52H5653.4V1926.87H5671.27ZM5662.34 1894.46H5675.21V1876.59H5662.34V1894.46ZM5666.27 1885.52V1942H5684.14V1885.52H5666.27ZM5675.21 1933.06H5663.41V1950.94H5675.21V1933.06ZM5672.3 1941.09L5671.7 1935.25L5653.92 1937.07L5654.52 1942.91L5672.3 1941.09ZM5657.31 1929.12C5655.56 1930.49 5653.34 1931.75 5650.54 1932.83L5656.98 1949.5C5661.17 1947.88 5664.98 1945.81 5668.32 1943.2L5657.31 1929.12ZM5650.54 1932.83C5648.24 1933.72 5645.39 1934.26 5641.84 1934.26V1952.13C5647.19 1952.13 5652.28 1951.32 5656.98 1949.5L5650.54 1932.83ZM5690.35 1942H5681.42V1950.94H5690.35V1942ZM5690.35 1885.52V1876.59H5681.42V1885.52H5690.35ZM5702.27 1885.52L5711.15 1884.55L5710.28 1876.59H5702.27V1885.52ZM5702.98 1892.08L5694.1 1893.05L5695.67 1907.45L5707.84 1899.58L5702.98 1892.08ZM5712.63 1887.31L5709.44 1878.97L5709.44 1878.97L5712.63 1887.31ZM5723.71 1884.33H5732.65V1873.93L5722.37 1875.5L5723.71 1884.33ZM5723.71 1894.22L5725.29 1903.02L5732.65 1901.7V1894.22H5723.71ZM5716.45 1896.01L5718.87 1904.61L5718.95 1904.59L5719.04 1904.56L5716.45 1896.01ZM5709.18 1898.51L5712.35 1906.87L5712.47 1906.82L5712.59 1906.77L5709.18 1898.51ZM5703.34 1901.25L5698.74 1893.59L5694.4 1896.19V1901.25H5703.34ZM5703.34 1942V1950.94H5712.28V1942H5703.34ZM5699.29 1942V1885.52H5681.42V1942H5699.29ZM5690.35 1894.46H5702.27V1876.59H5690.35V1894.46ZM5693.38 1886.49L5694.1 1893.05L5711.87 1891.11L5711.15 1884.55L5693.38 1886.49ZM5707.84 1899.58C5709.91 1898.24 5712.54 1896.91 5715.83 1895.66L5709.44 1878.97C5705.26 1880.57 5701.46 1882.42 5698.13 1884.57L5707.84 1899.58ZM5715.83 1895.66C5719.01 1894.44 5722.09 1893.62 5725.06 1893.17L5722.37 1875.5C5718.03 1876.16 5713.72 1877.33 5709.44 1878.97L5715.83 1895.66ZM5714.78 1884.33V1894.22H5732.65V1884.33H5714.78ZM5722.14 1885.42C5719.51 1885.89 5716.74 1886.58 5713.85 1887.46L5719.04 1904.56C5721.39 1903.85 5723.47 1903.34 5725.29 1903.02L5722.14 1885.42ZM5714.03 1887.41C5711.17 1888.21 5708.41 1889.16 5705.76 1890.25L5712.59 1906.77C5714.55 1905.96 5716.64 1905.24 5718.87 1904.61L5714.03 1887.41ZM5706.01 1890.16C5703.36 1891.16 5700.91 1892.29 5698.74 1893.59L5707.94 1908.91C5708.95 1908.31 5710.39 1907.61 5712.35 1906.87L5706.01 1890.16ZM5694.4 1901.25V1942H5712.28V1901.25H5694.4ZM5703.34 1933.06H5690.35V1950.94H5703.34V1933.06ZM5743.42 1962.14L5744.59 1953.28L5744.51 1953.27L5744.42 1953.26L5743.42 1962.14ZM5732.7 1959.87H5723.76V1966.2L5729.73 1968.3L5732.7 1959.87ZM5732.7 1949.86L5735.46 1941.37L5723.76 1937.56V1949.86H5732.7ZM5767.96 1952.13L5765.86 1943.44L5765.86 1943.44L5767.96 1952.13ZM5769.99 1944.26L5774.37 1936.48L5774.18 1936.37L5773.99 1936.27L5769.99 1944.26ZM5734.12 1926.03L5741.51 1931.06L5741.51 1931.06L5734.12 1926.03ZM5740.56 1921.51L5743.52 1929.94L5763.69 1922.85L5744.48 1913.47L5740.56 1921.51ZM5733.29 1914.95L5725.44 1919.22L5725.48 1919.3L5725.53 1919.39L5733.29 1914.95ZM5737.46 1889.22L5732.12 1882.05L5732.09 1882.08L5732.06 1882.1L5737.46 1889.22ZM5762.72 1884.81L5761.31 1893.63L5761.48 1893.66L5761.66 1893.68L5762.72 1884.81ZM5767.37 1885.52L5765.49 1894.26L5766.42 1894.46H5767.37V1885.52ZM5788.1 1885.52L5797.03 1885.9L5797.42 1876.59H5788.1V1885.52ZM5787.74 1893.98V1902.92H5796.31L5796.67 1894.36L5787.74 1893.98ZM5778.21 1893.98V1885.05H5753.73L5772.45 1900.82L5778.21 1893.98ZM5781.55 1898.75L5773.18 1901.89L5773.18 1901.89L5781.55 1898.75ZM5777.14 1919.24L5783.24 1925.77L5783.28 1925.74L5783.31 1925.7L5777.14 1919.24ZM5757 1924.25L5755.64 1933.08L5756 1933.13L5756.36 1933.16L5757 1924.25ZM5753.55 1923.77L5754.65 1914.9L5753.66 1914.78L5752.66 1914.88L5753.55 1923.77ZM5747.11 1925.68L5742.86 1917.82L5742.86 1917.82L5747.11 1925.68ZM5745.68 1932.47L5741.18 1940.19L5741.43 1940.33L5741.69 1940.46L5745.68 1932.47ZM5779.28 1936.88L5773.63 1943.8L5773.73 1943.88L5773.83 1943.96L5779.28 1936.88ZM5776.66 1959.28L5772.72 1951.26L5772.64 1951.3L5772.56 1951.34L5776.66 1959.28ZM5767.72 1913.52L5761.95 1906.7L5761.89 1906.76L5761.82 1906.81L5767.72 1913.52ZM5767.72 1895.41L5761.54 1901.86L5761.6 1901.92L5761.66 1901.98L5767.72 1895.41ZM5746.16 1913.4L5740.24 1920.1L5740.3 1920.15L5740.36 1920.21L5746.16 1913.4ZM5756.05 1954.03C5752.23 1954.03 5748.41 1953.78 5744.59 1953.28L5742.25 1971C5746.84 1971.6 5751.44 1971.91 5756.05 1971.91V1954.03ZM5744.42 1953.26C5740.66 1952.83 5737.78 1952.19 5735.66 1951.44L5729.73 1968.3C5733.49 1969.62 5737.76 1970.49 5742.41 1971.02L5744.42 1953.26ZM5741.63 1959.87V1949.86H5723.76V1959.87H5741.63ZM5729.93 1958.36C5733.73 1959.6 5737.93 1960.49 5742.46 1961.1L5744.85 1943.39C5741.13 1942.89 5738.02 1942.2 5735.46 1941.37L5729.93 1958.36ZM5742.46 1961.1C5746.95 1961.71 5751.28 1962.02 5755.45 1962.02V1944.14C5752.16 1944.14 5748.63 1943.9 5744.85 1943.39L5742.46 1961.1ZM5755.45 1962.02C5761.27 1962.02 5766.35 1961.71 5770.07 1960.81L5765.86 1943.44C5764.34 1943.81 5761.07 1944.14 5755.45 1944.14V1962.02ZM5770.07 1960.81C5772.45 1960.23 5775.26 1959.06 5777.5 1956.62C5779.89 1954.01 5780.83 1950.83 5780.83 1947.84H5762.96C5762.96 1947.07 5763.25 1945.72 5764.32 1944.54C5765.25 1943.53 5766.1 1943.39 5765.86 1943.44L5770.07 1960.81ZM5780.83 1947.84C5780.83 1943.5 5778.91 1939.03 5774.37 1936.48L5765.61 1952.05C5764.88 1951.64 5764.08 1950.93 5763.53 1949.9C5763.02 1948.93 5762.96 1948.13 5762.96 1947.84H5780.83ZM5773.99 1936.27C5772.04 1935.3 5769.98 1934.9 5768.38 1934.69C5766.65 1934.46 5764.74 1934.37 5762.72 1934.37V1952.25C5764.28 1952.25 5765.36 1952.32 5766.06 1952.41C5766.4 1952.45 5766.56 1952.49 5766.59 1952.5C5766.63 1952.51 5766.39 1952.46 5765.99 1952.26L5773.99 1936.27ZM5762.72 1934.37H5747.47V1952.25H5762.72V1934.37ZM5747.47 1934.37C5743.12 1934.37 5741.46 1933.56 5741.09 1933.3C5741.01 1933.24 5741.09 1933.29 5741.14 1933.39C5741.17 1933.45 5741.04 1933.22 5741.04 1932.47H5723.16C5723.16 1938.48 5725.47 1944.15 5730.79 1947.9C5735.54 1951.26 5741.57 1952.25 5747.47 1952.25V1934.37ZM5741.04 1932.47C5741.04 1932.04 5741.13 1931.63 5741.51 1931.06L5726.74 1921.01C5724.42 1924.41 5723.16 1928.29 5723.16 1932.47H5741.04ZM5741.51 1931.06C5741.53 1931.03 5741.62 1930.91 5741.89 1930.72C5742.18 1930.52 5742.69 1930.23 5743.52 1929.94L5737.6 1913.08C5733.39 1914.55 5729.44 1917.03 5726.74 1921.01L5741.51 1931.06ZM5744.48 1913.47C5742.61 1912.57 5741.63 1911.54 5741.05 1910.52L5725.53 1919.39C5728.12 1923.92 5731.99 1927.27 5736.64 1929.54L5744.48 1913.47ZM5741.14 1910.69C5740.49 1909.49 5739.96 1907.69 5739.96 1904.94H5722.09C5722.09 1909.99 5723.07 1914.86 5725.44 1919.22L5741.14 1910.69ZM5739.96 1904.94C5739.96 1899.48 5741.51 1897.36 5742.86 1896.33L5732.06 1882.1C5724.83 1887.59 5722.09 1895.95 5722.09 1904.94H5739.96ZM5742.8 1896.38C5744.96 1894.78 5749.22 1893.27 5757 1893.27V1875.4C5747.47 1875.4 5738.7 1877.15 5732.12 1882.05L5742.8 1896.38ZM5757 1893.27C5758.31 1893.27 5759.74 1893.38 5761.31 1893.63L5764.13 1875.98C5761.73 1875.6 5759.35 1875.4 5757 1875.4V1893.27ZM5761.66 1893.68C5763.54 1893.91 5764.78 1894.11 5765.49 1894.26L5769.24 1876.79C5767.73 1876.46 5765.87 1876.19 5763.79 1875.94L5761.66 1893.68ZM5767.37 1894.46H5788.1V1876.59H5767.37V1894.46ZM5779.17 1885.15L5778.81 1893.61L5796.67 1894.36L5797.03 1885.9L5779.17 1885.15ZM5787.74 1885.05H5778.21V1902.92H5787.74V1885.05ZM5772.45 1900.82C5772.75 1901.07 5772.98 1901.37 5773.18 1901.89L5789.91 1895.61C5788.68 1892.32 5786.69 1889.44 5783.97 1887.15L5772.45 1900.82ZM5773.18 1901.89C5773.48 1902.7 5773.68 1903.69 5773.68 1904.94H5791.55C5791.55 1901.75 5791.04 1898.61 5789.91 1895.61L5773.18 1901.89ZM5773.68 1904.94C5773.68 1909.05 5772.51 1911.3 5770.96 1912.78L5783.31 1925.7C5789.07 1920.2 5791.55 1912.91 5791.55 1904.94H5773.68ZM5771.04 1912.71C5769.68 1913.98 5766.76 1915.43 5760.58 1915.43V1933.3C5769.17 1933.3 5777.29 1931.33 5783.24 1925.77L5771.04 1912.71ZM5760.58 1915.43C5759.49 1915.43 5758.51 1915.4 5757.64 1915.33L5756.36 1933.16C5757.72 1933.26 5759.12 1933.3 5760.58 1933.3V1915.43ZM5758.36 1915.41C5757.23 1915.24 5755.99 1915.07 5754.65 1914.9L5752.44 1932.64C5753.64 1932.79 5754.71 1932.94 5755.64 1933.08L5758.36 1915.41ZM5752.66 1914.88C5749.22 1915.22 5745.91 1916.17 5742.86 1917.82L5751.37 1933.53C5752.13 1933.12 5753.11 1932.79 5754.44 1932.66L5752.66 1914.88ZM5742.86 1917.82C5738.89 1919.97 5735.32 1923.98 5735.32 1929.85H5753.19C5753.19 1930.71 5752.92 1931.7 5752.34 1932.55C5751.82 1933.31 5751.31 1933.56 5751.37 1933.53L5742.86 1917.82ZM5735.32 1929.85C5735.32 1933.91 5737.22 1937.88 5741.18 1940.19L5750.18 1924.75C5750.96 1925.2 5751.83 1925.97 5752.45 1927.12C5753.06 1928.23 5753.19 1929.24 5753.19 1929.85H5735.32ZM5741.69 1940.46C5744.63 1941.93 5748.03 1942.12 5750.45 1942.12V1924.25C5750.05 1924.25 5749.72 1924.24 5749.46 1924.22C5749.19 1924.2 5749.01 1924.18 5748.91 1924.17C5748.81 1924.15 5748.83 1924.15 5748.94 1924.18C5749.04 1924.21 5749.31 1924.29 5749.68 1924.48L5741.69 1940.46ZM5750.45 1942.12H5766.3V1924.25H5750.45V1942.12ZM5766.3 1942.12C5770.77 1942.12 5772.79 1943.11 5773.63 1943.8L5784.93 1929.95C5779.74 1925.72 5773.1 1924.25 5766.3 1924.25V1942.12ZM5773.83 1943.96C5774.33 1944.34 5774.99 1944.97 5774.99 1947.36H5792.87C5792.87 1940.54 5790.44 1934.18 5784.73 1929.79L5773.83 1943.96ZM5774.99 1947.36C5774.99 1948.82 5774.69 1949.52 5774.48 1949.86C5774.29 1950.17 5773.87 1950.69 5772.72 1951.26L5780.6 1967.3C5784.3 1965.48 5787.51 1962.82 5789.74 1959.16C5791.96 1955.52 5792.87 1951.46 5792.87 1947.36H5774.99ZM5772.56 1951.34C5769.64 1952.84 5764.44 1954.03 5756.05 1954.03V1971.91C5765.61 1971.91 5774.15 1970.63 5780.76 1967.22L5772.56 1951.34ZM5757 1925.08C5762.55 1925.08 5769.04 1924.27 5773.63 1920.23L5761.82 1906.81C5762.25 1906.44 5762.34 1906.59 5761.43 1906.81C5760.56 1907.02 5759.13 1907.21 5757 1907.21V1925.08ZM5773.5 1920.35C5778.47 1916.14 5779.76 1909.96 5779.76 1904.59H5761.89C5761.89 1906.01 5761.71 1906.76 5761.6 1907.05C5761.53 1907.28 5761.57 1907.02 5761.95 1906.7L5773.5 1920.35ZM5779.76 1904.59C5779.76 1899.13 5778.43 1893.14 5773.79 1888.85L5761.66 1901.98C5761.44 1901.78 5761.47 1901.67 5761.58 1901.99C5761.71 1902.37 5761.89 1903.18 5761.89 1904.59H5779.76ZM5773.91 1888.97C5769.31 1884.54 5762.67 1883.62 5757 1883.62V1901.49C5759.09 1901.49 5760.45 1901.69 5761.25 1901.9C5762.06 1902.12 5761.94 1902.25 5761.54 1901.86L5773.91 1888.97ZM5757 1883.62C5751.38 1883.62 5745.32 1884.61 5740.72 1888.39L5752.07 1902.2C5751.94 1902.3 5752.12 1902.11 5752.95 1901.89C5753.8 1901.67 5755.1 1901.49 5757 1901.49V1883.62ZM5740.72 1888.39C5735.55 1892.64 5734.12 1898.95 5734.12 1904.59H5752C5752 1903.12 5752.19 1902.33 5752.31 1902.01C5752.4 1901.75 5752.37 1901.95 5752.07 1902.2L5740.72 1888.39ZM5734.12 1904.59C5734.12 1909.98 5735.5 1915.91 5740.24 1920.1L5752.08 1906.71C5752.33 1906.93 5752.34 1907.09 5752.27 1906.87C5752.17 1906.59 5752 1905.89 5752 1904.59H5734.12ZM5740.36 1920.21C5745 1924.15 5751.32 1925.08 5757 1925.08V1907.21C5754.95 1907.21 5753.55 1907.02 5752.67 1906.8C5751.78 1906.57 5751.7 1906.39 5751.95 1906.6L5740.36 1920.21Z" fill="#49ACD1" fill-opacity="0.5"/>
</svg>
