<svg width="8192" height="8192" viewBox="0 0 8192 8192" fill="none" xmlns="http://www.w3.org/2000/svg">
<path d="M4785.74 2570.43C4935.85 2335.06 5023.19 1848.19 5050.52 1615.36C5051.88 1603.79 5051.06 1592.24 5048.48 1580.89C4972.23 1245.14 5037.89 851.383 5101.84 616.227C5118.78 553.937 5200.43 499.938 5263.81 487.652C5385.84 463.994 5565.48 412.366 5671 379.5C5822.18 352.937 6312.47 375.713 6554.99 391.386C6566.34 392.119 6577.76 390.858 6588.74 387.862C6984.95 279.663 7194.99 337.103 7260.39 385.449L7261.55 386.303C7267.16 390.454 7272.73 394.58 7278.68 398.237C7436.27 495.055 7495.05 702.967 7507.78 817.535C7509.67 834.57 7506.51 851.944 7496.49 865.852C7417.11 976.063 7168.23 1059.62 7046.5 1089C6712.8 1216.27 6595.77 1424.11 6574.67 1526.76C6572.46 1537.49 6569.65 1548.06 6564.68 1557.82C6477.73 1728.34 6301.71 1895.01 6222.5 1958.5C6010.1 2090.5 5759 2466.5 5660 2638C5529.92 2862.86 5512.75 3090.67 5520.84 3187.85C5521.49 3195.66 5521.56 3203.46 5520.52 3211.22C5496.6 3389.41 5414 3528.77 5369.61 3584.13C5365.59 3589.13 5361.13 3593.46 5355.94 3597.23C5190.77 3717.16 4703.8 3754.9 4462.78 3759.26C4452.21 3759.45 4441.83 3757.97 4431.86 3754.48C4265.69 3696.43 4139.02 3553.85 4095.5 3488C4053.5 3418.8 4118.67 3340.5 4156.5 3310C4212.48 3276.02 4392.53 3185.59 4453.85 3111.9C4458.12 3106.77 4462.45 3101.8 4467.26 3097.17C4596.47 2973.09 4724.49 2712.59 4776.8 2587.42C4779.31 2581.44 4782.25 2575.9 4785.74 2570.43Z" fill="#49ACD1" fill-opacity="0.5"/>
<path d="M7045.33 1084.14L7045.02 1084.21L7044.72 1084.33C6709.68 1212.11 6591.27 1421.18 6569.77 1525.76C6567.59 1536.34 6564.89 1546.39 6560.22 1555.55C6473.83 1724.97 6298.71 1890.95 6219.6 1954.41C6112.66 2020.96 5996.44 2148.48 5894.76 2280.38C5792.91 2412.52 5705.27 2549.58 5655.67 2635.5C5525 2861.38 5507.7 3090.23 5515.86 3188.27C5516.49 3195.84 5516.54 3203.25 5515.56 3210.56C5491.78 3387.69 5409.63 3526.22 5365.71 3581C5361.95 3585.68 5357.81 3589.69 5353 3593.18C5312.43 3622.64 5251.7 3647.3 5179.24 3667.72C5106.87 3688.11 5023.22 3704.17 4937.08 3716.63C4764.82 3741.57 4583.04 3752.08 4462.68 3754.26C4452.65 3754.44 4442.87 3753.03 4433.51 3749.76C4268.81 3692.23 4142.96 3550.69 4099.73 3485.32C4079.99 3452.74 4085.22 3417.83 4100.55 3386.7C4115.85 3355.62 4140.89 3329.06 4159.38 3314.1C4170.85 3307.16 4187.48 3297.85 4207.31 3286.76C4211.53 3284.4 4215.9 3281.96 4220.4 3279.44C4246.12 3265.03 4275.85 3248.2 4305.76 3230.12C4365.36 3194.1 4426.42 3152.68 4457.69 3115.1C4461.92 3110.01 4466.11 3105.21 4470.73 3100.78C4535.86 3038.23 4600.46 2941.57 4655.22 2845.17C4710.02 2748.7 4755.19 2652.09 4781.42 2589.35C4783.8 2583.65 4786.61 2578.36 4789.95 2573.12C4865.48 2454.7 4924.99 2273.46 4969.03 2093.13C5013.1 1912.66 5041.8 1732.53 5055.49 1615.94C5056.92 1603.75 5056.04 1591.63 5053.35 1579.78C4977.37 1245.22 5042.79 852.402 5106.66 617.54C5114.73 587.897 5138.41 559.669 5168.41 537.189C5198.34 514.758 5233.91 498.541 5264.76 492.56C5386.95 468.87 5566.58 417.25 5672.18 384.37C5747.31 371.244 5906.93 370.273 6078.61 374.603C6250.32 378.933 6433.45 388.542 6554.67 396.375C6566.6 397.147 6578.58 395.819 6590.05 392.685C6787.74 338.701 6938.75 326.104 7048.31 332.941C7158.01 339.788 7225.79 366.088 7257.42 389.469L7258.57 390.323L7258.66 390.387C7264.21 394.497 7269.93 398.729 7276.07 402.497C7353.74 450.217 7407.27 525.462 7443.01 603.315C7478.73 681.153 7496.49 761.241 7502.81 818.087C7504.6 834.191 7501.57 850.247 7492.43 862.93C7453.6 916.849 7372.66 964.848 7285.37 1003.16C7198.32 1041.36 7105.96 1069.51 7045.33 1084.14Z" stroke="#49ACD1" stroke-opacity="0.5" stroke-width="10"/>
<path d="M3261.19 4187.34C3124.15 4147.13 2723.68 4163.06 2535.5 4176.5C2409.85 4202.17 2318.5 4332.3 2284.21 4402.12C2281.31 4408.02 2279.1 4414.21 2278.22 4420.72C2263.73 4528.13 2408.51 4682.5 2485 4748C2620.99 4840.85 2866.36 4948.21 3028.47 5012.83C3078.92 5032.95 3134.8 5007.51 3153.04 4956.35C3188.27 4857.53 3239.85 4709.47 3270.12 4624.21C3271.73 4619.68 3273.64 4615.44 3275.64 4611.08C3300.58 4556.6 3336.74 4398.87 3354.9 4311.59C3356.98 4301.56 3361.88 4291.53 3359.92 4281.48C3354.73 4254.86 3312.45 4218.97 3282.36 4197.73C3275.87 4193.15 3268.81 4189.57 3261.19 4187.34Z" fill="#49ACD1" fill-opacity="0.5"/>
<path d="M2379.2 4276.22C2421.57 4232.22 2474.86 4194.08 2536.18 4181.46C2630.2 4174.76 2777.07 4167.44 2917.55 4166.8C2987.87 4166.48 3056.53 4167.84 3116.12 4171.78C3175.81 4175.73 3226.08 4182.25 3259.78 4192.13C3266.81 4194.2 3273.38 4197.52 3279.47 4201.82C3294.37 4212.33 3312.22 4226.43 3326.94 4241.13C3334.3 4248.47 3340.79 4255.88 3345.73 4263C3350.71 4270.17 3353.9 4276.74 3355.01 4282.44C3355.78 4286.4 3355.25 4290.58 3354.07 4295.35C3353.58 4297.34 3353 4299.34 3352.39 4301.44C3352.27 4301.85 3352.15 4302.27 3352.03 4302.69C3351.31 4305.21 3350.56 4307.87 3350 4310.58C3340.93 4354.17 3327.37 4415.35 3312.97 4472.41C3298.52 4529.64 3283.35 4582.24 3271.1 4608.99C3269.1 4613.35 3267.1 4617.77 3265.41 4622.53C3252.07 4660.1 3234.62 4709.79 3216.26 4762.07C3192.9 4828.59 3168.06 4899.31 3148.33 4954.67C3131.04 5003.17 3078.13 5027.25 3030.32 5008.19C2868.28 4943.59 2623.57 4836.49 2488.05 4744.02C2450.03 4711.45 2395.12 4656.85 2351.53 4597.13C2329.7 4567.22 2310.8 4536.16 2298.27 4506.04C2285.73 4475.88 2279.71 4447.03 2283.17 4421.39C2283.96 4415.56 2285.96 4409.9 2288.7 4404.32C2305.65 4369.81 2336.78 4320.26 2379.2 4276.22Z" stroke="#49ACD1" stroke-opacity="0.5" stroke-width="10"/>
<path d="M6477.28 1872V1820.48H6486V1865.28H6512.4V1872H6477.28ZM6536.48 1872.8C6529.87 1872.8 6524.75 1871.17 6521.12 1867.92C6517.5 1864.67 6515.68 1859.68 6515.68 1852.96C6515.68 1846.88 6517.23 1842.08 6520.32 1838.56C6523.42 1835.04 6528.11 1833.28 6534.4 1833.28C6540.16 1833.28 6544.48 1834.8 6547.36 1837.84C6550.3 1840.83 6551.76 1844.69 6551.76 1849.44V1856.48H6524C6524.43 1860.16 6525.76 1862.69 6528 1864.08C6530.24 1865.47 6533.66 1866.16 6538.24 1866.16C6540.16 1866.16 6542.14 1865.97 6544.16 1865.6C6546.19 1865.23 6547.95 1864.75 6549.44 1864.16V1870.56C6547.74 1871.31 6545.76 1871.87 6543.52 1872.24C6541.34 1872.61 6538.99 1872.8 6536.48 1872.8ZM6524 1850.8H6544.08V1848.16C6544.08 1845.55 6543.36 1843.52 6541.92 1842.08C6540.48 1840.59 6538.06 1839.84 6534.64 1839.84C6530.59 1839.84 6527.79 1840.72 6526.24 1842.48C6524.75 1844.24 6524 1847.01 6524 1850.8ZM6579.45 1872.8C6572.84 1872.8 6567.72 1871.17 6564.09 1867.92C6560.46 1864.67 6558.65 1859.68 6558.65 1852.96C6558.65 1846.88 6560.2 1842.08 6563.29 1838.56C6566.38 1835.04 6571.08 1833.28 6577.37 1833.28C6583.13 1833.28 6587.45 1834.8 6590.33 1837.84C6593.26 1840.83 6594.73 1844.69 6594.73 1849.44V1856.48H6566.97C6567.4 1860.16 6568.73 1862.69 6570.97 1864.08C6573.21 1865.47 6576.62 1866.16 6581.21 1866.16C6583.13 1866.16 6585.1 1865.97 6587.13 1865.6C6589.16 1865.23 6590.92 1864.75 6592.41 1864.16V1870.56C6590.7 1871.31 6588.73 1871.87 6586.49 1872.24C6584.3 1872.61 6581.96 1872.8 6579.45 1872.8ZM6566.97 1850.8H6587.05V1848.16C6587.05 1845.55 6586.33 1843.52 6584.89 1842.08C6583.45 1840.59 6581.02 1839.84 6577.61 1839.84C6573.56 1839.84 6570.76 1840.72 6569.21 1842.48C6567.72 1844.24 6566.97 1847.01 6566.97 1850.8ZM6615.47 1872.8C6612.86 1872.8 6610.35 1872.61 6607.95 1872.24C6605.6 1871.87 6603.66 1871.41 6602.11 1870.88V1863.52C6603.92 1864.21 6605.92 1864.75 6608.11 1865.12C6610.3 1865.49 6612.38 1865.68 6614.35 1865.68C6617.34 1865.68 6619.47 1865.41 6620.75 1864.88C6622.03 1864.35 6622.67 1863.31 6622.67 1861.76C6622.67 1860.64 6622.27 1859.76 6621.47 1859.12C6620.72 1858.48 6619.58 1857.89 6618.03 1857.36C6616.54 1856.83 6614.62 1856.19 6612.27 1855.44C6610.03 1854.69 6608.08 1853.89 6606.43 1853.04C6604.78 1852.13 6603.5 1850.99 6602.59 1849.6C6601.68 1848.21 6601.23 1846.4 6601.23 1844.16C6601.23 1840.69 6602.48 1838.03 6604.99 1836.16C6607.5 1834.24 6611.52 1833.28 6617.07 1833.28C6619.26 1833.28 6621.34 1833.44 6623.31 1833.76C6625.28 1834.08 6626.96 1834.48 6628.35 1834.96V1842.24C6626.86 1841.65 6625.2 1841.2 6623.39 1840.88C6621.63 1840.56 6619.98 1840.4 6618.43 1840.4C6615.66 1840.4 6613.55 1840.64 6612.11 1841.12C6610.72 1841.6 6610.03 1842.56 6610.03 1844C6610.03 1845.49 6610.75 1846.56 6612.19 1847.2C6613.68 1847.79 6616.06 1848.61 6619.31 1849.68C6622.3 1850.59 6624.67 1851.55 6626.43 1852.56C6628.19 1853.57 6629.44 1854.8 6630.19 1856.24C6630.99 1857.63 6631.39 1859.44 6631.39 1861.68C6631.39 1865.41 6630.03 1868.21 6627.31 1870.08C6624.59 1871.89 6620.64 1872.8 6615.47 1872.8ZM6660.74 1872.8C6657.97 1872.8 6655.57 1872.43 6653.54 1871.68C6651.51 1870.93 6649.65 1869.79 6647.94 1868.24L6647.46 1872H6639.94V1818.08H6648.66V1836.56C6651.97 1834.37 6655.94 1833.28 6660.58 1833.28C6665.97 1833.28 6670.21 1834.83 6673.3 1837.92C6676.45 1840.96 6678.02 1845.89 6678.02 1852.72C6678.02 1859.6 6676.47 1864.67 6673.38 1867.92C6670.29 1871.17 6666.07 1872.8 6660.74 1872.8ZM6658.42 1866.24C6662.37 1866.24 6665.14 1865.12 6666.74 1862.88C6668.39 1860.64 6669.22 1857.25 6669.22 1852.72C6669.22 1848.03 6668.34 1844.72 6666.58 1842.8C6664.82 1840.88 6662.05 1839.92 6658.26 1839.92C6654.31 1839.92 6651.11 1841.01 6648.66 1843.2V1862.24C6651.17 1864.91 6654.42 1866.24 6658.42 1866.24ZM6700.18 1872.8C6695.65 1872.8 6692.15 1871.55 6689.7 1869.04C6687.3 1866.53 6686.1 1862.85 6686.1 1858V1834.08H6694.82V1858C6694.82 1860.83 6695.51 1862.91 6696.9 1864.24C6698.29 1865.57 6700.42 1866.24 6703.3 1866.24C6705.43 1866.24 6707.41 1865.84 6709.22 1865.04C6711.03 1864.24 6712.61 1863.17 6713.94 1861.84V1834.08H6722.58V1872H6714.66L6714.26 1868.08C6712.55 1869.41 6710.53 1870.53 6708.18 1871.44C6705.83 1872.35 6703.17 1872.8 6700.18 1872.8ZM6732.75 1872V1834.08H6740.75L6741.23 1838.48C6743.04 1837.31 6745.2 1836.24 6747.71 1835.28C6750.22 1834.32 6752.7 1833.65 6755.15 1833.28V1839.92C6753.66 1840.19 6752.03 1840.59 6750.27 1841.12C6748.56 1841.6 6746.94 1842.16 6745.39 1842.8C6743.84 1843.39 6742.54 1844 6741.47 1844.64V1872H6732.75ZM6776.86 1886.08C6774.03 1886.08 6771.21 1885.89 6768.38 1885.52C6765.55 1885.2 6763.15 1884.69 6761.18 1884V1877.28C6763.31 1877.97 6765.77 1878.51 6768.54 1878.88C6771.31 1879.25 6773.95 1879.44 6776.46 1879.44C6780.3 1879.44 6783.1 1879.23 6784.86 1878.8C6786.62 1878.37 6787.5 1877.41 6787.5 1875.92C6787.5 1874.8 6787.07 1874 6786.22 1873.52C6785.37 1873.09 6783.74 1872.88 6781.34 1872.88H6771.1C6764.22 1872.88 6760.78 1870.45 6760.78 1865.6C6760.78 1864.05 6761.23 1862.61 6762.14 1861.28C6763.05 1859.95 6764.49 1858.93 6766.46 1858.24C6764.27 1857.17 6762.65 1855.71 6761.58 1853.84C6760.57 1851.97 6760.06 1849.73 6760.06 1847.12C6760.06 1842.27 6761.5 1838.75 6764.38 1836.56C6767.31 1834.37 6771.69 1833.28 6777.5 1833.28C6778.73 1833.28 6780.01 1833.39 6781.34 1833.6C6782.67 1833.76 6783.71 1833.92 6784.46 1834.08H6798.38L6798.14 1839.76H6791.74C6792.75 1840.61 6793.5 1841.68 6793.98 1842.96C6794.46 1844.24 6794.7 1845.63 6794.7 1847.12C6794.7 1851.17 6793.47 1854.37 6791.02 1856.72C6788.57 1859.01 6784.86 1860.16 6779.9 1860.16C6779.05 1860.16 6778.25 1860.13 6777.5 1860.08C6776.81 1859.97 6776.03 1859.87 6775.18 1859.76C6773.58 1859.92 6772.14 1860.35 6770.86 1861.04C6769.58 1861.73 6768.94 1862.67 6768.94 1863.84C6768.94 1864.64 6769.26 1865.23 6769.9 1865.6C6770.54 1865.92 6771.61 1866.08 6773.1 1866.08H6783.74C6787.53 1866.08 6790.43 1866.91 6792.46 1868.56C6794.54 1870.16 6795.58 1872.51 6795.58 1875.6C6795.58 1879.33 6793.95 1882 6790.7 1883.6C6787.5 1885.25 6782.89 1886.08 6776.86 1886.08ZM6777.5 1854.64C6780.97 1854.64 6783.37 1854.05 6784.7 1852.88C6786.09 1851.71 6786.78 1849.71 6786.78 1846.88C6786.78 1844.05 6786.09 1842 6784.7 1840.72C6783.37 1839.44 6780.97 1838.8 6777.5 1838.8C6774.25 1838.8 6771.87 1839.41 6770.38 1840.64C6768.89 1841.87 6768.14 1843.95 6768.14 1846.88C6768.14 1849.6 6768.83 1851.57 6770.22 1852.8C6771.66 1854.03 6774.09 1854.64 6777.5 1854.64Z" fill="#49ACD1"/>
<path d="M2104.09 4222V4170.48H2124.97C2132.59 4170.48 2138.25 4172.51 2141.93 4176.56C2145.61 4180.56 2147.45 4187.23 2147.45 4196.56C2147.45 4205.36 2145.63 4211.81 2142.01 4215.92C2138.38 4219.97 2132.7 4222 2124.97 4222H2104.09ZM2112.81 4215.28H2123.61C2126.97 4215.28 2129.77 4214.8 2132.01 4213.84C2134.25 4212.83 2135.93 4210.96 2137.05 4208.24C2138.17 4205.52 2138.73 4201.63 2138.73 4196.56C2138.73 4191.49 2138.22 4187.57 2137.21 4184.8C2136.19 4182.03 2134.57 4180.08 2132.33 4178.96C2130.14 4177.84 2127.23 4177.28 2123.61 4177.28H2112.81V4215.28ZM2175.24 4222.8C2168.63 4222.8 2163.51 4221.17 2159.88 4217.92C2156.25 4214.67 2154.44 4209.68 2154.44 4202.96C2154.44 4196.88 2155.99 4192.08 2159.08 4188.56C2162.17 4185.04 2166.87 4183.28 2173.16 4183.28C2178.92 4183.28 2183.24 4184.8 2186.12 4187.84C2189.05 4190.83 2190.52 4194.69 2190.52 4199.44V4206.48H2162.76C2163.19 4210.16 2164.52 4212.69 2166.76 4214.08C2169 4215.47 2172.41 4216.16 2177 4216.16C2178.92 4216.16 2180.89 4215.97 2182.92 4215.6C2184.95 4215.23 2186.71 4214.75 2188.2 4214.16V4220.56C2186.49 4221.31 2184.52 4221.87 2182.28 4222.24C2180.09 4222.61 2177.75 4222.8 2175.24 4222.8ZM2162.76 4200.8H2182.84V4198.16C2182.84 4195.55 2182.12 4193.52 2180.68 4192.08C2179.24 4190.59 2176.81 4189.84 2173.4 4189.84C2169.35 4189.84 2166.55 4190.72 2165 4192.48C2163.51 4194.24 2162.76 4197.01 2162.76 4200.8ZM2208.45 4222.8C2205.36 4222.8 2203.01 4222.05 2201.41 4220.56C2199.81 4219.01 2199.01 4216.48 2199.01 4212.96V4168.08H2207.73V4212.16C2207.73 4213.65 2208 4214.67 2208.53 4215.2C2209.06 4215.73 2209.86 4216 2210.93 4216C2212.21 4216 2213.44 4215.84 2214.61 4215.52V4221.84C2213.6 4222.21 2212.61 4222.45 2211.65 4222.56C2210.74 4222.72 2209.68 4222.8 2208.45 4222.8ZM2220.94 4222V4190.88H2215.42V4184.08H2220.94V4180.16C2220.94 4177.55 2221.55 4175.25 2222.78 4173.28C2224.06 4171.25 2225.82 4169.68 2228.06 4168.56C2230.35 4167.39 2233.02 4166.8 2236.06 4166.8C2237.92 4166.8 2239.68 4166.93 2241.34 4167.2C2242.99 4167.41 2244.35 4167.73 2245.42 4168.16V4174.64C2244.72 4174.32 2243.71 4174.08 2242.38 4173.92C2241.04 4173.76 2239.79 4173.68 2238.62 4173.68C2235.52 4173.68 2233.23 4174.21 2231.74 4175.28C2230.3 4176.35 2229.58 4178.03 2229.58 4180.32V4184.08H2250.94V4222H2242.22V4190.88H2229.58V4222H2220.94ZM2261.04 4222V4184.08H2269.04L2269.44 4188.08C2271.15 4186.75 2273.17 4185.63 2275.52 4184.72C2277.92 4183.76 2280.56 4183.28 2283.44 4183.28C2288.35 4183.28 2291.92 4184.43 2294.16 4186.72C2296.4 4189.01 2297.52 4192.59 2297.52 4197.44V4222H2288.88V4197.84C2288.88 4194.91 2288.27 4192.85 2287.04 4191.68C2285.87 4190.51 2283.63 4189.92 2280.32 4189.92C2278.35 4189.92 2276.4 4190.32 2274.48 4191.12C2272.61 4191.92 2271.04 4192.96 2269.76 4194.24V4222H2261.04ZM2324.67 4222.8C2317.84 4222.8 2312.83 4221.09 2309.63 4217.68C2306.48 4214.27 2304.91 4209.39 2304.91 4203.04C2304.91 4196.69 2306.51 4191.81 2309.71 4188.4C2312.91 4184.99 2317.9 4183.28 2324.67 4183.28C2331.5 4183.28 2336.51 4184.99 2339.71 4188.4C2342.91 4191.81 2344.51 4196.69 2344.51 4203.04C2344.51 4209.39 2342.91 4214.27 2339.71 4217.68C2336.56 4221.09 2331.55 4222.8 2324.67 4222.8ZM2324.67 4215.44C2328.67 4215.44 2331.5 4214.48 2333.15 4212.56C2334.86 4210.59 2335.71 4207.41 2335.71 4203.04C2335.71 4198.67 2334.86 4195.52 2333.15 4193.6C2331.5 4191.68 2328.67 4190.72 2324.67 4190.72C2320.72 4190.72 2317.9 4191.68 2316.19 4193.6C2314.54 4195.52 2313.71 4198.67 2313.71 4203.04C2313.71 4207.41 2314.54 4210.59 2316.19 4212.56C2317.9 4214.48 2320.72 4215.44 2324.67 4215.44Z" fill="#49ACD1"/>
</svg>
