<svg width="8192" height="8192" viewBox="0 0 8192 8192" fill="none" xmlns="http://www.w3.org/2000/svg">
<path d="M4785.74 2570.43C4935.85 2335.06 5023.19 1848.19 5050.52 1615.36C5051.88 1603.79 5051.06 1592.24 5048.48 1580.89C4972.23 1245.14 5037.89 851.383 5101.84 616.227C5118.78 553.937 5200.43 499.938 5263.81 487.652C5385.84 463.994 5565.48 412.366 5671 379.5C5822.18 352.937 6312.47 375.713 6554.99 391.386C6566.34 392.119 6577.76 390.858 6588.74 387.862C6984.95 279.663 7194.99 337.103 7260.39 385.449L7261.55 386.303C7267.16 390.454 7272.73 394.58 7278.68 398.237C7436.27 495.055 7495.05 702.967 7507.78 817.535C7509.67 834.57 7506.51 851.944 7496.49 865.852C7417.11 976.063 7168.23 1059.62 7046.5 1089C6712.8 1216.27 6595.77 1424.11 6574.67 1526.76C6572.46 1537.49 6569.65 1548.06 6564.68 1557.82C6477.73 1728.34 6301.71 1895.01 6222.5 1958.5C6010.1 2090.5 5759 2466.5 5660 2638C5529.92 2862.86 5512.75 3090.67 5520.84 3187.85C5521.49 3195.66 5521.56 3203.46 5520.52 3211.22C5496.6 3389.41 5414 3528.77 5369.61 3584.13C5365.59 3589.13 5361.13 3593.46 5355.94 3597.23C5190.77 3717.16 4703.8 3754.9 4462.78 3759.26C4452.21 3759.45 4441.83 3757.97 4431.86 3754.48C4265.69 3696.43 4139.02 3553.85 4095.5 3488C4053.5 3418.8 4118.67 3340.5 4156.5 3310C4212.48 3276.02 4392.53 3185.59 4453.85 3111.9C4458.12 3106.77 4462.45 3101.8 4467.26 3097.17C4596.47 2973.09 4724.49 2712.59 4776.8 2587.42C4779.31 2581.44 4782.25 2575.9 4785.74 2570.43Z" fill="#49ACD1" fill-opacity="0.2" stroke="#49ACD1" stroke-opacity="0.5" stroke-width="10"/>
<path d="M3261.19 4187.34C3124.15 4147.13 2723.68 4163.06 2535.5 4176.5C2409.85 4202.17 2318.5 4332.3 2284.21 4402.12C2281.31 4408.02 2279.1 4414.21 2278.22 4420.72C2263.73 4528.13 2408.51 4682.5 2485 4748C2620.99 4840.85 2866.36 4948.21 3028.47 5012.83C3078.92 5032.95 3134.8 5007.51 3153.04 4956.35C3188.27 4857.53 3239.85 4709.47 3270.12 4624.21C3271.73 4619.68 3273.64 4615.44 3275.64 4611.08C3300.58 4556.6 3336.74 4398.87 3354.9 4311.59C3356.98 4301.56 3361.88 4291.53 3359.92 4281.48C3354.73 4254.86 3312.45 4218.97 3282.36 4197.73C3275.87 4193.15 3268.81 4189.57 3261.19 4187.34Z" fill="#49ACD1" fill-opacity="0.2" stroke="#49ACD1" stroke-opacity="0.5" stroke-width="10"/>
<path d="M6477.28 1872V1820.48H6486V1865.28H6512.4V1872H6477.28ZM6536.48 1872.8C6529.87 1872.8 6524.75 1871.17 6521.12 1867.92C6517.5 1864.67 6515.68 1859.68 6515.68 1852.96C6515.68 1846.88 6517.23 1842.08 6520.32 1838.56C6523.42 1835.04 6528.11 1833.28 6534.4 1833.28C6540.16 1833.28 6544.48 1834.8 6547.36 1837.84C6550.3 1840.83 6551.76 1844.69 6551.76 1849.44V1856.48H6524C6524.43 1860.16 6525.76 1862.69 6528 1864.08C6530.24 1865.47 6533.66 1866.16 6538.24 1866.16C6540.16 1866.16 6542.14 1865.97 6544.16 1865.6C6546.19 1865.23 6547.95 1864.75 6549.44 1864.16V1870.56C6547.74 1871.31 6545.76 1871.87 6543.52 1872.24C6541.34 1872.61 6538.99 1872.8 6536.48 1872.8ZM6524 1850.8H6544.08V1848.16C6544.08 1845.55 6543.36 1843.52 6541.92 1842.08C6540.48 1840.59 6538.06 1839.84 6534.64 1839.84C6530.59 1839.84 6527.79 1840.72 6526.24 1842.48C6524.75 1844.24 6524 1847.01 6524 1850.8ZM6579.45 1872.8C6572.84 1872.8 6567.72 1871.17 6564.09 1867.92C6560.46 1864.67 6558.65 1859.68 6558.65 1852.96C6558.65 1846.88 6560.2 1842.08 6563.29 1838.56C6566.38 1835.04 6571.08 1833.28 6577.37 1833.28C6583.13 1833.28 6587.45 1834.8 6590.33 1837.84C6593.26 1840.83 6594.73 1844.69 6594.73 1849.44V1856.48H6566.97C6567.4 1860.16 6568.73 1862.69 6570.97 1864.08C6573.21 1865.47 6576.62 1866.16 6581.21 1866.16C6583.13 1866.16 6585.1 1865.97 6587.13 1865.6C6589.16 1865.23 6590.92 1864.75 6592.41 1864.16V1870.56C6590.7 1871.31 6588.73 1871.87 6586.49 1872.24C6584.3 1872.61 6581.96 1872.8 6579.45 1872.8ZM6566.97 1850.8H6587.05V1848.16C6587.05 1845.55 6586.33 1843.52 6584.89 1842.08C6583.45 1840.59 6581.02 1839.84 6577.61 1839.84C6573.56 1839.84 6570.76 1840.72 6569.21 1842.48C6567.72 1844.24 6566.97 1847.01 6566.97 1850.8ZM6615.47 1872.8C6612.86 1872.8 6610.35 1872.61 6607.95 1872.24C6605.6 1871.87 6603.66 1871.41 6602.11 1870.88V1863.52C6603.92 1864.21 6605.92 1864.75 6608.11 1865.12C6610.3 1865.49 6612.38 1865.68 6614.35 1865.68C6617.34 1865.68 6619.47 1865.41 6620.75 1864.88C6622.03 1864.35 6622.67 1863.31 6622.67 1861.76C6622.67 1860.64 6622.27 1859.76 6621.47 1859.12C6620.72 1858.48 6619.58 1857.89 6618.03 1857.36C6616.54 1856.83 6614.62 1856.19 6612.27 1855.44C6610.03 1854.69 6608.08 1853.89 6606.43 1853.04C6604.78 1852.13 6603.5 1850.99 6602.59 1849.6C6601.68 1848.21 6601.23 1846.4 6601.23 1844.16C6601.23 1840.69 6602.48 1838.03 6604.99 1836.16C6607.5 1834.24 6611.52 1833.28 6617.07 1833.28C6619.26 1833.28 6621.34 1833.44 6623.31 1833.76C6625.28 1834.08 6626.96 1834.48 6628.35 1834.96V1842.24C6626.86 1841.65 6625.2 1841.2 6623.39 1840.88C6621.63 1840.56 6619.98 1840.4 6618.43 1840.4C6615.66 1840.4 6613.55 1840.64 6612.11 1841.12C6610.72 1841.6 6610.03 1842.56 6610.03 1844C6610.03 1845.49 6610.75 1846.56 6612.19 1847.2C6613.68 1847.79 6616.06 1848.61 6619.31 1849.68C6622.3 1850.59 6624.67 1851.55 6626.43 1852.56C6628.19 1853.57 6629.44 1854.8 6630.19 1856.24C6630.99 1857.63 6631.39 1859.44 6631.39 1861.68C6631.39 1865.41 6630.03 1868.21 6627.31 1870.08C6624.59 1871.89 6620.64 1872.8 6615.47 1872.8ZM6660.74 1872.8C6657.97 1872.8 6655.57 1872.43 6653.54 1871.68C6651.51 1870.93 6649.65 1869.79 6647.94 1868.24L6647.46 1872H6639.94V1818.08H6648.66V1836.56C6651.97 1834.37 6655.94 1833.28 6660.58 1833.28C6665.97 1833.28 6670.21 1834.83 6673.3 1837.92C6676.45 1840.96 6678.02 1845.89 6678.02 1852.72C6678.02 1859.6 6676.47 1864.67 6673.38 1867.92C6670.29 1871.17 6666.07 1872.8 6660.74 1872.8ZM6658.42 1866.24C6662.37 1866.24 6665.14 1865.12 6666.74 1862.88C6668.39 1860.64 6669.22 1857.25 6669.22 1852.72C6669.22 1848.03 6668.34 1844.72 6666.58 1842.8C6664.82 1840.88 6662.05 1839.92 6658.26 1839.92C6654.31 1839.92 6651.11 1841.01 6648.66 1843.2V1862.24C6651.17 1864.91 6654.42 1866.24 6658.42 1866.24ZM6700.18 1872.8C6695.65 1872.8 6692.15 1871.55 6689.7 1869.04C6687.3 1866.53 6686.1 1862.85 6686.1 1858V1834.08H6694.82V1858C6694.82 1860.83 6695.51 1862.91 6696.9 1864.24C6698.29 1865.57 6700.42 1866.24 6703.3 1866.24C6705.43 1866.24 6707.41 1865.84 6709.22 1865.04C6711.03 1864.24 6712.61 1863.17 6713.94 1861.84V1834.08H6722.58V1872H6714.66L6714.26 1868.08C6712.55 1869.41 6710.53 1870.53 6708.18 1871.44C6705.83 1872.35 6703.17 1872.8 6700.18 1872.8ZM6732.75 1872V1834.08H6740.75L6741.23 1838.48C6743.04 1837.31 6745.2 1836.24 6747.71 1835.28C6750.22 1834.32 6752.7 1833.65 6755.15 1833.28V1839.92C6753.66 1840.19 6752.03 1840.59 6750.27 1841.12C6748.56 1841.6 6746.94 1842.16 6745.39 1842.8C6743.84 1843.39 6742.54 1844 6741.47 1844.64V1872H6732.75ZM6776.86 1886.08C6774.03 1886.08 6771.21 1885.89 6768.38 1885.52C6765.55 1885.2 6763.15 1884.69 6761.18 1884V1877.28C6763.31 1877.97 6765.77 1878.51 6768.54 1878.88C6771.31 1879.25 6773.95 1879.44 6776.46 1879.44C6780.3 1879.44 6783.1 1879.23 6784.86 1878.8C6786.62 1878.37 6787.5 1877.41 6787.5 1875.92C6787.5 1874.8 6787.07 1874 6786.22 1873.52C6785.37 1873.09 6783.74 1872.88 6781.34 1872.88H6771.1C6764.22 1872.88 6760.78 1870.45 6760.78 1865.6C6760.78 1864.05 6761.23 1862.61 6762.14 1861.28C6763.05 1859.95 6764.49 1858.93 6766.46 1858.24C6764.27 1857.17 6762.65 1855.71 6761.58 1853.84C6760.57 1851.97 6760.06 1849.73 6760.06 1847.12C6760.06 1842.27 6761.5 1838.75 6764.38 1836.56C6767.31 1834.37 6771.69 1833.28 6777.5 1833.28C6778.73 1833.28 6780.01 1833.39 6781.34 1833.6C6782.67 1833.76 6783.71 1833.92 6784.46 1834.08H6798.38L6798.14 1839.76H6791.74C6792.75 1840.61 6793.5 1841.68 6793.98 1842.96C6794.46 1844.24 6794.7 1845.63 6794.7 1847.12C6794.7 1851.17 6793.47 1854.37 6791.02 1856.72C6788.57 1859.01 6784.86 1860.16 6779.9 1860.16C6779.05 1860.16 6778.25 1860.13 6777.5 1860.08C6776.81 1859.97 6776.03 1859.87 6775.18 1859.76C6773.58 1859.92 6772.14 1860.35 6770.86 1861.04C6769.58 1861.73 6768.94 1862.67 6768.94 1863.84C6768.94 1864.64 6769.26 1865.23 6769.9 1865.6C6770.54 1865.92 6771.61 1866.08 6773.1 1866.08H6783.74C6787.53 1866.08 6790.43 1866.91 6792.46 1868.56C6794.54 1870.16 6795.58 1872.51 6795.58 1875.6C6795.58 1879.33 6793.95 1882 6790.7 1883.6C6787.5 1885.25 6782.89 1886.08 6776.86 1886.08ZM6777.5 1854.64C6780.97 1854.64 6783.37 1854.05 6784.7 1852.88C6786.09 1851.71 6786.78 1849.71 6786.78 1846.88C6786.78 1844.05 6786.09 1842 6784.7 1840.72C6783.37 1839.44 6780.97 1838.8 6777.5 1838.8C6774.25 1838.8 6771.87 1839.41 6770.38 1840.64C6768.89 1841.87 6768.14 1843.95 6768.14 1846.88C6768.14 1849.6 6768.83 1851.57 6770.22 1852.8C6771.66 1854.03 6774.09 1854.64 6777.5 1854.64Z" fill="white"/>
<path d="M6477.28 1872H6468.35V1880.94H6477.28V1872ZM6477.28 1820.48V1811.54H6468.35V1820.48H6477.28ZM6486 1820.48H6494.94V1811.54H6486V1820.48ZM6486 1865.28H6477.07V1874.22H6486V1865.28ZM6512.4 1865.28H6521.34V1856.34H6512.4V1865.28ZM6512.4 1872V1880.94H6521.34V1872H6512.4ZM6486.22 1872V1820.48H6468.35V1872H6486.22ZM6477.28 1829.42H6486V1811.54H6477.28V1829.42ZM6477.07 1820.48V1865.28H6494.94V1820.48H6477.07ZM6486 1874.22H6512.4V1856.34H6486V1874.22ZM6503.47 1865.28V1872H6521.34V1865.28H6503.47ZM6512.4 1863.06H6477.28V1880.94H6512.4V1863.06ZM6521.12 1867.92L6527.09 1861.27L6527.09 1861.27L6521.12 1867.92ZM6520.32 1838.56L6527.03 1844.46L6527.03 1844.46L6520.32 1838.56ZM6547.36 1837.84L6540.87 1843.99L6540.93 1844.04L6540.99 1844.1L6547.36 1837.84ZM6551.76 1856.48V1865.42H6560.7V1856.48H6551.76ZM6524 1856.48V1847.54H6513.97L6515.13 1857.51L6524 1856.48ZM6528 1864.08L6532.71 1856.48L6532.71 1856.48L6528 1864.08ZM6549.44 1864.16H6558.38V1851.05L6546.17 1855.84L6549.44 1864.16ZM6549.44 1870.56L6553.02 1878.75L6558.38 1876.4V1870.56H6549.44ZM6543.52 1872.24L6542.05 1863.43L6542.04 1863.43L6542.02 1863.43L6543.52 1872.24ZM6524 1850.8H6515.07V1859.74H6524V1850.8ZM6544.08 1850.8V1859.74H6553.02V1850.8H6544.08ZM6541.92 1842.08L6535.49 1848.28L6535.55 1848.34L6535.6 1848.4L6541.92 1842.08ZM6526.24 1842.48L6519.53 1836.58L6519.48 1836.64L6519.43 1836.7L6526.24 1842.48ZM6536.48 1863.86C6531.28 1863.86 6528.57 1862.59 6527.09 1861.27L6515.16 1874.57C6520.93 1879.75 6528.46 1881.74 6536.48 1881.74V1863.86ZM6527.09 1861.27C6525.99 1860.28 6524.62 1858.14 6524.62 1852.96H6506.75C6506.75 1861.22 6509 1869.05 6515.16 1874.57L6527.09 1861.27ZM6524.62 1852.96C6524.62 1848.39 6525.76 1845.91 6527.03 1844.46L6513.61 1832.66C6508.7 1838.25 6506.75 1845.37 6506.75 1852.96H6524.62ZM6527.03 1844.46C6527.9 1843.47 6529.75 1842.22 6534.4 1842.22V1824.34C6526.47 1824.34 6518.93 1826.61 6513.61 1832.66L6527.03 1844.46ZM6534.4 1842.22C6538.66 1842.22 6540.24 1843.32 6540.87 1843.99L6553.85 1831.69C6548.72 1826.28 6541.67 1824.34 6534.4 1824.34V1842.22ZM6540.99 1844.1C6542.05 1845.19 6542.83 1846.69 6542.83 1849.44H6560.7C6560.7 1842.69 6558.54 1836.46 6553.74 1831.58L6540.99 1844.1ZM6542.83 1849.44V1856.48H6560.7V1849.44H6542.83ZM6551.76 1847.54H6524V1865.42H6551.76V1847.54ZM6515.13 1857.51C6515.73 1862.74 6517.9 1868.34 6523.3 1871.68L6532.71 1856.48C6532.85 1856.57 6532.99 1856.69 6533.1 1856.8C6533.2 1856.92 6533.24 1856.99 6533.23 1856.98C6533.2 1856.93 6533 1856.5 6532.88 1855.45L6515.13 1857.51ZM6523.3 1871.68C6527.65 1874.37 6533.07 1875.1 6538.24 1875.1V1857.22C6536.37 1857.22 6534.99 1857.08 6534.02 1856.88C6533.04 1856.68 6532.69 1856.47 6532.71 1856.48L6523.3 1871.68ZM6538.24 1875.1C6540.74 1875.1 6543.26 1874.85 6545.78 1874.39L6542.54 1856.81C6541.01 1857.09 6539.58 1857.22 6538.24 1857.22V1875.1ZM6545.78 1874.39C6548.22 1873.94 6550.56 1873.32 6552.71 1872.48L6546.17 1855.84C6545.34 1856.17 6544.16 1856.51 6542.54 1856.81L6545.78 1874.39ZM6540.51 1864.16V1870.56H6558.38V1864.16H6540.51ZM6545.86 1862.37C6544.96 1862.77 6543.72 1863.15 6542.05 1863.43L6544.99 1881.05C6547.81 1880.59 6550.51 1879.85 6553.02 1878.75L6545.86 1862.37ZM6542.02 1863.43C6540.39 1863.71 6538.55 1863.86 6536.48 1863.86V1881.74C6539.43 1881.74 6542.28 1881.52 6545.03 1881.05L6542.02 1863.43ZM6524 1859.74H6544.08V1841.86H6524V1859.74ZM6553.02 1850.8V1848.16H6535.15V1850.8H6553.02ZM6553.02 1848.16C6553.02 1843.88 6551.8 1839.32 6548.24 1835.76L6535.6 1848.4C6535.48 1848.28 6535.37 1848.14 6535.28 1848C6535.19 1847.85 6535.15 1847.74 6535.12 1847.67C6535.08 1847.54 6535.15 1847.66 6535.15 1848.16H6553.02ZM6548.35 1835.88C6544.42 1831.79 6538.98 1830.9 6534.64 1830.9V1848.78C6535.17 1848.78 6535.58 1848.81 6535.88 1848.84C6536.19 1848.88 6536.35 1848.93 6536.39 1848.94C6536.48 1848.97 6536.03 1848.84 6535.49 1848.28L6548.35 1835.88ZM6534.64 1830.9C6529.8 1830.9 6523.67 1831.87 6519.53 1836.58L6532.95 1848.38C6532.41 1849 6531.95 1849.1 6532.18 1849.03C6532.45 1848.94 6533.2 1848.78 6534.64 1848.78V1830.9ZM6519.43 1836.7C6515.92 1840.83 6515.07 1846.16 6515.07 1850.8H6532.94C6532.94 1849.46 6533.07 1848.64 6533.19 1848.2C6533.3 1847.79 6533.34 1847.92 6533.06 1848.26L6519.43 1836.7ZM6564.09 1867.92L6570.06 1861.27L6570.06 1861.27L6564.09 1867.92ZM6563.29 1838.56L6570 1844.46L6570 1844.46L6563.29 1838.56ZM6590.33 1837.84L6583.84 1843.99L6583.9 1844.04L6583.96 1844.1L6590.33 1837.84ZM6594.73 1856.48V1865.42H6603.67V1856.48H6594.73ZM6566.97 1856.48V1847.54H6556.94L6558.09 1857.51L6566.97 1856.48ZM6570.97 1864.08L6575.67 1856.48L6575.67 1856.48L6570.97 1864.08ZM6592.41 1864.16H6601.35V1851.05L6589.14 1855.84L6592.41 1864.16ZM6592.41 1870.56L6595.99 1878.75L6601.35 1876.4V1870.56H6592.41ZM6586.49 1872.24L6585.02 1863.43L6585 1863.43L6584.99 1863.43L6586.49 1872.24ZM6566.97 1850.8H6558.03V1859.74H6566.97V1850.8ZM6587.05 1850.8V1859.74H6595.99V1850.8H6587.05ZM6584.89 1842.08L6578.46 1848.28L6578.51 1848.34L6578.57 1848.4L6584.89 1842.08ZM6569.21 1842.48L6562.5 1836.58L6562.45 1836.64L6562.4 1836.7L6569.21 1842.48ZM6579.45 1863.86C6574.25 1863.86 6571.54 1862.59 6570.06 1861.27L6558.12 1874.57C6563.9 1879.75 6571.43 1881.74 6579.45 1881.74V1863.86ZM6570.06 1861.27C6568.96 1860.28 6567.59 1858.14 6567.59 1852.96H6549.71C6549.71 1861.22 6551.97 1869.05 6558.12 1874.57L6570.06 1861.27ZM6567.59 1852.96C6567.59 1848.39 6568.73 1845.91 6570 1844.46L6556.58 1832.66C6551.67 1838.25 6549.71 1845.37 6549.71 1852.96H6567.59ZM6570 1844.46C6570.87 1843.47 6572.72 1842.22 6577.37 1842.22V1824.34C6569.43 1824.34 6561.9 1826.61 6556.58 1832.66L6570 1844.46ZM6577.37 1842.22C6581.63 1842.22 6583.21 1843.32 6583.84 1843.99L6596.82 1831.69C6591.69 1826.28 6584.64 1824.34 6577.37 1824.34V1842.22ZM6583.96 1844.1C6585.02 1845.19 6585.79 1846.69 6585.79 1849.44H6603.67C6603.67 1842.69 6601.51 1836.46 6596.71 1831.58L6583.96 1844.1ZM6585.79 1849.44V1856.48H6603.67V1849.44H6585.79ZM6594.73 1847.54H6566.97V1865.42H6594.73V1847.54ZM6558.09 1857.51C6558.7 1862.74 6560.87 1868.34 6566.27 1871.68L6575.67 1856.48C6575.82 1856.57 6575.96 1856.69 6576.07 1856.8C6576.17 1856.92 6576.21 1856.99 6576.2 1856.98C6576.17 1856.93 6575.97 1856.5 6575.85 1855.45L6558.09 1857.51ZM6566.27 1871.68C6570.62 1874.37 6576.04 1875.1 6581.21 1875.1V1857.22C6579.34 1857.22 6577.96 1857.08 6576.99 1856.88C6576 1856.68 6575.66 1856.47 6575.67 1856.48L6566.27 1871.68ZM6581.21 1875.1C6583.71 1875.1 6586.23 1874.85 6588.75 1874.39L6585.51 1856.81C6583.98 1857.09 6582.55 1857.22 6581.21 1857.22V1875.1ZM6588.75 1874.39C6591.19 1873.94 6593.53 1873.32 6595.68 1872.48L6589.14 1855.84C6588.31 1856.17 6587.13 1856.51 6585.51 1856.81L6588.75 1874.39ZM6583.47 1864.16V1870.56H6601.35V1864.16H6583.47ZM6588.83 1862.37C6587.93 1862.77 6586.69 1863.15 6585.02 1863.43L6587.96 1881.05C6590.78 1880.59 6593.48 1879.85 6595.99 1878.75L6588.83 1862.37ZM6584.99 1863.43C6583.36 1863.71 6581.52 1863.86 6579.45 1863.86V1881.74C6582.4 1881.74 6585.25 1881.52 6587.99 1881.05L6584.99 1863.43ZM6566.97 1859.74H6587.05V1841.86H6566.97V1859.74ZM6595.99 1850.8V1848.16H6578.11V1850.8H6595.99ZM6595.99 1848.16C6595.99 1843.88 6594.76 1839.32 6591.21 1835.76L6578.57 1848.4C6578.45 1848.28 6578.34 1848.14 6578.25 1848C6578.16 1847.85 6578.11 1847.74 6578.09 1847.67C6578.04 1847.54 6578.11 1847.66 6578.11 1848.16H6595.99ZM6591.32 1835.88C6587.39 1831.79 6581.95 1830.9 6577.61 1830.9V1848.78C6578.14 1848.78 6578.55 1848.81 6578.85 1848.84C6579.15 1848.88 6579.31 1848.93 6579.36 1848.94C6579.45 1848.97 6579 1848.84 6578.46 1848.28L6591.32 1835.88ZM6577.61 1830.9C6572.77 1830.9 6566.64 1831.87 6562.5 1836.58L6575.92 1848.38C6575.38 1849 6574.92 1849.1 6575.15 1849.03C6575.42 1848.94 6576.17 1848.78 6577.61 1848.78V1830.9ZM6562.4 1836.7C6558.89 1840.83 6558.03 1846.16 6558.03 1850.8H6575.91C6575.91 1849.46 6576.04 1848.64 6576.16 1848.2C6576.27 1847.79 6576.31 1847.92 6576.02 1848.26L6562.4 1836.7ZM6607.95 1872.24L6606.55 1881.07L6606.56 1881.07L6606.58 1881.07L6607.95 1872.24ZM6602.11 1870.88H6593.17V1877.25L6599.2 1879.33L6602.11 1870.88ZM6602.11 1863.52L6605.3 1855.17L6593.17 1850.54V1863.52H6602.11ZM6608.11 1865.12L6609.61 1856.31L6609.61 1856.31L6608.11 1865.12ZM6620.75 1864.88L6617.31 1856.63L6617.31 1856.63L6620.75 1864.88ZM6621.47 1859.12L6615.65 1865.9L6615.77 1866L6615.89 1866.1L6621.47 1859.12ZM6618.03 1857.36L6615.02 1865.78L6615.07 1865.79L6615.12 1865.81L6618.03 1857.36ZM6612.27 1855.44L6609.44 1863.92L6609.5 1863.94L6609.56 1863.96L6612.27 1855.44ZM6606.43 1853.04L6602.13 1860.88L6602.23 1860.93L6602.33 1860.98L6606.43 1853.04ZM6602.59 1849.6L6595.11 1854.49L6595.11 1854.49L6602.59 1849.6ZM6604.99 1836.16L6610.33 1843.33L6610.37 1843.29L6610.42 1843.25L6604.99 1836.16ZM6623.31 1833.76L6621.88 1842.58L6621.88 1842.58L6623.31 1833.76ZM6628.35 1834.96H6637.29V1828.6L6631.27 1826.52L6628.35 1834.96ZM6628.35 1842.24L6625.08 1850.56L6637.29 1855.35V1842.24H6628.35ZM6623.39 1840.88L6621.79 1849.67L6621.81 1849.68L6621.84 1849.68L6623.39 1840.88ZM6612.11 1841.12L6609.28 1832.64L6609.23 1832.66L6609.19 1832.68L6612.11 1841.12ZM6612.19 1847.2L6608.56 1855.37L6608.74 1855.45L6608.92 1855.52L6612.19 1847.2ZM6619.31 1849.68L6616.52 1858.17L6616.62 1858.2L6616.71 1858.23L6619.31 1849.68ZM6626.43 1852.56L6621.97 1860.3L6621.97 1860.3L6626.43 1852.56ZM6630.19 1856.24L6622.26 1860.35L6622.35 1860.53L6622.45 1860.71L6630.19 1856.24ZM6627.31 1870.08L6632.27 1877.52L6632.32 1877.48L6632.37 1877.45L6627.31 1870.08ZM6615.47 1863.86C6613.28 1863.86 6611.24 1863.71 6609.32 1863.41L6606.58 1881.07C6609.46 1881.52 6612.43 1881.74 6615.47 1881.74V1863.86ZM6609.35 1863.41C6607.31 1863.09 6605.91 1862.74 6605.02 1862.43L6599.2 1879.33C6601.4 1880.09 6603.89 1880.64 6606.55 1881.07L6609.35 1863.41ZM6611.05 1870.88V1863.52H6593.17V1870.88H6611.05ZM6598.92 1871.87C6601.35 1872.8 6603.92 1873.47 6606.61 1873.93L6609.61 1856.31C6607.92 1856.02 6606.5 1855.63 6605.3 1855.17L6598.92 1871.87ZM6606.61 1873.93C6609.23 1874.38 6611.81 1874.62 6614.35 1874.62V1856.74C6612.94 1856.74 6611.36 1856.61 6609.61 1856.31L6606.61 1873.93ZM6614.35 1874.62C6617.47 1874.62 6621.15 1874.39 6624.19 1873.13L6617.31 1856.63C6617.71 1856.47 6617.73 1856.53 6617.08 1856.61C6616.49 1856.69 6615.6 1856.74 6614.35 1856.74V1874.62ZM6624.19 1873.13C6626.31 1872.24 6628.37 1870.71 6629.8 1868.38C6631.19 1866.12 6631.61 1863.75 6631.61 1861.76H6613.73C6613.73 1861.32 6613.83 1860.24 6614.58 1859.02C6615.37 1857.73 6616.47 1856.98 6617.31 1856.63L6624.19 1873.13ZM6631.61 1861.76C6631.61 1858.21 6630.19 1854.65 6627.05 1852.14L6615.89 1866.1C6615.26 1865.59 6614.65 1864.87 6614.23 1863.96C6613.83 1863.07 6613.73 1862.27 6613.73 1861.76H6631.61ZM6627.28 1852.34C6625.3 1850.64 6622.94 1849.6 6620.94 1848.91L6615.12 1865.81C6615.59 1865.97 6615.86 1866.1 6615.98 1866.16C6616.03 1866.18 6616.03 1866.18 6615.98 1866.15C6615.92 1866.12 6615.81 1866.04 6615.65 1865.9L6627.28 1852.34ZM6621.03 1848.94C6619.41 1848.36 6617.38 1847.69 6614.98 1846.92L6609.56 1863.96C6611.85 1864.69 6613.67 1865.29 6615.02 1865.78L6621.03 1848.94ZM6615.09 1846.96C6613.18 1846.32 6611.68 1845.69 6610.53 1845.1L6602.33 1860.98C6604.49 1862.09 6606.88 1863.06 6609.44 1863.92L6615.09 1846.96ZM6610.73 1845.2C6610.44 1845.05 6610.28 1844.92 6610.19 1844.84C6610.11 1844.77 6610.08 1844.73 6610.07 1844.71L6595.11 1854.49C6596.92 1857.27 6599.37 1859.36 6602.13 1860.88L6610.73 1845.2ZM6610.07 1844.71C6610.23 1844.95 6610.25 1845.09 6610.24 1845.03C6610.22 1844.96 6610.17 1844.69 6610.17 1844.16H6592.29C6592.29 1847.54 6592.97 1851.22 6595.11 1854.49L6610.07 1844.71ZM6610.17 1844.16C6610.17 1843.51 6610.28 1843.31 6610.26 1843.36C6610.25 1843.38 6610.23 1843.4 6610.22 1843.41C6610.21 1843.43 6610.23 1843.4 6610.33 1843.33L6599.65 1828.99C6594.61 1832.75 6592.29 1838.23 6592.29 1844.16H6610.17ZM6610.42 1843.25C6610.42 1843.25 6610.81 1842.97 6611.96 1842.69C6613.11 1842.42 6614.77 1842.22 6617.07 1842.22V1824.34C6610.88 1824.34 6604.42 1825.34 6599.56 1829.07L6610.42 1843.25ZM6617.07 1842.22C6618.82 1842.22 6620.42 1842.34 6621.88 1842.58L6624.74 1824.94C6622.25 1824.54 6619.69 1824.34 6617.07 1824.34V1842.22ZM6621.88 1842.58C6623.51 1842.85 6624.66 1843.14 6625.43 1843.4L6631.27 1826.52C6629.26 1825.82 6627.05 1825.31 6624.74 1824.94L6621.88 1842.58ZM6619.41 1834.96V1842.24H6637.29V1834.96H6619.41ZM6631.62 1833.92C6629.5 1833.09 6627.26 1832.49 6624.94 1832.08L6621.84 1849.68C6623.15 1849.91 6624.22 1850.22 6625.08 1850.56L6631.62 1833.92ZM6624.99 1832.09C6622.78 1831.69 6620.59 1831.46 6618.43 1831.46V1849.34C6619.36 1849.34 6620.48 1849.43 6621.79 1849.67L6624.99 1832.09ZM6618.43 1831.46C6615.35 1831.46 6612.1 1831.7 6609.28 1832.64L6614.93 1849.6C6614.89 1849.61 6615.12 1849.53 6615.78 1849.46C6616.41 1849.39 6617.28 1849.34 6618.43 1849.34V1831.46ZM6609.19 1832.68C6607.18 1833.37 6604.96 1834.67 6603.3 1836.97C6601.64 1839.28 6601.09 1841.82 6601.09 1844H6618.97C6618.97 1844.74 6618.77 1846.08 6617.79 1847.43C6616.83 1848.77 6615.66 1849.35 6615.03 1849.56L6609.19 1832.68ZM6601.09 1844C6601.09 1846.23 6601.65 1848.68 6603.16 1850.92C6604.65 1853.12 6606.65 1854.52 6608.56 1855.37L6615.82 1839.03C6616.29 1839.24 6617.21 1839.78 6617.98 1840.92C6618.77 1842.09 6618.97 1843.26 6618.97 1844H6601.09ZM6608.92 1855.52C6610.67 1856.2 6613.25 1857.1 6616.52 1858.17L6622.09 1841.19C6618.86 1840.13 6616.7 1839.37 6615.46 1838.88L6608.92 1855.52ZM6616.71 1858.23C6619.36 1859.03 6621.02 1859.76 6621.97 1860.3L6630.89 1844.82C6628.31 1843.33 6625.23 1842.14 6621.9 1841.13L6616.71 1858.23ZM6621.97 1860.3C6622.3 1860.49 6622.43 1860.61 6622.44 1860.63C6622.44 1860.63 6622.42 1860.61 6622.39 1860.56C6622.35 1860.51 6622.3 1860.44 6622.26 1860.35L6638.12 1852.13C6636.41 1848.83 6633.76 1846.47 6630.89 1844.82L6621.97 1860.3ZM6622.45 1860.71C6622.33 1860.49 6622.33 1860.41 6622.36 1860.56C6622.4 1860.73 6622.45 1861.08 6622.45 1861.68H6640.33C6640.33 1858.47 6639.76 1854.95 6637.93 1851.77L6622.45 1860.71ZM6622.45 1861.68C6622.45 1862.46 6622.31 1862.71 6622.33 1862.68C6622.34 1862.66 6622.35 1862.64 6622.37 1862.62C6622.38 1862.61 6622.36 1862.64 6622.25 1862.71L6632.37 1877.45C6637.86 1873.67 6640.33 1867.91 6640.33 1861.68H6622.45ZM6622.35 1862.64C6621.73 1863.06 6619.82 1863.86 6615.47 1863.86V1881.74C6621.46 1881.74 6627.45 1880.72 6632.27 1877.52L6622.35 1862.64ZM6653.54 1871.68L6650.45 1880.07L6650.45 1880.07L6653.54 1871.68ZM6647.94 1868.24L6653.94 1861.62L6641.24 1850.11L6639.07 1867.11L6647.94 1868.24ZM6647.46 1872V1880.94H6655.33L6656.32 1873.13L6647.46 1872ZM6639.94 1872H6631V1880.94H6639.94V1872ZM6639.94 1818.08V1809.14H6631V1818.08H6639.94ZM6648.66 1818.08H6657.59V1809.14H6648.66V1818.08ZM6648.66 1836.56H6639.72V1853.18L6653.59 1844.01L6648.66 1836.56ZM6673.3 1837.92L6666.98 1844.24L6667.03 1844.29L6667.09 1844.35L6673.3 1837.92ZM6673.38 1867.92L6679.85 1874.08L6679.85 1874.08L6673.38 1867.92ZM6666.74 1862.88L6659.55 1857.57L6659.51 1857.63L6659.47 1857.69L6666.74 1862.88ZM6666.58 1842.8L6673.17 1836.76L6673.17 1836.76L6666.58 1842.8ZM6648.66 1843.2L6642.71 1836.53L6639.72 1839.19V1843.2H6648.66ZM6648.66 1862.24H6639.72V1865.78L6642.15 1868.36L6648.66 1862.24ZM6660.74 1863.86C6658.73 1863.86 6657.43 1863.59 6656.63 1863.29L6650.45 1880.07C6653.7 1881.26 6657.2 1881.74 6660.74 1881.74V1863.86ZM6656.63 1863.29C6655.75 1862.97 6654.85 1862.45 6653.94 1861.62L6641.94 1874.86C6644.44 1877.13 6647.28 1878.9 6650.45 1880.07L6656.63 1863.29ZM6639.07 1867.11L6638.59 1870.87L6656.32 1873.13L6656.8 1869.37L6639.07 1867.11ZM6647.46 1863.06H6639.94V1880.94H6647.46V1863.06ZM6648.87 1872V1818.08H6631V1872H6648.87ZM6639.94 1827.02H6648.66V1809.14H6639.94V1827.02ZM6639.72 1818.08V1836.56H6657.59V1818.08H6639.72ZM6653.59 1844.01C6655.2 1842.95 6657.39 1842.22 6660.58 1842.22V1824.34C6654.49 1824.34 6648.73 1825.8 6643.73 1829.11L6653.59 1844.01ZM6660.58 1842.22C6664.18 1842.22 6665.93 1843.19 6666.98 1844.24L6679.62 1831.6C6674.48 1826.46 6667.75 1824.34 6660.58 1824.34V1842.22ZM6667.09 1844.35C6667.73 1844.96 6669.08 1846.99 6669.08 1852.72H6686.95C6686.95 1844.8 6685.16 1836.96 6679.51 1831.49L6667.09 1844.35ZM6669.08 1852.72C6669.08 1858.49 6667.75 1860.87 6666.9 1861.76L6679.85 1874.08C6685.19 1868.47 6686.95 1860.71 6686.95 1852.72H6669.08ZM6666.9 1861.76C6665.81 1862.91 6664.12 1863.86 6660.74 1863.86V1881.74C6668.02 1881.74 6674.76 1879.44 6679.85 1874.08L6666.9 1861.76ZM6658.42 1875.18C6663.92 1875.18 6670.08 1873.57 6674.01 1868.07L6659.47 1857.69C6659.58 1857.53 6659.72 1857.38 6659.87 1857.26C6660.02 1857.15 6660.12 1857.11 6660.11 1857.11C6660.07 1857.13 6659.59 1857.3 6658.42 1857.3V1875.18ZM6673.93 1868.19C6677.23 1863.71 6678.15 1858.06 6678.15 1852.72H6660.28C6660.28 1854.47 6660.12 1855.71 6659.92 1856.54C6659.72 1857.36 6659.52 1857.61 6659.55 1857.57L6673.93 1868.19ZM6678.15 1852.72C6678.15 1847.41 6677.26 1841.22 6673.17 1836.76L6659.99 1848.84C6659.64 1848.45 6659.74 1848.34 6659.92 1849.02C6660.1 1849.7 6660.28 1850.88 6660.28 1852.72H6678.15ZM6673.17 1836.76C6669.07 1832.29 6663.4 1830.98 6658.26 1830.98V1848.86C6659.43 1848.86 6660.04 1849.01 6660.26 1849.08C6660.42 1849.14 6660.24 1849.1 6659.99 1848.84L6673.17 1836.76ZM6658.26 1830.98C6652.58 1830.98 6647.12 1832.6 6642.71 1836.53L6654.6 1849.87C6655.1 1849.42 6656.04 1848.86 6658.26 1848.86V1830.98ZM6639.72 1843.2V1862.24H6657.59V1843.2H6639.72ZM6642.15 1868.36C6646.51 1873 6652.21 1875.18 6658.42 1875.18V1857.3C6656.63 1857.3 6655.82 1856.81 6655.17 1856.12L6642.15 1868.36ZM6689.7 1869.04L6683.25 1875.22L6683.28 1875.26L6683.31 1875.29L6689.7 1869.04ZM6686.1 1834.08V1825.14H6677.16V1834.08H6686.1ZM6694.82 1834.08H6703.76V1825.14H6694.82V1834.08ZM6696.9 1864.24L6690.71 1870.68L6690.71 1870.68L6696.9 1864.24ZM6709.22 1865.04L6705.61 1856.86L6705.61 1856.86L6709.22 1865.04ZM6713.94 1861.84L6720.26 1868.16L6722.88 1865.54V1861.84H6713.94ZM6713.94 1834.08V1825.14H6705V1834.08H6713.94ZM6722.58 1834.08H6731.52V1825.14H6722.58V1834.08ZM6722.58 1872V1880.94H6731.52V1872H6722.58ZM6714.66 1872L6705.77 1872.91L6706.59 1880.94H6714.66V1872ZM6714.26 1868.08L6723.15 1867.17L6721.51 1851.08L6708.76 1861.04L6714.26 1868.08ZM6708.18 1871.44L6704.96 1863.1L6708.18 1871.44ZM6700.18 1863.86C6697.31 1863.86 6696.41 1863.12 6696.09 1862.79L6683.31 1875.29C6687.9 1879.98 6693.98 1881.74 6700.18 1881.74V1863.86ZM6696.16 1862.86C6695.89 1862.58 6695.04 1861.48 6695.04 1858H6677.16C6677.16 1864.23 6678.71 1870.48 6683.25 1875.22L6696.16 1862.86ZM6695.04 1858V1834.08H6677.16V1858H6695.04ZM6686.1 1843.02H6694.82V1825.14H6686.1V1843.02ZM6685.88 1834.08V1858H6703.76V1834.08H6685.88ZM6685.88 1858C6685.88 1862.11 6686.89 1867.01 6690.71 1870.68L6703.09 1857.8C6703.32 1858.02 6703.5 1858.25 6703.62 1858.45C6703.74 1858.65 6703.8 1858.8 6703.82 1858.85C6703.84 1858.91 6703.82 1858.88 6703.8 1858.73C6703.78 1858.58 6703.76 1858.35 6703.76 1858H6685.88ZM6690.71 1870.68C6694.43 1874.26 6699.24 1875.18 6703.3 1875.18V1857.3C6702.92 1857.3 6702.65 1857.28 6702.46 1857.26C6702.27 1857.23 6702.2 1857.21 6702.21 1857.21C6702.22 1857.21 6702.33 1857.25 6702.5 1857.35C6702.67 1857.44 6702.88 1857.59 6703.09 1857.8L6690.71 1870.68ZM6703.3 1875.18C6706.58 1875.18 6709.79 1874.55 6712.83 1873.22L6705.61 1856.86C6705.02 1857.13 6704.29 1857.3 6703.3 1857.3V1875.18ZM6712.83 1873.22C6715.6 1871.99 6718.11 1870.31 6720.26 1868.16L6707.62 1855.52C6707.11 1856.03 6706.47 1856.49 6705.61 1856.86L6712.83 1873.22ZM6722.88 1861.84V1834.08H6705V1861.84H6722.88ZM6713.94 1843.02H6722.58V1825.14H6713.94V1843.02ZM6713.64 1834.08V1872H6731.52V1834.08H6713.64ZM6722.58 1863.06H6714.66V1880.94H6722.58V1863.06ZM6723.55 1871.09L6723.15 1867.17L6705.37 1868.99L6705.77 1872.91L6723.55 1871.09ZM6708.76 1861.04C6707.85 1861.75 6706.62 1862.46 6704.96 1863.1L6711.4 1879.78C6714.44 1878.6 6717.26 1877.08 6719.76 1875.12L6708.76 1861.04ZM6704.96 1863.1C6703.81 1863.55 6702.27 1863.86 6700.18 1863.86V1881.74C6704.07 1881.74 6707.85 1881.15 6711.4 1879.78L6704.96 1863.1ZM6732.75 1872H6723.81V1880.94H6732.75V1872ZM6732.75 1834.08V1825.14H6723.81V1834.08H6732.75ZM6740.75 1834.08L6749.63 1833.11L6748.77 1825.14H6740.75V1834.08ZM6741.23 1838.48L6732.35 1839.45L6733.92 1853.85L6746.09 1845.98L6741.23 1838.48ZM6747.71 1835.28L6744.51 1826.93L6744.51 1826.93L6747.71 1835.28ZM6755.15 1833.28H6764.09V1822.88L6753.81 1824.45L6755.15 1833.28ZM6755.15 1839.92L6756.72 1848.72L6764.09 1847.4V1839.92H6755.15ZM6750.27 1841.12L6752.69 1849.72L6752.78 1849.7L6752.86 1849.67L6750.27 1841.12ZM6745.39 1842.8L6748.56 1851.16L6748.68 1851.11L6748.81 1851.06L6745.39 1842.8ZM6741.47 1844.64L6736.87 1836.98L6732.53 1839.58V1844.64H6741.47ZM6741.47 1872V1880.94H6750.41V1872H6741.47ZM6741.69 1872V1834.08H6723.81V1872H6741.69ZM6732.75 1843.02H6740.75V1825.14H6732.75V1843.02ZM6731.87 1835.05L6732.35 1839.45L6750.11 1837.51L6749.63 1833.11L6731.87 1835.05ZM6746.09 1845.98C6747.27 1845.22 6748.85 1844.41 6750.91 1843.63L6744.51 1826.93C6741.56 1828.07 6738.82 1829.4 6736.38 1830.98L6746.09 1845.98ZM6750.91 1843.63C6752.86 1842.88 6754.72 1842.38 6756.5 1842.11L6753.81 1824.45C6750.67 1824.92 6747.57 1825.76 6744.51 1826.93L6750.91 1843.63ZM6746.21 1833.28V1839.92H6764.09V1833.28H6746.21ZM6753.58 1831.12C6751.68 1831.46 6749.71 1831.95 6747.68 1832.57L6752.86 1849.67C6754.35 1849.22 6755.64 1848.91 6756.72 1848.72L6753.58 1831.12ZM6747.85 1832.52C6745.83 1833.09 6743.86 1833.76 6741.97 1834.54L6748.81 1851.06C6750.01 1850.56 6751.3 1850.11 6752.69 1849.72L6747.85 1832.52ZM6742.22 1834.44C6740.33 1835.16 6738.51 1835.99 6736.87 1836.98L6746.07 1852.3C6746.56 1852.01 6747.36 1851.61 6748.56 1851.16L6742.22 1834.44ZM6732.53 1844.64V1872H6750.41V1844.64H6732.53ZM6741.47 1863.06H6732.75V1880.94H6741.47V1863.06ZM6768.38 1885.52L6769.55 1876.66L6769.47 1876.65L6769.39 1876.64L6768.38 1885.52ZM6761.18 1884H6752.24V1890.33L6758.22 1892.43L6761.18 1884ZM6761.18 1877.28L6763.94 1868.78L6752.24 1864.98V1877.28H6761.18ZM6784.86 1878.8L6782.76 1870.12L6782.76 1870.12L6784.86 1878.8ZM6786.22 1873.52L6790.6 1865.73L6790.41 1865.62L6790.22 1865.53L6786.22 1873.52ZM6762.14 1861.28L6769.53 1866.3L6769.53 1866.3L6762.14 1861.28ZM6766.46 1858.24L6769.42 1866.67L6789.6 1859.58L6770.38 1850.21L6766.46 1858.24ZM6761.58 1853.84L6753.73 1858.1L6753.77 1858.19L6753.82 1858.27L6761.58 1853.84ZM6764.38 1836.56L6759.04 1829.4L6759.01 1829.42L6758.98 1829.44L6764.38 1836.56ZM6781.34 1833.6L6779.93 1842.42L6780.1 1842.45L6780.28 1842.47L6781.34 1833.6ZM6784.46 1834.08L6782.59 1842.82L6783.51 1843.02H6784.46V1834.08ZM6798.38 1834.08L6807.31 1834.46L6807.7 1825.14H6798.38V1834.08ZM6798.14 1839.76V1848.7H6806.71L6807.07 1840.14L6798.14 1839.76ZM6791.74 1839.76V1830.82H6767.26L6785.98 1846.6L6791.74 1839.76ZM6793.98 1842.96L6785.61 1846.1L6785.61 1846.1L6793.98 1842.96ZM6791.02 1856.72L6797.12 1863.25L6797.16 1863.21L6797.2 1863.18L6791.02 1856.72ZM6777.5 1860.08L6776.14 1868.91L6776.5 1868.97L6776.86 1868.99L6777.5 1860.08ZM6775.18 1859.76L6776.29 1850.89L6775.29 1850.77L6774.29 1850.87L6775.18 1859.76ZM6770.86 1861.04L6766.6 1853.18L6766.6 1853.18L6770.86 1861.04ZM6769.9 1865.6L6765.4 1873.32L6765.65 1873.46L6765.9 1873.59L6769.9 1865.6ZM6792.46 1868.56L6786.81 1875.48L6786.91 1875.57L6787.01 1875.64L6792.46 1868.56ZM6790.7 1883.6L6786.76 1875.58L6786.68 1875.62L6786.6 1875.66L6790.7 1883.6ZM6784.7 1852.88L6778.93 1846.06L6778.86 1846.11L6778.8 1846.17L6784.7 1852.88ZM6784.7 1840.72L6778.51 1847.17L6778.58 1847.23L6778.64 1847.29L6784.7 1840.72ZM6770.22 1852.8L6764.3 1859.49L6764.36 1859.55L6764.43 1859.6L6770.22 1852.8ZM6776.86 1877.14C6774.43 1877.14 6771.99 1876.98 6769.55 1876.66L6767.21 1894.38C6770.42 1894.8 6773.64 1895.02 6776.86 1895.02V1877.14ZM6769.39 1876.64C6767.01 1876.37 6765.3 1875.98 6764.14 1875.57L6758.22 1892.43C6761.01 1893.41 6764.1 1894.03 6767.38 1894.4L6769.39 1876.64ZM6770.12 1884V1877.28H6752.24V1884H6770.12ZM6758.42 1885.78C6761.17 1886.67 6764.17 1887.31 6767.35 1887.74L6769.73 1870.02C6767.37 1869.71 6765.46 1869.27 6763.94 1868.78L6758.42 1885.78ZM6767.35 1887.74C6770.47 1888.16 6773.51 1888.38 6776.46 1888.38V1870.5C6774.4 1870.5 6772.16 1870.35 6769.73 1870.02L6767.35 1887.74ZM6776.46 1888.38C6780.4 1888.38 6784.11 1888.18 6786.97 1887.48L6782.76 1870.12C6782.1 1870.28 6780.2 1870.5 6776.46 1870.5V1888.38ZM6786.97 1887.48C6788.92 1887.01 6791.41 1886 6793.43 1883.8C6795.6 1881.43 6796.44 1878.55 6796.44 1875.92H6778.56C6778.56 1874.78 6778.96 1873.13 6780.25 1871.72C6781.4 1870.48 6782.56 1870.16 6782.76 1870.12L6786.97 1887.48ZM6796.44 1875.92C6796.44 1872.13 6794.73 1868.05 6790.6 1865.73L6781.84 1881.31C6780.9 1880.78 6779.95 1879.91 6779.3 1878.69C6778.68 1877.52 6778.56 1876.49 6778.56 1875.92H6796.44ZM6790.22 1865.53C6788.48 1864.66 6786.72 1864.34 6785.52 1864.18C6784.19 1864.01 6782.77 1863.94 6781.34 1863.94V1881.82C6781.81 1881.82 6782.2 1881.83 6782.52 1881.84C6782.85 1881.86 6783.07 1881.88 6783.2 1881.9C6783.34 1881.92 6783.33 1881.92 6783.2 1881.89C6783.1 1881.87 6782.73 1881.76 6782.22 1881.51L6790.22 1865.53ZM6781.34 1863.94H6771.1V1881.82H6781.34V1863.94ZM6771.1 1863.94C6769.88 1863.94 6769.09 1863.83 6768.63 1863.73C6768.18 1863.62 6768.23 1863.56 6768.51 1863.76C6768.85 1864 6769.25 1864.42 6769.51 1864.97C6769.74 1865.47 6769.72 1865.76 6769.72 1865.6H6751.84C6751.84 1870.42 6753.73 1875.2 6758.21 1878.36C6762.12 1881.12 6766.88 1881.82 6771.1 1881.82V1863.94ZM6769.72 1865.6C6769.72 1865.71 6769.7 1865.87 6769.64 1866.04C6769.62 1866.12 6769.59 1866.19 6769.57 1866.23C6769.55 1866.28 6769.53 1866.31 6769.53 1866.3L6754.75 1856.26C6752.88 1859 6751.84 1862.18 6751.84 1865.6H6769.72ZM6769.53 1866.3C6769.43 1866.45 6769.33 1866.57 6769.24 1866.66C6769.15 1866.75 6769.08 1866.8 6769.04 1866.83C6768.98 1866.87 6769.07 1866.79 6769.42 1866.67L6763.5 1849.81C6760.26 1850.95 6757.01 1852.93 6754.75 1856.26L6769.53 1866.3ZM6770.38 1850.21C6769.58 1849.82 6769.4 1849.52 6769.34 1849.41L6753.82 1858.27C6755.89 1861.9 6758.96 1864.53 6762.54 1866.27L6770.38 1850.21ZM6769.43 1849.58C6769.28 1849.29 6769 1848.58 6769 1847.12H6751.12C6751.12 1850.88 6751.86 1854.66 6753.73 1858.1L6769.43 1849.58ZM6769 1847.12C6769 1845.55 6769.23 1844.66 6769.41 1844.22C6769.56 1843.86 6769.68 1843.75 6769.78 1843.68L6758.98 1829.44C6753.16 1833.86 6751.12 1840.5 6751.12 1847.12H6769ZM6769.72 1843.72C6770.44 1843.19 6772.56 1842.22 6777.5 1842.22V1824.34C6770.81 1824.34 6764.19 1825.56 6759.04 1829.4L6769.72 1843.72ZM6777.5 1842.22C6778.21 1842.22 6779.02 1842.28 6779.93 1842.42L6782.75 1824.78C6781 1824.5 6779.24 1824.34 6777.5 1824.34V1842.22ZM6780.28 1842.47C6781.51 1842.62 6782.24 1842.74 6782.59 1842.82L6786.33 1825.34C6785.19 1825.1 6783.84 1824.9 6782.41 1824.73L6780.28 1842.47ZM6784.46 1843.02H6798.38V1825.14H6784.46V1843.02ZM6789.45 1833.7L6789.21 1839.38L6807.07 1840.14L6807.31 1834.46L6789.45 1833.7ZM6798.14 1830.82H6791.74V1848.7H6798.14V1830.82ZM6785.98 1846.6C6785.91 1846.53 6785.82 1846.44 6785.74 1846.32C6785.66 1846.21 6785.62 1846.13 6785.61 1846.1L6802.35 1839.82C6801.35 1837.15 6799.72 1834.8 6797.5 1832.92L6785.98 1846.6ZM6785.61 1846.1C6785.68 1846.29 6785.76 1846.6 6785.76 1847.12H6803.64C6803.64 1844.65 6803.24 1842.19 6802.35 1839.82L6785.61 1846.1ZM6785.76 1847.12C6785.76 1849.25 6785.2 1849.92 6784.84 1850.26L6797.2 1863.18C6801.75 1858.82 6803.64 1853.1 6803.64 1847.12H6785.76ZM6784.92 1850.19C6784.76 1850.34 6783.66 1851.22 6779.9 1851.22V1869.1C6786.06 1869.1 6792.37 1867.69 6797.12 1863.25L6784.92 1850.19ZM6779.9 1851.22C6779.23 1851.22 6778.65 1851.2 6778.14 1851.17L6776.86 1868.99C6777.85 1869.06 6778.86 1869.1 6779.9 1869.1V1851.22ZM6778.86 1851.25C6778.07 1851.13 6777.21 1851.01 6776.29 1850.89L6774.07 1868.63C6774.86 1868.73 6775.55 1868.82 6776.14 1868.91L6778.86 1851.25ZM6774.29 1850.87C6771.64 1851.13 6769.03 1851.87 6766.6 1853.18L6775.12 1868.9C6775.25 1868.83 6775.53 1868.71 6776.07 1868.65L6774.29 1850.87ZM6766.6 1853.18C6763.26 1854.99 6760 1858.55 6760 1863.84H6777.88C6777.88 1864.99 6777.53 1866.24 6776.79 1867.31C6776.11 1868.3 6775.38 1868.76 6775.12 1868.9L6766.6 1853.18ZM6760 1863.84C6760 1867.51 6761.76 1871.19 6765.4 1873.32L6774.4 1857.88C6775.33 1858.42 6776.32 1859.31 6777.03 1860.6C6777.71 1861.86 6777.88 1863.04 6777.88 1863.84H6760ZM6765.9 1873.59C6768.53 1874.91 6771.41 1875.02 6773.1 1875.02V1857.14C6772.64 1857.14 6772.47 1857.12 6772.51 1857.12C6772.53 1857.13 6772.67 1857.15 6772.88 1857.21C6773.09 1857.27 6773.45 1857.38 6773.9 1857.61L6765.9 1873.59ZM6773.1 1875.02H6783.74V1857.14H6773.1V1875.02ZM6783.74 1875.02C6786.37 1875.02 6786.96 1875.6 6786.81 1875.48L6798.11 1861.64C6793.91 1858.21 6788.69 1857.14 6783.74 1857.14V1875.02ZM6787.01 1875.64C6786.98 1875.61 6786.9 1875.55 6786.82 1875.44C6786.73 1875.33 6786.67 1875.23 6786.63 1875.14C6786.55 1874.96 6786.64 1875.05 6786.64 1875.6H6804.52C6804.52 1870.29 6802.6 1865.08 6797.91 1861.48L6787.01 1875.64ZM6786.64 1875.6C6786.64 1875.89 6786.61 1876 6786.62 1876C6786.62 1876 6786.62 1875.97 6786.64 1875.92C6786.66 1875.87 6786.69 1875.81 6786.73 1875.75C6786.77 1875.68 6786.81 1875.62 6786.86 1875.57C6786.9 1875.52 6786.93 1875.49 6786.95 1875.47C6787 1875.44 6786.95 1875.49 6786.76 1875.58L6794.64 1891.62C6797.54 1890.19 6800.16 1888.06 6801.99 1885.05C6803.81 1882.07 6804.52 1878.79 6804.52 1875.6H6786.64ZM6786.6 1875.66C6785.25 1876.36 6782.3 1877.14 6776.86 1877.14V1895.02C6783.47 1895.02 6789.75 1894.15 6794.8 1891.54L6786.6 1875.66ZM6777.5 1863.58C6781.36 1863.58 6786.67 1863.05 6790.6 1859.59L6778.8 1846.17C6779.19 1845.83 6779.52 1845.65 6779.69 1845.57C6779.86 1845.49 6779.91 1845.49 6779.78 1845.52C6779.49 1845.59 6778.78 1845.7 6777.5 1845.7V1863.58ZM6790.47 1859.7C6794.76 1856.07 6795.72 1850.87 6795.72 1846.88H6777.84C6777.84 1847.61 6777.75 1847.77 6777.82 1847.57C6777.86 1847.46 6777.95 1847.23 6778.14 1846.95C6778.33 1846.66 6778.59 1846.34 6778.93 1846.06L6790.47 1859.7ZM6795.72 1846.88C6795.72 1842.8 6794.73 1837.82 6790.76 1834.15L6778.64 1847.29C6778.38 1847.04 6778.17 1846.79 6778.03 1846.56C6777.89 1846.33 6777.82 1846.16 6777.79 1846.08C6777.75 1845.95 6777.84 1846.16 6777.84 1846.88H6795.72ZM6790.89 1834.27C6786.94 1830.48 6781.48 1829.86 6777.5 1829.86V1847.74C6778.1 1847.74 6778.57 1847.76 6778.93 1847.8C6779.3 1847.84 6779.51 1847.89 6779.6 1847.91C6779.82 1847.97 6779.25 1847.87 6778.51 1847.17L6790.89 1834.27ZM6777.5 1829.86C6773.47 1829.86 6768.58 1830.56 6764.71 1833.73L6776.05 1847.55C6775.56 1847.95 6775.26 1847.98 6775.52 1847.91C6775.78 1847.84 6776.4 1847.74 6777.5 1847.74V1829.86ZM6764.71 1833.73C6760.26 1837.39 6759.2 1842.68 6759.2 1846.88H6777.08C6777.08 1846.13 6777.18 1845.95 6777.11 1846.14C6777.07 1846.25 6776.98 1846.46 6776.8 1846.73C6776.61 1847.01 6776.37 1847.29 6776.05 1847.55L6764.71 1833.73ZM6759.2 1846.88C6759.2 1850.94 6760.24 1855.9 6764.3 1859.49L6776.14 1846.11C6776.42 1846.35 6776.64 1846.62 6776.8 1846.87C6776.97 1847.12 6777.05 1847.32 6777.09 1847.44C6777.16 1847.64 6777.08 1847.52 6777.08 1846.88H6759.2ZM6764.43 1859.6C6768.35 1862.95 6773.49 1863.58 6777.5 1863.58V1845.7C6776.29 1845.7 6775.6 1845.59 6775.31 1845.52C6775.01 1845.44 6775.41 1845.48 6776.02 1846L6764.43 1859.6Z" fill="#49ACD1" fill-opacity="0.5"/>
<path d="M2104.09 4222V4170.48H2124.97C2132.59 4170.48 2138.25 4172.51 2141.93 4176.56C2145.61 4180.56 2147.45 4187.23 2147.45 4196.56C2147.45 4205.36 2145.63 4211.81 2142.01 4215.92C2138.38 4219.97 2132.7 4222 2124.97 4222H2104.09ZM2112.81 4215.28H2123.61C2126.97 4215.28 2129.77 4214.8 2132.01 4213.84C2134.25 4212.83 2135.93 4210.96 2137.05 4208.24C2138.17 4205.52 2138.73 4201.63 2138.73 4196.56C2138.73 4191.49 2138.22 4187.57 2137.21 4184.8C2136.19 4182.03 2134.57 4180.08 2132.33 4178.96C2130.14 4177.84 2127.23 4177.28 2123.61 4177.28H2112.81V4215.28ZM2175.24 4222.8C2168.63 4222.8 2163.51 4221.17 2159.88 4217.92C2156.25 4214.67 2154.44 4209.68 2154.44 4202.96C2154.44 4196.88 2155.99 4192.08 2159.08 4188.56C2162.17 4185.04 2166.87 4183.28 2173.16 4183.28C2178.92 4183.28 2183.24 4184.8 2186.12 4187.84C2189.05 4190.83 2190.52 4194.69 2190.52 4199.44V4206.48H2162.76C2163.19 4210.16 2164.52 4212.69 2166.76 4214.08C2169 4215.47 2172.41 4216.16 2177 4216.16C2178.92 4216.16 2180.89 4215.97 2182.92 4215.6C2184.95 4215.23 2186.71 4214.75 2188.2 4214.16V4220.56C2186.49 4221.31 2184.52 4221.87 2182.28 4222.24C2180.09 4222.61 2177.75 4222.8 2175.24 4222.8ZM2162.76 4200.8H2182.84V4198.16C2182.84 4195.55 2182.12 4193.52 2180.68 4192.08C2179.24 4190.59 2176.81 4189.84 2173.4 4189.84C2169.35 4189.84 2166.55 4190.72 2165 4192.48C2163.51 4194.24 2162.76 4197.01 2162.76 4200.8ZM2208.45 4222.8C2205.36 4222.8 2203.01 4222.05 2201.41 4220.56C2199.81 4219.01 2199.01 4216.48 2199.01 4212.96V4168.08H2207.73V4212.16C2207.73 4213.65 2208 4214.67 2208.53 4215.2C2209.06 4215.73 2209.86 4216 2210.93 4216C2212.21 4216 2213.44 4215.84 2214.61 4215.52V4221.84C2213.6 4222.21 2212.61 4222.45 2211.65 4222.56C2210.74 4222.72 2209.68 4222.8 2208.45 4222.8ZM2220.94 4222V4190.88H2215.42V4184.08H2220.94V4180.16C2220.94 4177.55 2221.55 4175.25 2222.78 4173.28C2224.06 4171.25 2225.82 4169.68 2228.06 4168.56C2230.35 4167.39 2233.02 4166.8 2236.06 4166.8C2237.92 4166.8 2239.68 4166.93 2241.34 4167.2C2242.99 4167.41 2244.35 4167.73 2245.42 4168.16V4174.64C2244.72 4174.32 2243.71 4174.08 2242.38 4173.92C2241.04 4173.76 2239.79 4173.68 2238.62 4173.68C2235.52 4173.68 2233.23 4174.21 2231.74 4175.28C2230.3 4176.35 2229.58 4178.03 2229.58 4180.32V4184.08H2250.94V4222H2242.22V4190.88H2229.58V4222H2220.94ZM2261.04 4222V4184.08H2269.04L2269.44 4188.08C2271.15 4186.75 2273.17 4185.63 2275.52 4184.72C2277.92 4183.76 2280.56 4183.28 2283.44 4183.28C2288.35 4183.28 2291.92 4184.43 2294.16 4186.72C2296.4 4189.01 2297.52 4192.59 2297.52 4197.44V4222H2288.88V4197.84C2288.88 4194.91 2288.27 4192.85 2287.04 4191.68C2285.87 4190.51 2283.63 4189.92 2280.32 4189.92C2278.35 4189.92 2276.4 4190.32 2274.48 4191.12C2272.61 4191.92 2271.04 4192.96 2269.76 4194.24V4222H2261.04ZM2324.67 4222.8C2317.84 4222.8 2312.83 4221.09 2309.63 4217.68C2306.48 4214.27 2304.91 4209.39 2304.91 4203.04C2304.91 4196.69 2306.51 4191.81 2309.71 4188.4C2312.91 4184.99 2317.9 4183.28 2324.67 4183.28C2331.5 4183.28 2336.51 4184.99 2339.71 4188.4C2342.91 4191.81 2344.51 4196.69 2344.51 4203.04C2344.51 4209.39 2342.91 4214.27 2339.71 4217.68C2336.56 4221.09 2331.55 4222.8 2324.67 4222.8ZM2324.67 4215.44C2328.67 4215.44 2331.5 4214.48 2333.15 4212.56C2334.86 4210.59 2335.71 4207.41 2335.71 4203.04C2335.71 4198.67 2334.86 4195.52 2333.15 4193.6C2331.5 4191.68 2328.67 4190.72 2324.67 4190.72C2320.72 4190.72 2317.9 4191.68 2316.19 4193.6C2314.54 4195.52 2313.71 4198.67 2313.71 4203.04C2313.71 4207.41 2314.54 4210.59 2316.19 4212.56C2317.9 4214.48 2320.72 4215.44 2324.67 4215.44Z" fill="white"/>
<path d="M2104.09 4222H2095.15V4230.94H2104.09V4222ZM2104.09 4170.48V4161.54H2095.15V4170.48H2104.09ZM2141.93 4176.56L2135.31 4182.57L2135.33 4182.59L2135.35 4182.61L2141.93 4176.56ZM2142.01 4215.92L2148.67 4221.88L2148.69 4221.86L2148.71 4221.84L2142.01 4215.92ZM2112.81 4215.28H2103.87V4224.22H2112.81V4215.28ZM2132.01 4213.84L2135.53 4222.05L2135.61 4222.02L2135.69 4221.98L2132.01 4213.84ZM2137.21 4184.8L2145.6 4181.73L2145.6 4181.73L2137.21 4184.8ZM2132.33 4178.96L2128.25 4186.91L2128.29 4186.93L2128.33 4186.95L2132.33 4178.96ZM2112.81 4177.28V4168.34H2103.87V4177.28H2112.81ZM2113.02 4222V4170.48H2095.15V4222H2113.02ZM2104.09 4179.42H2124.97V4161.54H2104.09V4179.42ZM2124.97 4179.42C2131.1 4179.42 2133.91 4181.02 2135.31 4182.57L2148.54 4170.55C2142.59 4163.99 2134.09 4161.54 2124.97 4161.54V4179.42ZM2135.35 4182.61C2136.74 4184.12 2138.51 4187.99 2138.51 4196.56H2156.38C2156.38 4186.47 2154.47 4177 2148.5 4170.51L2135.35 4182.61ZM2138.51 4196.56C2138.51 4204.43 2136.84 4208.27 2135.31 4210L2148.71 4221.84C2154.43 4215.36 2156.38 4206.29 2156.38 4196.56H2138.51ZM2135.35 4209.96C2134.03 4211.43 2131.26 4213.06 2124.97 4213.06V4230.94C2134.14 4230.94 2142.73 4228.52 2148.67 4221.88L2135.35 4209.96ZM2124.97 4213.06H2104.09V4230.94H2124.97V4213.06ZM2112.81 4224.22H2123.61V4206.34H2112.81V4224.22ZM2123.61 4224.22C2127.75 4224.22 2131.84 4223.63 2135.53 4222.05L2128.49 4205.63C2127.7 4205.97 2126.19 4206.34 2123.61 4206.34V4224.22ZM2135.69 4221.98C2140.4 4219.85 2143.5 4216.03 2145.31 4211.64L2128.78 4204.84C2128.55 4205.41 2128.36 4205.65 2128.3 4205.7C2128.28 4205.73 2128.27 4205.73 2128.29 4205.72C2128.3 4205.71 2128.31 4205.71 2128.31 4205.7C2128.32 4205.7 2128.32 4205.7 2128.32 4205.7L2135.69 4221.98ZM2145.31 4211.64C2147.08 4207.33 2147.66 4202.07 2147.66 4196.56H2129.79C2129.79 4201.18 2129.25 4203.71 2128.78 4204.84L2145.31 4211.64ZM2147.66 4196.56C2147.66 4191.09 2147.14 4185.95 2145.6 4181.73L2128.81 4187.87C2129.3 4189.2 2129.79 4191.9 2129.79 4196.56H2147.66ZM2145.6 4181.73C2143.95 4177.23 2140.96 4173.29 2136.32 4170.97L2128.33 4186.95C2128.34 4186.96 2128.33 4186.95 2128.37 4186.99C2128.42 4187.05 2128.6 4187.29 2128.81 4187.87L2145.6 4181.73ZM2136.4 4171.01C2132.5 4169.01 2128.03 4168.34 2123.61 4168.34V4186.22C2126.44 4186.22 2127.78 4186.67 2128.25 4186.91L2136.4 4171.01ZM2123.61 4168.34H2112.81V4186.22H2123.61V4168.34ZM2103.87 4177.28V4215.28H2121.74V4177.28H2103.87ZM2159.88 4217.92L2165.85 4211.27L2165.85 4211.27L2159.88 4217.92ZM2159.08 4188.56L2165.79 4194.46L2165.79 4194.46L2159.08 4188.56ZM2186.12 4187.84L2179.63 4193.99L2179.69 4194.04L2179.74 4194.1L2186.12 4187.84ZM2190.52 4206.48V4215.42H2199.46V4206.48H2190.52ZM2162.76 4206.48V4197.54H2152.73L2153.88 4207.51L2162.76 4206.48ZM2166.76 4214.08L2171.46 4206.48L2171.46 4206.48L2166.76 4214.08ZM2188.2 4214.16H2197.14V4201.05L2184.93 4205.84L2188.2 4214.16ZM2188.2 4220.56L2191.78 4228.75L2197.14 4226.4V4220.56H2188.2ZM2182.28 4222.24L2180.81 4213.43L2180.79 4213.43L2180.78 4213.43L2182.28 4222.24ZM2162.76 4200.8H2153.82V4209.74H2162.76V4200.8ZM2182.84 4200.8V4209.74H2191.78V4200.8H2182.84ZM2180.68 4192.08L2174.25 4198.28L2174.3 4198.34L2174.36 4198.4L2180.68 4192.08ZM2165 4192.48L2158.29 4186.58L2158.24 4186.64L2158.19 4186.7L2165 4192.48ZM2175.24 4213.86C2170.03 4213.86 2167.33 4212.59 2165.85 4211.27L2153.91 4224.57C2159.69 4229.75 2167.22 4231.74 2175.24 4231.74V4213.86ZM2165.85 4211.27C2164.74 4210.28 2163.38 4208.14 2163.38 4202.96H2145.5C2145.5 4211.22 2147.76 4219.05 2153.91 4224.57L2165.85 4211.27ZM2163.38 4202.96C2163.38 4198.39 2164.52 4195.91 2165.79 4194.46L2152.37 4182.66C2147.46 4188.25 2145.5 4195.37 2145.5 4202.96H2163.38ZM2165.79 4194.46C2166.66 4193.47 2168.51 4192.22 2173.16 4192.22V4174.34C2165.22 4174.34 2157.69 4176.61 2152.37 4182.66L2165.79 4194.46ZM2173.16 4192.22C2177.42 4192.22 2179 4193.32 2179.63 4193.99L2192.61 4181.69C2187.48 4176.28 2180.42 4174.34 2173.16 4174.34V4192.22ZM2179.74 4194.1C2180.81 4195.19 2181.58 4196.69 2181.58 4199.44H2199.46C2199.46 4192.69 2197.29 4186.46 2192.5 4181.58L2179.74 4194.1ZM2181.58 4199.44V4206.48H2199.46V4199.44H2181.58ZM2190.52 4197.54H2162.76V4215.42H2190.52V4197.54ZM2153.88 4207.51C2154.49 4212.74 2156.66 4218.34 2162.06 4221.68L2171.46 4206.48C2171.61 4206.57 2171.75 4206.69 2171.85 4206.8C2171.96 4206.92 2172 4206.99 2171.99 4206.98C2171.96 4206.93 2171.76 4206.5 2171.64 4205.45L2153.88 4207.51ZM2162.06 4221.68C2166.41 4224.37 2171.83 4225.1 2177 4225.1V4207.22C2175.13 4207.22 2173.75 4207.08 2172.78 4206.88C2171.79 4206.68 2171.45 4206.47 2171.46 4206.48L2162.06 4221.68ZM2177 4225.1C2179.5 4225.1 2182.02 4224.85 2184.54 4224.39L2181.3 4206.81C2179.77 4207.09 2178.34 4207.22 2177 4207.22V4225.1ZM2184.54 4224.39C2186.98 4223.94 2189.32 4223.32 2191.47 4222.48L2184.93 4205.84C2184.1 4206.17 2182.91 4206.51 2181.3 4206.81L2184.54 4224.39ZM2179.26 4214.16V4220.56H2197.14V4214.16H2179.26ZM2184.62 4212.37C2183.72 4212.77 2182.48 4213.15 2180.81 4213.43L2183.75 4231.05C2186.56 4230.59 2189.27 4229.85 2191.78 4228.75L2184.62 4212.37ZM2180.78 4213.43C2179.15 4213.71 2177.31 4213.86 2175.24 4213.86V4231.74C2178.19 4231.74 2181.04 4231.52 2183.78 4231.05L2180.78 4213.43ZM2162.76 4209.74H2182.84V4191.86H2162.76V4209.74ZM2191.78 4200.8V4198.16H2173.9V4200.8H2191.78ZM2191.78 4198.16C2191.78 4193.88 2190.55 4189.32 2187 4185.76L2174.36 4198.4C2174.24 4198.28 2174.13 4198.14 2174.04 4198C2173.95 4197.85 2173.9 4197.74 2173.88 4197.67C2173.83 4197.54 2173.9 4197.66 2173.9 4198.16H2191.78ZM2187.11 4185.88C2183.17 4181.79 2177.74 4180.9 2173.4 4180.9V4198.78C2173.93 4198.78 2174.34 4198.81 2174.64 4198.84C2174.94 4198.88 2175.1 4198.93 2175.15 4198.94C2175.24 4198.97 2174.79 4198.84 2174.25 4198.28L2187.11 4185.88ZM2173.4 4180.9C2168.56 4180.9 2162.43 4181.87 2158.29 4186.58L2171.71 4198.38C2171.17 4199 2170.71 4199.1 2170.94 4199.03C2171.21 4198.94 2171.96 4198.78 2173.4 4198.78V4180.9ZM2158.19 4186.7C2154.68 4190.83 2153.82 4196.16 2153.82 4200.8H2171.7C2171.7 4199.46 2171.83 4198.64 2171.95 4198.2C2172.06 4197.79 2172.1 4197.92 2171.81 4198.26L2158.19 4186.7ZM2201.41 4220.56L2195.2 4226.99L2195.25 4227.04L2195.31 4227.09L2201.41 4220.56ZM2199.01 4168.08V4159.14H2190.07V4168.08H2199.01ZM2207.73 4168.08H2216.66V4159.14H2207.73V4168.08ZM2208.53 4215.2L2214.85 4208.88L2214.85 4208.88L2208.53 4215.2ZM2214.61 4215.52H2223.54V4203.82L2212.26 4206.9L2214.61 4215.52ZM2214.61 4221.84L2217.7 4230.23L2223.54 4228.07V4221.84H2214.61ZM2211.65 4222.56L2210.66 4213.68L2210.38 4213.71L2210.1 4213.76L2211.65 4222.56ZM2208.45 4213.86C2207.6 4213.86 2207.18 4213.76 2207.08 4213.72C2207.01 4213.7 2207.22 4213.76 2207.51 4214.03L2195.31 4227.09C2199.14 4230.67 2204.03 4231.74 2208.45 4231.74V4213.86ZM2207.62 4214.13C2208.08 4214.58 2208.17 4214.93 2208.13 4214.81C2208.08 4214.64 2207.94 4214.08 2207.94 4212.96H2190.07C2190.07 4217.53 2191.07 4222.99 2195.2 4226.99L2207.62 4214.13ZM2207.94 4212.96V4168.08H2190.07V4212.96H2207.94ZM2199.01 4177.02H2207.73V4159.14H2199.01V4177.02ZM2198.79 4168.08V4212.16H2216.66V4168.08H2198.79ZM2198.79 4212.16C2198.79 4214 2198.97 4218.28 2202.21 4221.52L2214.85 4208.88C2216.05 4210.09 2216.45 4211.31 2216.57 4211.77C2216.7 4212.24 2216.66 4212.44 2216.66 4212.16H2198.79ZM2202.21 4221.52C2205.01 4224.32 2208.48 4224.94 2210.93 4224.94V4207.06C2211.24 4207.06 2213.11 4207.15 2214.85 4208.88L2202.21 4221.52ZM2210.93 4224.94C2212.96 4224.94 2214.98 4224.68 2216.96 4224.14L2212.26 4206.9C2211.89 4207 2211.46 4207.06 2210.93 4207.06V4224.94ZM2205.67 4215.52V4221.84H2223.54V4215.52H2205.67ZM2211.52 4213.45C2211.11 4213.61 2210.82 4213.66 2210.66 4213.68L2212.64 4231.44C2214.39 4231.25 2216.09 4230.82 2217.7 4230.23L2211.52 4213.45ZM2210.1 4213.76C2209.84 4213.81 2209.31 4213.86 2208.45 4213.86V4231.74C2210.04 4231.74 2211.65 4231.63 2213.2 4231.36L2210.1 4213.76ZM2220.94 4222H2212V4230.94H2220.94V4222ZM2220.94 4190.88H2229.87V4181.94H2220.94V4190.88ZM2215.42 4190.88H2206.48V4199.82H2215.42V4190.88ZM2215.42 4184.08V4175.14H2206.48V4184.08H2215.42ZM2220.94 4184.08V4193.02H2229.87V4184.08H2220.94ZM2222.78 4173.28L2215.22 4168.51L2215.21 4168.54L2215.19 4168.56L2222.78 4173.28ZM2228.06 4168.56L2232.05 4176.55L2232.09 4176.53L2232.13 4176.52L2228.06 4168.56ZM2241.34 4167.2L2239.92 4176.02L2240.05 4176.04L2240.19 4176.06L2241.34 4167.2ZM2245.42 4168.16H2254.35V4162.11L2248.74 4159.86L2245.42 4168.16ZM2245.42 4174.64L2241.67 4182.75L2254.35 4188.61V4174.64H2245.42ZM2242.38 4173.92L2241.31 4182.79L2241.31 4182.79L2242.38 4173.92ZM2231.74 4175.28L2226.54 4168.01L2226.48 4168.05L2226.42 4168.1L2231.74 4175.28ZM2229.58 4184.08H2220.64V4193.02H2229.58V4184.08ZM2250.94 4184.08H2259.87V4175.14H2250.94V4184.08ZM2250.94 4222V4230.94H2259.87V4222H2250.94ZM2242.22 4222H2233.28V4230.94H2242.22V4222ZM2242.22 4190.88H2251.15V4181.94H2242.22V4190.88ZM2229.58 4190.88V4181.94H2220.64V4190.88H2229.58ZM2229.58 4222V4230.94H2238.51V4222H2229.58ZM2229.87 4222V4190.88H2212V4222H2229.87ZM2220.94 4181.94H2215.42V4199.82H2220.94V4181.94ZM2224.35 4190.88V4184.08H2206.48V4190.88H2224.35ZM2215.42 4193.02H2220.94V4175.14H2215.42V4193.02ZM2229.87 4184.08V4180.16H2212V4184.08H2229.87ZM2229.87 4180.16C2229.87 4179 2230.13 4178.38 2230.37 4178L2215.19 4168.56C2212.98 4172.12 2212 4176.09 2212 4180.16H2229.87ZM2230.33 4178.05C2230.7 4177.47 2231.2 4176.98 2232.05 4176.55L2224.06 4160.57C2220.43 4162.38 2217.41 4165.04 2215.22 4168.51L2230.33 4178.05ZM2232.13 4176.52C2232.95 4176.09 2234.18 4175.74 2236.06 4175.74V4157.86C2231.86 4157.86 2227.75 4158.68 2223.99 4160.6L2232.13 4176.52ZM2236.06 4175.74C2237.5 4175.74 2238.78 4175.84 2239.92 4176.02L2242.76 4158.38C2240.59 4158.03 2238.35 4157.86 2236.06 4157.86V4175.74ZM2240.19 4176.06C2241.41 4176.22 2241.97 4176.4 2242.1 4176.46L2248.74 4159.86C2246.74 4159.06 2244.58 4158.61 2242.48 4158.34L2240.19 4176.06ZM2236.48 4168.16V4174.64H2254.35V4168.16H2236.48ZM2249.16 4166.53C2247.21 4165.63 2245.11 4165.25 2243.44 4165.05L2241.31 4182.79C2241.52 4182.82 2241.69 4182.84 2241.82 4182.86C2241.95 4182.89 2242.03 4182.91 2242.08 4182.92C2242.12 4182.93 2242.11 4182.93 2242.05 4182.91C2241.99 4182.89 2241.86 4182.84 2241.67 4182.75L2249.16 4166.53ZM2243.44 4165.05C2241.81 4164.85 2240.19 4164.74 2238.62 4164.74V4182.62C2239.39 4182.62 2240.28 4182.67 2241.31 4182.79L2243.44 4165.05ZM2238.62 4164.74C2234.81 4164.74 2230.28 4165.34 2226.54 4168.01L2236.93 4182.55C2236.5 4182.86 2236.29 4182.86 2236.6 4182.78C2236.92 4182.71 2237.55 4182.62 2238.62 4182.62V4164.74ZM2226.42 4168.1C2222.08 4171.31 2220.64 4176.07 2220.64 4180.32H2238.51C2238.51 4180.09 2238.55 4180.34 2238.33 4180.86C2238.08 4181.44 2237.64 4182.03 2237.06 4182.46L2226.42 4168.1ZM2220.64 4180.32V4184.08H2238.51V4180.32H2220.64ZM2229.58 4193.02H2250.94V4175.14H2229.58V4193.02ZM2242 4184.08V4222H2259.87V4184.08H2242ZM2250.94 4213.06H2242.22V4230.94H2250.94V4213.06ZM2251.15 4222V4190.88H2233.28V4222H2251.15ZM2242.22 4181.94H2229.58V4199.82H2242.22V4181.94ZM2220.64 4190.88V4222H2238.51V4190.88H2220.64ZM2229.58 4213.06H2220.94V4230.94H2229.58V4213.06ZM2261.04 4222H2252.1V4230.94H2261.04V4222ZM2261.04 4184.08V4175.14H2252.1V4184.08H2261.04ZM2269.04 4184.08L2277.93 4183.19L2277.13 4175.14H2269.04V4184.08ZM2269.44 4188.08L2260.55 4188.97L2262.16 4205.11L2274.94 4195.12L2269.44 4188.08ZM2275.52 4184.72L2278.74 4193.06L2278.79 4193.04L2278.84 4193.02L2275.52 4184.72ZM2294.16 4186.72L2287.77 4192.96L2287.77 4192.96L2294.16 4186.72ZM2297.52 4222V4230.94H2306.46V4222H2297.52ZM2288.88 4222H2279.94V4230.94H2288.88V4222ZM2287.04 4191.68L2280.72 4198L2280.79 4198.07L2280.86 4198.14L2287.04 4191.68ZM2274.48 4191.12L2271.04 4182.87L2271 4182.89L2270.96 4182.91L2274.48 4191.12ZM2269.76 4194.24L2263.44 4187.92L2260.82 4190.54V4194.24H2269.76ZM2269.76 4222V4230.94H2278.7V4222H2269.76ZM2269.98 4222V4184.08H2252.1V4222H2269.98ZM2261.04 4193.02H2269.04V4175.14H2261.04V4193.02ZM2260.15 4184.97L2260.55 4188.97L2278.33 4187.19L2277.93 4183.19L2260.15 4184.97ZM2274.94 4195.12C2275.85 4194.41 2277.08 4193.7 2278.74 4193.06L2272.3 4176.38C2269.26 4177.56 2266.44 4179.08 2263.94 4181.04L2274.94 4195.12ZM2278.84 4193.02C2280.07 4192.52 2281.57 4192.22 2283.44 4192.22V4174.34C2279.55 4174.34 2275.77 4175 2272.2 4176.42L2278.84 4193.02ZM2283.44 4192.22C2287.2 4192.22 2287.92 4193.12 2287.77 4192.96L2300.55 4180.48C2295.92 4175.73 2289.5 4174.34 2283.44 4174.34V4192.22ZM2287.77 4192.96C2287.77 4192.97 2287.81 4193.01 2287.88 4193.12C2287.94 4193.24 2288.05 4193.45 2288.15 4193.79C2288.38 4194.5 2288.58 4195.67 2288.58 4197.44H2306.46C2306.46 4191.43 2305.09 4185.12 2300.55 4180.48L2287.77 4192.96ZM2288.58 4197.44V4222H2306.46V4197.44H2288.58ZM2297.52 4213.06H2288.88V4230.94H2297.52V4213.06ZM2297.82 4222V4197.84H2279.94V4222H2297.82ZM2297.82 4197.84C2297.82 4194.13 2297.13 4188.96 2293.22 4185.22L2280.86 4198.14C2280.1 4197.41 2279.88 4196.73 2279.86 4196.66C2279.85 4196.62 2279.87 4196.69 2279.9 4196.9C2279.92 4197.1 2279.94 4197.41 2279.94 4197.84H2297.82ZM2293.36 4185.36C2289.47 4181.48 2283.95 4180.98 2280.32 4180.98V4198.86C2280.89 4198.86 2281.33 4198.88 2281.66 4198.92C2281.99 4198.95 2282.17 4198.99 2282.22 4199C2282.27 4199.02 2282.13 4198.99 2281.86 4198.85C2281.6 4198.71 2281.17 4198.45 2280.72 4198L2293.36 4185.36ZM2280.32 4180.98C2277.1 4180.98 2273.99 4181.64 2271.04 4182.87L2277.92 4199.37C2278.81 4199 2279.59 4198.86 2280.32 4198.86V4180.98ZM2270.96 4182.91C2268.18 4184.1 2265.62 4185.75 2263.44 4187.92L2276.08 4200.56C2276.46 4200.17 2277.05 4199.74 2278 4199.33L2270.96 4182.91ZM2260.82 4194.24V4222H2278.7V4194.24H2260.82ZM2269.76 4213.06H2261.04V4230.94H2269.76V4213.06ZM2309.63 4217.68L2303.06 4223.74L2303.08 4223.76L2303.11 4223.79L2309.63 4217.68ZM2309.71 4188.4L2316.23 4194.51L2316.23 4194.51L2309.71 4188.4ZM2339.71 4188.4L2333.19 4194.51L2333.19 4194.51L2339.71 4188.4ZM2339.71 4217.68L2333.19 4211.57L2333.16 4211.6L2333.14 4211.62L2339.71 4217.68ZM2333.15 4212.56L2326.39 4206.71L2326.38 4206.72L2326.38 4206.73L2333.15 4212.56ZM2333.15 4193.6L2326.38 4199.43L2326.42 4199.48L2326.47 4199.54L2333.15 4193.6ZM2316.19 4193.6L2309.51 4187.66L2309.46 4187.72L2309.42 4187.77L2316.19 4193.6ZM2316.19 4212.56L2309.34 4218.3L2309.42 4218.4L2309.51 4218.5L2316.19 4212.56ZM2324.67 4213.86C2319.17 4213.86 2317.01 4212.49 2316.15 4211.57L2303.11 4223.79C2308.65 4229.7 2316.52 4231.74 2324.67 4231.74V4213.86ZM2316.2 4211.62C2315.06 4210.38 2313.84 4207.98 2313.84 4203.04H2295.97C2295.97 4210.8 2297.91 4218.15 2303.06 4223.74L2316.2 4211.62ZM2313.84 4203.04C2313.84 4198.14 2315.06 4195.75 2316.23 4194.51L2303.19 4182.29C2297.95 4187.87 2295.97 4195.25 2295.97 4203.04H2313.84ZM2316.23 4194.51C2317.1 4193.58 2319.25 4192.22 2324.67 4192.22V4174.34C2316.54 4174.34 2308.72 4176.39 2303.19 4182.29L2316.23 4194.51ZM2324.67 4192.22C2330.17 4192.22 2332.33 4193.59 2333.19 4194.51L2346.23 4182.29C2340.69 4176.38 2332.82 4174.34 2324.67 4174.34V4192.22ZM2333.19 4194.51C2334.35 4195.75 2335.57 4198.14 2335.57 4203.04H2353.44C2353.44 4195.25 2351.46 4187.87 2346.23 4182.29L2333.19 4194.51ZM2335.57 4203.04C2335.57 4207.94 2334.35 4210.33 2333.19 4211.57L2346.23 4223.79C2351.46 4218.21 2353.44 4210.83 2353.44 4203.04H2335.57ZM2333.14 4211.62C2332.36 4212.47 2330.26 4213.86 2324.67 4213.86V4231.74C2332.83 4231.74 2340.77 4229.72 2346.28 4223.74L2333.14 4211.62ZM2324.67 4224.38C2329.78 4224.38 2335.79 4223.19 2339.92 4218.39L2326.38 4206.73C2326.76 4206.28 2327.09 4206.2 2326.92 4206.26C2326.68 4206.34 2326 4206.5 2324.67 4206.5V4224.38ZM2339.91 4218.41C2343.7 4214.02 2344.64 4208.22 2344.64 4203.04H2326.77C2326.77 4204.68 2326.61 4205.75 2326.44 4206.38C2326.27 4206.99 2326.16 4206.98 2326.39 4206.71L2339.91 4218.41ZM2344.64 4203.04C2344.64 4197.89 2343.71 4192.03 2339.83 4187.66L2326.47 4199.54C2326.19 4199.22 2326.28 4199.15 2326.44 4199.74C2326.61 4200.34 2326.77 4201.39 2326.77 4203.04H2344.64ZM2339.92 4187.77C2335.79 4182.97 2329.78 4181.78 2324.67 4181.78V4199.66C2326 4199.66 2326.68 4199.82 2326.92 4199.9C2327.09 4199.96 2326.76 4199.88 2326.38 4199.43L2339.92 4187.77ZM2324.67 4181.78C2319.53 4181.78 2313.65 4183.01 2309.51 4187.66L2322.87 4199.54C2322.54 4199.91 2322.27 4199.97 2322.46 4199.9C2322.71 4199.82 2323.38 4199.66 2324.67 4199.66V4181.78ZM2309.42 4187.77C2305.66 4192.13 2304.77 4197.94 2304.77 4203.04H2322.64C2322.64 4201.38 2322.81 4200.3 2322.97 4199.67C2323.13 4199.05 2323.23 4199.11 2322.96 4199.43L2309.42 4187.77ZM2304.77 4203.04C2304.77 4208.17 2305.67 4213.92 2309.34 4218.3L2323.04 4206.82C2323.26 4207.09 2323.14 4207.09 2322.98 4206.45C2322.81 4205.79 2322.64 4204.7 2322.64 4203.04H2304.77ZM2309.51 4218.5C2313.65 4223.15 2319.53 4224.38 2324.67 4224.38V4206.5C2323.38 4206.5 2322.71 4206.34 2322.46 4206.26C2322.27 4206.19 2322.54 4206.25 2322.87 4206.62L2309.51 4218.5Z" fill="#49ACD1" fill-opacity="0.5"/>
</svg>
