<svg width="8192" height="8192" viewBox="0 0 8192 8192" fill="none" xmlns="http://www.w3.org/2000/svg">
<path fill-rule="evenodd" clip-rule="evenodd" d="M2532.55 4216.23C2539.64 4210.58 2548.44 4207.5 2557.5 4207.5H2756.85C2761.58 4207.5 2766.27 4208.34 2770.71 4209.98L2835.79 4234.02C2840.23 4235.66 2844.92 4236.5 2849.65 4236.5H3042.5L3289.5 4228.5L3352.13 4235.36C3358.93 4236.11 3365.81 4235.1 3372.11 4232.42L3400.78 4220.26C3408.09 4217.16 3416.17 4216.3 3423.97 4217.8L3465.64 4225.83C3474.61 4227.56 3483.9 4226.17 3491.96 4221.89L3535.7 4198.67C3541.48 4195.6 3547.92 4194 3554.46 4194H3588.89C3595.53 4194 3602.06 4195.65 3607.9 4198.8L3613.75 4201.96C3620.44 4205.58 3628.03 4207.21 3635.62 4206.66L3811.5 4194H3923.09C3928.31 4194 3933.48 4195.02 3938.31 4197.01L4056.19 4245.49C4061.02 4247.48 4066.19 4248.5 4071.4 4248.5H4201.25C4206.05 4248.5 4210.8 4249.36 4215.29 4251.04L4386 4315L4438.88 4340.05C4447.66 4344.21 4457.65 4345.03 4466.99 4342.36L4494.76 4334.42C4503.65 4331.89 4513.13 4332.5 4521.61 4336.17L4736.5 4429L4857.32 4481.98C4863.35 4484.62 4868.63 4488.7 4872.7 4493.87L4933.99 4571.77C4936.97 4575.56 4940.62 4578.78 4944.75 4581.27L5004.43 4617.32C5011.63 4621.66 5017.27 4628.16 5020.56 4635.89L5123.9 4878.7C5126.9 4885.75 5127.82 4893.52 5126.53 4901.07L5104.98 5027.7C5104.66 5029.56 5104.21 5031.4 5103.63 5033.21L5074.33 5124.51C5071.53 5133.24 5065.82 5140.74 5058.15 5145.76L4907.07 5244.63C4897.49 5250.91 4885.67 5252.77 4874.62 5249.75L4746.74 5214.8C4740.03 5212.96 4733.91 5209.41 4729 5204.5L4550.58 5026.08C4545.61 5021.11 4539.43 5017.54 4532.64 5015.73L4431.09 4988.53C4426.08 4987.19 4420.85 4986.84 4415.71 4987.49L4298.87 5002.3C4290.2 5003.4 4282.12 5007.32 4275.88 5013.44L4274.43 5014.87C4264.53 5024.58 4250.3 5028.48 4236.83 5025.16L4158.13 5005.76C4153.41 5004.6 4148.95 5002.59 4144.96 4999.83L4034.07 4923.2C4030.06 4920.42 4026.58 4916.94 4023.83 4912.91L3965.48 4827.85C3963.5 4824.96 3961.15 4822.35 3958.49 4820.07L3866 4741L3791.23 4669.09C3788.75 4666.71 3785.98 4664.65 3782.98 4662.98L3571.88 4545.27C3555.8 4536.3 3535.68 4539.47 3523.13 4552.94L3507.02 4570.23C3496.6 4581.41 3493.47 4597.55 3498.93 4611.81L3513 4648.52C3517.13 4659.31 3525.72 4667.78 3536.56 4671.76L3677.5 4723.5L3825.51 4801.14C3828.49 4802.71 3831.26 4804.64 3833.76 4806.91L3979.55 4938.83C3981.51 4940.61 3983.29 4942.57 3984.86 4944.69L4039.5 5018.5L4079.38 5064.7C4086.19 5072.59 4095.81 5077.51 4106.19 5078.41L4279.38 5093.47C4283.43 5093.82 4287.52 5093.55 4291.5 5092.67L4395.72 5069.56C4401.82 5068.2 4408.16 5068.3 4414.21 5069.84L4463.75 5082.4C4470.47 5084.1 4476.63 5087.52 4481.62 5092.32L4646.24 5250.41C4648.97 5253.04 4652.61 5254.5 4656.4 5254.5C4669.42 5254.5 4675.98 5270.21 4666.83 5279.47L4655.36 5291.08C4652.2 5294.28 4648.12 5296.41 4643.68 5297.16L4580 5308L4478.94 5334.22C4475.66 5335.07 4472.28 5335.5 4468.9 5335.5H4339.5L4028 5350.5H3834.5C3831.51 5350.5 3828.53 5350.16 3825.61 5349.5L3591 5296L3417.22 5255.71C3413.76 5254.91 3410.41 5253.64 3407.28 5251.95L3348 5220L3217.89 5165.67C3213.66 5163.9 3209.77 5161.42 3206.38 5158.34L3122.67 5082.16C3118.92 5078.75 3114.56 5076.08 3109.82 5074.3L3049.78 5051.74C3044.97 5049.93 3040.56 5047.21 3036.78 5043.74L2886.94 4905.96C2883.02 4902.36 2878.42 4899.57 2873.41 4897.77L2671.15 4824.99C2668.39 4824 2665.75 4822.71 2663.27 4821.14L2482.69 4706.65C2479.91 4704.89 2477.35 4702.79 2475.09 4700.4L2379.92 4600.11C2377.65 4597.71 2375.68 4595.04 2374.06 4592.16L2338.06 4528.07C2333.5 4519.95 2331.91 4510.48 2333.58 4501.31L2357.81 4368.25C2359.55 4358.74 2364.66 4350.18 2372.22 4344.15L2532.55 4216.23ZM3394.34 4992.59C3400.46 4987.15 3408.68 4984.72 3416.77 4985.97L3475.5 4995.04C3477.5 4995.35 3479.47 4995.8 3481.39 4996.41L3612.19 5037.52C3616.37 5038.83 3620.73 5039.45 3625.11 5039.35L3751.13 5036.44C3762.88 5036.16 3773.95 5041.93 3780.47 5051.71C3790.38 5066.56 3787.23 5086.54 3773.24 5097.63L3767.92 5101.85C3760.85 5107.45 3752.09 5110.5 3743.07 5110.5H3647.71C3643.59 5110.5 3639.5 5109.86 3635.58 5108.62L3553.5 5082.5L3405.58 5040.3C3396.21 5037.63 3388.89 5030.29 3386.26 5020.91L3386.15 5020.54C3383.31 5010.42 3386.49 4999.57 3394.34 4992.59Z" fill="#0B3533"/>
<path d="M2918.03 5513.55L2836.6 5570.45C2827.02 5577.14 2820.84 5587.7 2819.7 5599.34L2814 5657.5L2809.62 5716.41C2808.9 5726.13 2804.65 5735.26 2797.67 5742.07L2772.84 5766.3C2768.99 5770.06 2765.93 5774.56 2763.86 5779.54L2742 5832L2713.32 5893.4C2711.13 5898.09 2709.87 5903.16 2709.61 5908.32L2704.75 6005.1C2704.58 6008.35 2704.82 6011.62 2705.45 6014.82L2729.27 6136.01C2731.62 6148 2739.34 6158.26 2750.21 6163.86L2756.09 6166.88C2763.2 6170.54 2769.05 6176.25 2772.88 6183.27L2808.22 6247.93C2811.99 6254.82 2817.71 6260.46 2824.66 6264.12L2955.72 6333.27C2957.9 6334.42 2960.18 6335.37 2962.54 6336.1L3121.02 6385.25C3127.88 6387.38 3135.19 6387.62 3142.17 6385.95L3168.26 6379.71C3174.33 6378.26 3180.67 6378.25 3186.75 6379.68L3310.88 6408.99C3317.83 6410.63 3324.22 6414.11 3329.38 6419.06L3389.89 6477.12C3393.6 6480.67 3397.95 6483.48 3402.71 6485.39L3596.5 6563L3712 6620L3835.5 6696.5L3984.59 6812.14C3989.14 6815.67 3992.88 6820.14 3995.54 6825.25L4023.69 6879.2C4026.2 6884.02 4029.67 6888.27 4033.88 6891.7L4103.04 6948.08C4105.01 6949.69 4106.82 6951.48 4108.45 6953.43L4210.23 7075.19C4212.07 7077.39 4214.14 7079.39 4216.41 7081.14L4301.81 7147.38C4310.55 7154.16 4321.69 7157.02 4332.61 7155.28L4373.11 7148.84C4384.48 7147.04 4394.52 7140.41 4400.66 7130.67L4480.4 7004.21C4482.78 7000.43 4484.52 6996.28 4485.53 6991.92L4502.59 6918.44C4503.19 6915.82 4504.06 6913.27 4505.18 6910.82L4563.18 6784.26C4565.37 6779.47 4568.49 6775.16 4572.36 6771.58L4628.82 6719.27C4632.57 6715.79 4635.62 6711.62 4637.81 6706.99L4668 6643L4706.39 6570.11C4713.23 6557.1 4712.4 6541.39 4704.22 6529.19L4662.71 6467.29C4661.24 6465.1 4659.99 6462.77 4658.98 6460.34L4608.34 6338.23C4607.45 6336.08 4606.37 6334.01 4605.12 6332.05L4519.08 6197.05C4517.37 6194.36 4515.34 6191.88 4513.04 6189.68L4455.5 6134.5L4407.8 6092.87C4400.52 6086.5 4391.17 6083 4381.5 6083H4358.28C4349.66 6083 4341.27 6080.21 4334.36 6075.06L4186.41 5964.66C4181.86 5961.26 4176.63 5958.87 4171.07 5957.65L3981.5 5916L3823.02 5885.28C3820.35 5884.76 3817.73 5883.97 3815.22 5882.92L3554.45 5774.07C3551.17 5772.7 3547.71 5771.77 3544.18 5771.31L3327.17 5743.23C3323.41 5742.75 3319.74 5741.73 3316.27 5740.21L3198.81 5688.83C3195.29 5687.28 3191.56 5686.26 3187.74 5685.78L3159.81 5682.29C3144.46 5680.37 3129.84 5689.42 3124.72 5704.02L3119.82 5717.96C3118.13 5722.78 3113.58 5726 3108.48 5726C3100.63 5726 3094.89 5718.6 3096.83 5711L3106.55 5672.94C3109.09 5663.03 3107.72 5652.52 3102.74 5643.58L3056.28 5560.16C3051.89 5552.29 3044.97 5546.12 3036.64 5542.67L2956.25 5509.38C2943.63 5504.16 2929.23 5505.73 2918.03 5513.55Z" fill="#0B3533"/>
<path d="M1371 7354L1284.81 7273.43C1272.11 7261.55 1268.54 7242.84 1275.96 7227.12L1280.38 7217.76C1288.12 7201.39 1305.89 7192.25 1323.71 7195.49L1343.17 7199.03C1346.71 7199.67 1350.14 7200.79 1353.38 7202.35L1453.82 7250.76C1457.58 7252.58 1461.04 7254.97 1464.06 7257.85L1580.93 7369.31C1591.93 7379.8 1608.91 7380.79 1621.05 7371.63C1628.31 7366.16 1637.62 7364.14 1646.5 7366.12L1682.01 7374.05C1689.2 7375.65 1695.8 7379.21 1701.1 7384.33L1759.16 7440.47C1765.23 7446.34 1773 7450.14 1781.37 7451.32L1856.34 7461.91C1859.11 7462.3 1861.82 7462.98 1864.45 7463.94L1999.96 7513.35C2002.98 7514.44 2005.85 7515.9 2008.51 7517.69L2053.63 7547.89C2059.12 7551.57 2063.62 7556.56 2066.72 7562.41L2106.82 7638.11C2112.32 7648.5 2112.98 7660.8 2108.6 7671.72L2076.19 7752.57C2071.65 7763.9 2062.18 7772.53 2050.49 7776.02L1924.71 7813.52C1914.05 7816.7 1902.56 7815.29 1892.98 7809.65L1674.29 7680.85C1667.26 7676.72 1661.67 7670.53 1658.26 7663.13L1599.6 7535.84C1593.75 7523.14 1581.04 7515 1567.05 7515C1558.32 7515 1549.89 7511.81 1543.34 7506.04L1371 7354Z" fill="#0B3533"/>
<path d="M1041.88 7852.15L995.603 7778.95C991.469 7772.41 990.814 7764.25 993.853 7757.13C1000.52 7741.52 1021.03 7737.89 1032.65 7750.27L1043.51 7761.85C1045.17 7763.61 1047 7765.19 1048.99 7766.56L1083.03 7790.04C1087.3 7792.99 1092.11 7795.07 1097.17 7796.18L1136.1 7804.72C1142.91 7806.21 1149.22 7809.47 1154.39 7814.15L1198.6 7854.21C1206.24 7861.13 1210.91 7870.74 1211.63 7881.03L1212.4 7891.81C1213.61 7908.95 1202.27 7924.45 1185.57 7928.48C1176.26 7930.73 1166.44 7929.08 1158.37 7923.93L1084.39 7876.63C1081.15 7874.55 1077.62 7872.96 1073.92 7871.89L1064.61 7869.21C1055.2 7866.5 1047.11 7860.43 1041.88 7852.15Z" fill="#0B3533"/>
<path d="M1459.53 6462.88L1486.33 6526.54C1487.44 6529.17 1488.26 6531.92 1488.79 6534.73L1498.35 6585.99C1498.78 6588.33 1499.42 6590.62 1500.27 6592.84L1533.17 6679.63C1536.9 6689.45 1544.46 6697.33 1554.12 6701.44C1563.93 6705.63 1571.58 6713.69 1575.23 6723.71L1587.73 6757.95C1592 6769.64 1601.47 6778.68 1613.35 6782.4L1623.69 6785.65C1631.7 6788.15 1638.71 6793.11 1643.74 6799.82L1668.22 6832.46C1672.65 6838.37 1678.63 6842.94 1685.5 6845.66L1747 6870L2024.35 6979.88C2030.36 6982.26 2036.86 6983.14 2043.29 6982.47L2139.13 6972.33C2144.33 6971.78 2149.58 6972.26 2154.59 6973.73L2296.72 7015.39C2299.23 7016.13 2301.81 7016.62 2304.42 7016.85L2395.41 7024.97C2402.98 7025.64 2410.2 7028.46 2416.23 7033.09L2463.94 7069.77C2474.32 7077.75 2487.94 7080.14 2500.41 7076.19L2506.82 7074.15C2516.27 7071.16 2526.49 7071.78 2535.51 7075.89L2646.48 7126.48C2650.14 7128.15 2654.03 7129.26 2658.02 7129.77L2868.97 7156.61C2870.99 7156.87 2872.98 7157.28 2874.94 7157.84L3025.22 7200.92C3027.73 7201.64 3030.17 7202.6 3032.49 7203.8L3090.38 7233.57C3105.93 7241.56 3124.86 7238.54 3137.14 7226.11L3192.56 7170C3195.5 7167.02 3198.89 7164.52 3202.61 7162.59L3228.43 7149.22C3235.01 7145.81 3240.52 7140.63 3244.33 7134.28L3284.94 7066.6C3287.92 7061.63 3292.22 7057.57 3297.35 7054.88C3310.1 7048.18 3316.71 7033.71 3313.44 7019.68L3281.16 6881.4C3279.42 6873.96 3275.59 6867.17 3270.11 6861.83L3174.7 6768.98C3169.34 6763.77 3162.64 6760.16 3155.33 6758.56C3093.34 6745.01 2989.6 6722 2996 6722C3002.25 6722 2953.53 6699.2 2922.31 6685.03C2917.16 6682.69 2911.57 6681.5 2905.91 6681.5H2826.08C2821.07 6681.5 2816.11 6680.56 2811.44 6678.72L2708.2 6638.12C2702.16 6635.74 2695.63 6634.87 2689.18 6635.58L2645.28 6640.42C2638.86 6641.13 2632.35 6640.27 2626.33 6637.92L2300.5 6510.5L2217.07 6481.51C2202.9 6476.59 2192.68 6464.17 2190.59 6449.32L2190.08 6445.74C2188.74 6436.23 2184.02 6427.52 2176.79 6421.21L2036.13 6298.3C2034.38 6296.77 2032.77 6295.09 2031.31 6293.28L1980.32 6230C1978.44 6227.67 1976.32 6225.57 1973.98 6223.72L1865.21 6137.72C1862.09 6135.25 1858.61 6133.27 1854.9 6131.82L1678.46 6063.18C1672.25 6060.77 1665.54 6059.94 1658.93 6060.78L1557.63 6073.64C1545.83 6075.13 1535.31 6081.81 1528.92 6091.84L1474.69 6177.05C1470.96 6182.92 1468.82 6189.65 1468.49 6196.59L1456.44 6445.42C1456.15 6451.4 1457.21 6457.36 1459.53 6462.88Z" fill="#0B3533"/>
<path d="M733.931 6206.31L742.206 6194.16C748.158 6185.41 757.332 6179.38 767.721 6177.38L774.071 6176.16C784.583 6174.14 795.466 6176.41 804.286 6182.48L816.847 6191.11C825.589 6197.12 836.36 6199.41 846.792 6197.48L848.708 6197.13C854.498 6196.06 860.453 6196.28 866.148 6197.77L919.658 6211.82C929.547 6214.41 939.686 6208.57 942.406 6198.72C944.3 6191.85 949.934 6186.66 956.933 6185.33L1016.03 6174.13C1019.99 6173.38 1024.03 6173.23 1028.03 6173.69L1072.66 6178.8C1082.23 6179.9 1091.08 6184.41 1097.59 6191.51L1108.84 6203.78C1116.28 6211.9 1120.05 6222.73 1119.24 6233.72L1117.12 6262.8C1116.11 6276.6 1108.04 6288.9 1095.77 6295.32L1074.53 6306.44C1066.42 6310.69 1057.11 6312.02 1048.14 6310.23L1017.4 6304.08C1015.47 6303.69 1013.57 6303.17 1011.72 6302.5L979.706 6291C969.069 6287.18 960.545 6279.04 956.241 6268.59L954.737 6264.93C949.06 6251.15 936.187 6241.66 921.337 6240.32L853.033 6234.17C846.032 6233.54 840 6239.06 840 6246.09C840 6250.88 837.132 6255.22 832.715 6257.09L781.072 6279.02C772.028 6282.86 761.865 6283.14 752.627 6279.79C737.245 6274.21 727 6259.6 727 6243.24V6228.82C727 6220.79 729.415 6212.95 733.931 6206.31Z" fill="#0B3533"/>
<path d="M5409.03 6240.5H5379.85C5360.54 6240.5 5343.98 6226.69 5340.51 6207.69L5338.7 6197.83C5337.6 6191.79 5334.47 6186.31 5329.82 6182.31C5318.02 6172.14 5317.32 6154.1 5328.28 6143.04L5363.86 6107.15C5365.29 6105.72 5366.81 6104.4 5368.44 6103.19L5423.99 6061.97C5426.65 6060 5429.55 6058.36 5432.61 6057.1L5488.94 6033.93C5495.21 6031.35 5500.72 6027.22 5504.96 6021.93L5517.49 6006.26C5529.76 5990.92 5525.96 5968.33 5509.35 5957.85C5502.37 5953.44 5494 5951.82 5485.88 5953.3L5363.97 5975.5C5356.8 5976.81 5350.11 5980.06 5344.64 5984.89L5240.94 6076.6C5235.11 6081.75 5227.9 6085.1 5220.19 6086.22L5176.48 6092.57C5174.5 6092.85 5172.49 6092.87 5170.51 6092.61L5154.69 6090.56C5139.3 6088.56 5130.02 6107.11 5140.85 6118.23C5143.83 6121.29 5145.5 6125.39 5145.5 6129.66V6135.89C5145.5 6146.01 5140.67 6155.53 5132.49 6161.5L5121.25 6169.7C5106.19 6180.7 5085.51 6179.82 5071.43 6167.58L5070.2 6166.52C5059.81 6157.48 5045.5 6154.43 5032.33 6158.44L4994.26 6170.01C4984.76 6172.9 4976.68 6179.22 4971.58 6187.74L4956.41 6213.08C4946.81 6229.12 4949.6 6249.66 4963.12 6262.56L4985.26 6283.68C4997.41 6295.28 5001.02 6313.24 4994.3 6328.64L4982.25 6356.2C4980.43 6360.37 4979.33 6364.82 4979.01 6369.35L4972.71 6457.05C4972.57 6459.01 4972.6 6460.98 4972.81 6462.94L4977.08 6503.48C4978.1 6513.19 4989.62 6517.74 4997 6511.36C5001.79 6507.21 5008.97 6507.47 5013.45 6511.95L5027.84 6526.34C5033.44 6531.94 5040.81 6535.4 5048.7 6536.14L5080.09 6539.06C5090 6539.99 5099.91 6537.18 5107.87 6531.19L5124.65 6518.54C5130.76 6513.94 5138.05 6511.19 5145.67 6510.61L5220.6 6504.87C5228.05 6504.3 5235.51 6505.83 5242.14 6509.29L5277.52 6527.74C5292.26 6535.42 5310.21 6533.19 5322.62 6522.14L5363.52 6485.71C5365.17 6484.24 5366.94 6482.91 5368.81 6481.73L5418.81 6450.27C5430.44 6442.94 5437.5 6430.16 5437.5 6416.41V6366.95C5437.5 6363.99 5437.83 6361.04 5438.48 6358.16L5452.71 6295.01C5455.42 6283.01 5452.45 6270.43 5444.67 6260.91L5440 6255.19C5432.41 6245.89 5421.03 6240.5 5409.03 6240.5Z" fill="#0B3533"/>
<path d="M822.001 5372C821.45 5368.7 836.797 5355.9 851.802 5344.38C863.222 5335.62 878.577 5334.23 891.648 5340.26L968.662 5375.81C972.529 5377.59 976.087 5379.98 979.2 5382.89L1037.17 5437.02C1040.69 5440.31 1043.59 5444.22 1045.73 5448.54L1075.26 5508.34C1080.2 5518.32 1080.74 5529.91 1076.77 5540.32L1054.69 5598.13C1052.59 5603.64 1049.29 5608.62 1045.04 5612.71L984.228 5671.15C977.917 5677.22 969.791 5681.04 961.096 5682.05L890.171 5690.23C885.754 5690.74 881.454 5691.98 877.446 5693.91L852.898 5705.69C840.786 5711.5 826.566 5710.85 815.04 5703.95L755.78 5668.46C753.598 5667.16 751.546 5665.65 749.651 5663.95L697.963 5617.68C687.447 5608.27 682.669 5594.01 685.393 5580.16L702.024 5495.59C703.634 5487.4 707.765 5479.92 713.837 5474.2L748 5442C773 5420.67 822.801 5376.8 822.001 5372Z" fill="#0B3533"/>
<path d="M6265.25 4208.64L6240.74 4183.87C6233.23 4176.27 6222.99 4172 6212.3 4172H6209.53C6201.06 4172 6192.81 4174.69 6185.97 4179.67L6165.83 4194.34C6162.96 4196.44 6160.37 4198.91 6158.15 4201.69L6141.95 4221.94C6137.77 4227.16 6135.5 4233.64 6135.5 4240.32V4243.97C6135.5 4252.87 6140.53 4261.02 6148.5 4265C6156.47 4268.98 6161.5 4277.13 6161.5 4286.03V4291.87C6161.5 4307.63 6150.34 4321.18 6134.87 4324.21L6111.16 4328.84C6101.33 4330.76 6093.55 4338.29 6091.3 4348.05C6089 4358.01 6092.9 4368.39 6101.21 4374.36L6102.6 4375.36C6110.87 4381.31 6115.25 4391.28 6114.04 4401.39L6108.02 4451.75C6106.41 4465.18 6116.9 4477 6130.43 4477C6142.89 4477 6153 4487.11 6153 4499.57V4524.85C6153 4529.89 6151.86 4534.85 6149.66 4539.38L6148.56 4541.63C6141.29 4556.58 6147.27 4574.6 6162.03 4582.24C6171.35 4587.07 6177.55 4596.34 6178.46 4606.8L6180.4 4629.08C6180.8 4633.66 6181.98 4638.14 6183.9 4642.32L6215.06 4710.11C6217.01 4714.34 6219.67 4718.19 6222.94 4721.5L6241.42 4740.23C6250.56 4749.49 6263.63 4753.73 6276.47 4751.59L6311.45 4745.76C6316.44 4744.93 6321.22 4743.16 6325.55 4740.54L6411.97 4688.33C6413.99 4687.11 6416.1 4686.08 6418.3 4685.23L6421.48 4684.01C6433.71 4679.3 6442.86 4668.91 6445.97 4656.19L6460.33 4597.53C6462.88 4587.14 6471.2 4579.16 6481.69 4577.06L6486.8 4576.04C6490.15 4575.37 6493.63 4575.96 6496.57 4577.69L6497.68 4578.34C6506.45 4583.5 6517.5 4577.18 6517.5 4567.01C6517.5 4562.91 6519.41 4559.04 6522.67 4556.55L6542.18 4541.66C6555.33 4531.62 6560.94 4514.53 6556.3 4498.65L6547.5 4468.5L6536.82 4442.62C6535.28 4438.9 6533.19 4435.42 6530.61 4432.32L6521.16 4420.95C6512.63 4410.67 6499.52 4405.33 6486.23 4406.73L6479.69 4407.41C6469.91 4408.43 6460.09 4405.82 6452.12 4400.07L6438.97 4390.58C6430.05 4384.14 6424.18 4374.33 6422.72 4363.43L6415 4305.5L6403.47 4261.94C6399.52 4247.01 6387.33 4235.69 6372.15 4232.85L6335.5 4226L6288.76 4220.21C6279.85 4219.1 6271.56 4215.03 6265.25 4208.64Z" fill="#0B3533"/>
<path d="M7423.33 2905.46L7334.95 2897.71C7322.67 2896.63 7311.58 2889.96 7304.88 2879.62L7291.72 2859.33C7288.03 2853.64 7286.52 2846.8 7287.47 2840.08C7289.86 2823.14 7276.71 2808 7259.6 2808H7209.77C7205.73 2808 7201.82 2806.53 7198.79 2803.87C7192.37 2798.26 7182.75 2798.39 7176.49 2804.18L7154.5 2824.5L7097.5 2873.5L7022.87 2936.25C7020.3 2938.41 7017.47 2940.24 7014.44 2941.69L6938.71 2978.06C6933.31 2980.65 6927.39 2982 6921.39 2982H6864.34C6853.87 2982 6843.81 2977.89 6836.33 2970.56L6810.62 2945.34C6801.72 2936.62 6797.4 2924.24 6798.93 2911.88L6799.86 2904.32C6801.22 2893.27 6807.13 2883.3 6816.15 2876.79L6855.41 2848.45C6858.12 2846.49 6861.08 2844.88 6864.2 2843.66L6900.48 2829.41C6908.61 2826.23 6915.46 2820.47 6920.01 2813.03L6948.29 2766.71C6951.39 2761.63 6953.32 2755.93 6953.94 2750.02L6963.68 2656.8C6964.22 2651.72 6963.16 2646.61 6960.65 2642.17L6946.41 2616.87C6943.54 2611.79 6947.22 2605.5 6953.05 2605.5C6958.5 2605.5 6962.19 2599.96 6960.1 2594.94L6958.12 2590.18C6957.39 2588.42 6956.21 2586.88 6954.71 2585.71L6930.33 2566.71C6925.51 2562.95 6921.61 2558.14 6918.94 2552.64L6908.97 2532.11C6902.01 2517.78 6904.22 2500.67 6914.6 2488.58L6934.26 2465.69C6938.04 2461.28 6942.74 2457.75 6948.02 2455.35L7009.11 2427.5C7015.59 2424.56 7022.73 2423.38 7029.81 2424.11L7069.85 2428.25C7077.77 2429.06 7085.27 2432.23 7091.38 2437.33L7128.13 2468.01C7137.24 2475.61 7142.5 2486.86 7142.5 2498.72V2548.5V2638.23C7142.5 2645.28 7144.37 2652.21 7147.91 2658.31L7187.5 2726.5L7193.17 2736.59C7199.55 2747.96 7211.57 2755 7224.61 2755C7227.53 2755 7230.43 2755.35 7233.26 2756.05L7264.34 2763.74C7271.63 2765.54 7279.29 2765.26 7286.43 2762.91L7303.55 2757.28C7308.15 2755.77 7312.43 2753.44 7316.19 2750.41L7344.38 2727.65C7349.39 2723.61 7355.29 2720.84 7361.6 2719.56L7412.05 2709.4C7415.01 2708.8 7417.89 2707.87 7420.64 2706.63L7469.69 2684.43C7479.48 2680 7490.64 2679.69 7500.66 2683.58L7522.93 2692.23C7525.97 2693.4 7528.85 2694.95 7531.51 2696.82L7556.8 2714.66C7563.12 2719.11 7567.92 2725.39 7570.58 2732.65C7572.82 2738.78 7576.61 2744.23 7581.57 2748.47L7609.28 2772.14C7617.42 2779.09 7622.43 2789.01 7623.2 2799.68L7624.73 2820.98C7625.82 2836.02 7618.35 2850.39 7605.42 2858.15L7574.08 2876.95C7569.09 2879.95 7563.5 2881.82 7557.71 2882.43L7514.5 2887L7435.55 2904.65C7431.54 2905.54 7427.42 2905.82 7423.33 2905.46Z" fill="#0B3533"/>
<path d="M1550.5 3795.57V3787.71C1550.5 3777.99 1543.65 3769.6 1534.12 3767.66C1528.91 3766.59 1523.49 3767.6 1519.01 3770.46L1505.55 3779.07C1495.68 3785.37 1483.55 3787.03 1472.35 3783.62L1452.39 3777.53C1450.14 3776.85 1447.82 3776.36 1445.48 3776.08L1413.09 3772.21C1406.47 3771.41 1400.15 3768.98 1394.71 3765.12L1361.89 3741.87C1355.13 3737.07 1347.05 3734.5 1338.76 3734.5H1311.25C1303.14 3734.5 1295.41 3731.04 1290 3725C1284.59 3718.96 1276.86 3715.5 1268.75 3715.5H1262.44C1253.67 3715.5 1245.74 3720.71 1242.25 3728.75C1238.76 3736.79 1230.83 3742 1222.06 3742H1214.78C1203.95 3742 1193.81 3747.29 1187.62 3756.17L1152.16 3807.01C1147.59 3813.56 1147.76 3822.32 1152.58 3828.69C1157.79 3835.59 1157.51 3845.19 1151.91 3851.77L1135.53 3871.03C1133.85 3873 1132.36 3875.14 1131.09 3877.4L1107.82 3918.96C1105.95 3922.3 1104.57 3925.9 1103.72 3929.64L1085.28 4010.79C1083.47 4018.74 1079.27 4025.95 1073.26 4031.45L1049.01 4053.61C1040.72 4061.18 1036 4071.9 1036 4083.13V4096.08C1036 4101.63 1034.84 4107.12 1032.6 4112.21L1013.6 4155.32C1011.23 4160.71 1010.08 4166.55 1010.22 4172.44L1014.33 4339.01C1014.44 4343.63 1015.36 4348.21 1017.04 4352.52L1044.37 4422.8C1045.45 4425.59 1046.22 4428.5 1046.66 4431.46L1051.07 4461.41C1052.32 4469.91 1056.28 4477.78 1062.36 4483.86L1100.49 4521.99C1102.82 4524.32 1104.85 4526.93 1106.54 4529.76L1121.83 4555.34C1126.17 4562.6 1132.68 4568.29 1140.45 4571.61L1174.84 4586.31C1184.85 4590.58 1196.16 4590.6 1206.18 4586.35L1226.02 4577.94C1242.08 4571.13 1251.88 4554.69 1250.23 4537.33L1240.5 4435V4392.31C1240.5 4386.51 1239.24 4380.77 1236.8 4375.51L1215.5 4329.5L1192.4 4259.07C1187.84 4245.16 1191.24 4229.86 1201.27 4219.2L1242.55 4175.3C1246.15 4171.47 1248.96 4166.97 1250.82 4162.06L1261.77 4133.13C1265.45 4123.42 1272.75 4115.53 1282.14 4111.11L1326.55 4090.19C1333.06 4087.12 1338.63 4082.35 1342.66 4076.38L1359.73 4051.08C1362.23 4047.39 1365.32 4044.13 1368.89 4041.46L1387.23 4027.7C1391.37 4024.6 1396.07 4022.32 1401.08 4021.01L1454.72 4006.93C1460.82 4005.33 1466.45 4002.31 1471.16 3998.12L1504.96 3968.04C1507.97 3965.36 1511.36 3963.15 1515.03 3961.49L1552.34 3944.56C1559.61 3941.26 1565.73 3935.86 1569.91 3929.06L1586.83 3901.48C1589.26 3897.52 1590.98 3893.18 1591.92 3888.63L1597.3 3862.54C1599.31 3852.75 1596.65 3842.57 1590.09 3835.03L1585.59 3829.85C1582.36 3826.14 1577.67 3824 1572.74 3824C1566.98 3824 1561.6 3821.08 1558.46 3816.25L1555.09 3811.07C1552.1 3806.45 1550.5 3801.07 1550.5 3795.57Z" fill="#0B3533"/>
<path d="M2185 852.5L2156.81 814.358C2153.01 809.224 2147.84 805.268 2141.9 802.948C2134.53 800.074 2126.39 799.869 2118.89 802.369L2094.85 810.384C2092.62 811.127 2090.33 811.672 2088.01 812.013L2025.25 821.229C2021.77 821.741 2018.36 822.711 2015.13 824.115L1935.89 858.53C1933.63 859.508 1931.48 860.691 1929.44 862.065L1907.53 876.853C1897.98 883.302 1891.67 893.558 1890.23 904.994L1889.33 912.062C1887.58 925.985 1878.65 937.968 1865.81 943.639L1794.42 975.178C1787.29 978.324 1779.41 979.323 1771.73 978.053L1723.24 970.036C1721.08 969.679 1718.9 969.5 1716.72 969.5H1697.74C1689.76 969.5 1681.97 971.884 1675.36 976.346L1660.96 986.066C1651.16 992.68 1644.79 1003.29 1643.56 1015.05L1639.9 1049.96C1639.31 1055.59 1637.53 1061.03 1634.68 1065.92L1598.43 1128.17C1594.87 1134.28 1593 1141.23 1593 1148.3V1188.04C1593 1191.66 1592.51 1195.27 1591.54 1198.76L1577 1251L1511.5 1411L1475.89 1473.87C1472.68 1479.54 1468.13 1484.34 1462.65 1487.85L1423.53 1512.88C1421.85 1513.96 1420.24 1515.16 1418.74 1516.48L1348.39 1578.09C1345.81 1580.35 1342.94 1582.28 1339.87 1583.81L1238.74 1634.15C1233 1637.01 1228.03 1641.21 1224.25 1646.39L1187.93 1696.18C1183.72 1701.96 1181.13 1708.75 1180.44 1715.86L1179.74 1722.98C1178.1 1739.79 1187.18 1755.82 1202.45 1763.04L1233 1777.49C1244.34 1782.85 1257.53 1782.58 1268.64 1776.77L1285.29 1768.06C1291.01 1765.06 1297.37 1763.5 1303.83 1763.5H1315.51C1322.07 1763.5 1328.53 1761.89 1334.31 1758.81L1393.69 1727.19C1399.47 1724.11 1405.93 1722.5 1412.49 1722.5H1435.89C1438.62 1722.5 1441.35 1722.22 1444.02 1721.66L1513.2 1707.3C1524.8 1704.89 1534.73 1697.47 1540.33 1687.02L1541.38 1685.05C1544.73 1678.8 1549.69 1673.55 1555.74 1669.84L1587.05 1650.64C1590.99 1648.23 1594.48 1645.16 1597.36 1641.56L1641.7 1586.24C1644.22 1583.1 1646.25 1579.59 1647.72 1575.84L1663.1 1536.65C1665.34 1530.96 1668.85 1525.86 1673.37 1521.73L1690.92 1505.7C1697.46 1499.74 1701.83 1491.77 1703.35 1483.06L1715 1416.5L1728.74 1350.73C1730.53 1342.15 1735.09 1334.39 1741.72 1328.66L1775.74 1299.21C1780.83 1294.81 1784.73 1289.19 1787.07 1282.88L1792.03 1269.5C1793.99 1264.23 1797.04 1259.42 1800.97 1255.41L1842.07 1213.5C1844.35 1211.18 1846.9 1209.14 1849.68 1207.43L1929.67 1158.24C1931.56 1157.08 1933.53 1156.08 1935.57 1155.25L2008.04 1125.81C2011 1124.61 2014.1 1123.76 2017.26 1123.3L2069.56 1115.6C2074.48 1114.87 2079.22 1113.24 2083.54 1110.77L2124.06 1087.67C2128.32 1085.24 2132.98 1083.62 2137.83 1082.88L2154.22 1080.38C2162.22 1079.15 2169.66 1075.53 2175.56 1069.99L2194.88 1051.85C2202.93 1044.29 2207.5 1033.74 2207.5 1022.69V990.085C2207.5 983.465 2209.14 976.949 2212.28 971.121L2221.73 953.577C2226.11 945.444 2227.54 936.046 2225.77 926.978L2220.24 898.528C2218.78 891.001 2215.18 884.054 2209.88 878.514L2185 852.5Z" fill="#0B3533"/>
<path d="M1833.27 2557L1753.01 2543.38C1743.95 2541.84 1734.63 2543.47 1726.63 2547.99L1639.5 2597.26C1634.56 2600.05 1630.27 2603.87 1626.91 2608.45L1599.27 2646.22C1597.43 2648.73 1595.3 2651.02 1592.94 2653.04L1574.56 2668.7C1568.96 2673.47 1564.79 2679.7 1562.5 2686.69L1559.67 2695.34C1557.59 2701.68 1553.96 2707.4 1549.11 2711.98L1521 2738.5L1486.99 2771.66C1483.04 2775.51 1479.93 2780.14 1477.85 2785.26L1469.26 2806.42C1467.76 2810.12 1465.72 2813.57 1463.2 2816.66L1409.5 2882.5L1388.1 2905.81C1380.4 2914.2 1376.64 2925.48 1377.77 2936.81L1382.51 2984.57C1383.16 2991.09 1385.4 2997.35 1389.04 3002.8L1404.79 3026.43C1407.89 3031.09 1409.99 3036.35 1410.93 3041.87L1412.71 3052.24C1414.78 3064.39 1422.35 3074.91 1433.22 3080.74L1495.64 3114.24C1501.46 3117.37 1507.95 3119 1514.56 3119H1582.42C1587.43 3119 1592.39 3118.06 1597.05 3116.23L1624.55 3105.43C1629.47 3103.49 1633.95 3100.61 1637.75 3096.93L1711 3026L1759.23 2976.86C1762.39 2973.64 1764.98 2969.92 1766.89 2965.83L1804.63 2885.41C1805.54 2883.47 1806.61 2881.61 1807.81 2879.84L1855.29 2810.33C1859.66 2803.93 1862 2796.35 1862 2788.59C1862 2781.35 1864.04 2774.24 1867.9 2768.1L1898.54 2719.27C1904.27 2710.15 1906.07 2699.09 1903.54 2688.62L1884.65 2610.41C1883.24 2604.55 1880.51 2599.08 1876.68 2594.41L1857.48 2571.05C1851.37 2563.6 1842.77 2558.61 1833.27 2557Z" fill="#0B3533"/>
<path fill-rule="evenodd" clip-rule="evenodd" d="M7211.82 613.942C7200.8 616.842 7189.07 614.905 7179.56 608.617L7168.23 601.119C7163.19 597.78 7157.27 596 7151.22 596C7145.52 596 7139.93 597.583 7135.07 600.572L7133.07 601.799C7126.61 605.777 7118.86 607.091 7111.44 605.463C7105.62 604.185 7099.54 604.714 7094.03 606.981L7074.59 614.968C7068.95 617.285 7063.99 620.988 7060.17 625.733C7055.81 631.131 7050 635.166 7043.42 637.358L7025.19 643.437C7018.2 645.767 7011.99 649.983 7007.24 655.619L6994.79 670.405C6991.95 673.779 6989.68 677.598 6988.09 681.71L6974.65 716.364C6972.57 721.725 6969.36 726.575 6965.24 730.583L6946.05 749.24C6939.3 755.799 6935.5 764.809 6935.5 774.218C6935.5 784.249 6939.82 793.793 6947.36 800.407L6954.1 806.321C6960.53 811.958 6968.59 815.388 6977.11 816.108L6999.5 818H7029.51C7035.43 818 7041.27 816.686 7046.62 814.154L7115.38 781.606C7120.4 779.232 7125.88 778 7131.43 778C7141.1 778 7150.4 774.264 7157.38 767.572L7159.96 765.102C7166.77 758.578 7171.05 749.859 7172.05 740.483L7178.33 681.938C7179.09 674.779 7181.78 667.96 7186.1 662.199L7191.47 655.038C7195.43 649.761 7200.63 645.545 7206.61 642.765L7224.98 634.227C7230.26 631.772 7236.02 630.5 7241.84 630.5H7285.11C7288.69 630.5 7292.25 630.98 7295.7 631.927L7299.08 632.856C7309.86 635.816 7318.91 643.154 7324.04 653.093L7338.81 681.728C7339.93 683.905 7341.25 685.974 7342.75 687.909L7370.73 723.977C7377.88 733.196 7388.7 738.833 7400.36 739.411L7437.28 741.245C7447.08 741.731 7456.36 745.803 7463.36 752.686L7469.64 758.869C7478.67 767.758 7482.94 780.507 7481.18 793.055C7480.09 800.806 7476.74 808.129 7471.56 814L7449.44 839.094C7447.16 841.687 7445.22 844.565 7443.67 847.657L7436.59 861.814C7433.9 867.202 7430.02 871.911 7425.25 875.592L7342.52 939.443C7341.18 940.473 7339.67 941.253 7338.06 941.746L7331.18 943.852C7324.27 945.969 7317.57 939.997 7318.89 932.887C7319.99 926.965 7315.44 921.5 7309.42 921.5H7284C7281.67 921.5 7279.35 921.764 7277.08 922.288L7228.39 933.526C7224.16 934.502 7220.11 936.16 7216.42 938.435L7123.94 995.344C7120.01 997.763 7115.69 999.484 7111.17 1000.43L7067.5 1009.57C7058.9 1011.37 7052 1017.81 7049.61 1026.27C7048.55 1030.03 7046.58 1033.47 7043.86 1036.28L7022.44 1058.43C7019.82 1061.13 7016.84 1063.45 7013.58 1065.32L6919.39 1119.34C6915.16 1121.76 6910.53 1123.39 6905.73 1124.15L6900.25 1125.01C6896.12 1125.67 6892.14 1127.07 6888.52 1129.17L6873.84 1137.65C6872.39 1138.49 6871.5 1140.03 6871.5 1141.7C6871.5 1144.68 6874.25 1146.9 6877.17 1146.27L6880.75 1145.5C6885.51 1144.47 6890 1148.1 6890 1152.96V1154C6890 1157.79 6887.35 1161.07 6883.65 1161.87L6877.82 1163.13C6873.88 1163.99 6869.78 1162.78 6866.93 1159.93C6863.37 1156.38 6857.97 1155.45 6853.43 1157.61L6821.1 1173.04C6818.38 1174.34 6815.89 1176.06 6813.72 1178.14C6808.44 1183.18 6801.43 1186 6794.13 1186H6791.58C6784.68 1186 6777.94 1188.06 6772.22 1191.91L6742.96 1211.6C6734.03 1217.61 6727.9 1226.97 6725.96 1237.56L6725.81 1238.37C6724.94 1243.08 6723.23 1247.61 6720.77 1251.72L6718.39 1255.68C6715.49 1260.51 6711.61 1264.67 6707 1267.89L6607.59 1337.34C6602.28 1341.06 6597.94 1346.01 6594.97 1351.77L6586.89 1367.4C6584.98 1371.11 6583.65 1375.1 6582.97 1379.22L6571 1451.5L6568.84 1466.32C6567.64 1474.57 6563.9 1482.23 6558.13 1488.25L6540.04 1507.12C6534.79 1512.59 6531.2 1519.45 6529.7 1526.88L6524.75 1551.38C6522.67 1561.71 6516.59 1570.79 6507.84 1576.67L6492.99 1586.64C6488.7 1589.52 6485.01 1593.2 6482.13 1597.48L6407.43 1708.2C6403.54 1713.97 6398.22 1718.62 6391.98 1721.7L6372.25 1731.44C6365.55 1734.75 6359.91 1739.86 6355.97 1746.21L6353 1751L6352.79 1751.28C6348.98 1756.35 6346.44 1762.26 6345.36 1768.51L6343.41 1779.88C6342.16 1787.15 6338.92 1793.94 6334.05 1799.48L6320 1815.5L6290.05 1854.13C6287.04 1858.01 6283.34 1861.3 6279.14 1863.85L6242.5 1886L6174.23 1928.49C6169.46 1931.46 6165.37 1935.41 6162.23 1940.06L6132.06 1984.72C6129.7 1988.22 6126.8 1991.32 6123.47 1993.91L6074.5 2032L6056.56 2043.13C6049.68 2047.4 6045.5 2054.92 6045.5 2063.02C6045.5 2068.8 6043.36 2074.38 6039.49 2078.68L5996 2127L5956.51 2174.75C5954.18 2177.57 5952.25 2180.7 5950.77 2184.04L5937.91 2213.05C5936.31 2216.66 5934.18 2220.02 5931.6 2223.01L5864.52 2300.59C5862.84 2302.52 5860.98 2304.3 5858.97 2305.88L5848.65 2313.99C5843.82 2317.78 5841 2323.59 5841 2329.73C5841 2335.9 5838.16 2341.72 5833.3 2345.51L5759.24 2403.3C5756.1 2405.75 5753.34 2408.66 5751.06 2411.93L5674.5 2521.5L5647.93 2552.65C5646.31 2554.54 5644.88 2556.59 5643.64 2558.76L5631.56 2579.9C5630.19 2582.29 5629.07 2584.82 5628.22 2587.45L5583.67 2725.37C5582.89 2727.78 5581.88 2730.12 5580.66 2732.35L5550.96 2786.34C5549.99 2788.11 5549.15 2789.95 5548.45 2791.85L5459.25 3035.23C5458.09 3038.4 5456.53 3041.41 5454.61 3044.18L5440.08 3065.24C5435.47 3071.92 5433 3079.85 5433 3087.96V3116.52C5433 3119.5 5432.67 3122.47 5432.01 3125.37L5403.41 3251.49C5402.8 3254.16 5402.47 3256.88 5402.42 3259.61L5399.55 3417.08C5399.52 3419.02 5399.34 3420.96 5399.02 3422.88L5390.28 3475.74C5389.11 3482.78 5386.08 3489.39 5381.5 3494.87L5318.94 3569.67C5317.65 3571.22 5316.48 3572.86 5315.43 3574.59C5306.74 3588.9 5294.23 3609.42 5284.61 3624.98C5276.27 3638.48 5269.33 3655.88 5267.07 3671.59C5266.18 3677.82 5263.58 3685.17 5259.92 3690.29L5227.68 3735.3C5219.77 3746.33 5206.81 3752.61 5193.25 3751.96L5158.14 3750.27C5147.79 3749.78 5138.03 3745.28 5130.92 3737.73L5106.34 3711.59C5098.79 3703.56 5088.24 3699 5077.21 3699H5050.09C5043.47 3699 5036.95 3700.65 5031.11 3703.79L4976.38 3733.29C4971.84 3735.74 4967.81 3739.05 4964.52 3743.03L4960.54 3747.85C4954.09 3755.66 4944.91 3760.73 4934.87 3762.04L4924.67 3763.37C4919.06 3764.1 4913.37 3762.88 4908.55 3759.92C4904.91 3757.68 4900.75 3756.42 4896.48 3756.27L4807.83 3753.15C4804.95 3753.05 4802.09 3752.64 4799.3 3751.92L4714.89 3730.26C4711.64 3729.42 4708.3 3729 4704.95 3729H4673.52C4668.55 3729 4663.62 3728.07 4658.99 3726.27L4596 3701.73C4591.37 3699.93 4586.45 3699 4581.48 3699H4543.38C4535.94 3699 4528.65 3701.07 4522.32 3704.99L4499.67 3719.01C4493.35 3722.93 4486.06 3725 4478.62 3725H4448.96C4440.53 3725 4432.32 3722.34 4425.5 3717.4L4412.81 3708.21C4408.97 3705.43 4404.66 3703.35 4400.08 3702.07L4377.79 3695.87C4365.65 3692.49 4355.81 3683.58 4351.24 3671.83L4348.19 3664C4345.77 3657.76 4341.82 3652.24 4336.71 3647.93L4267.5 3589.5L4078.79 3414.27C4074 3409.82 4070.38 3404.28 4068.23 3398.11L4050.7 3347.75C4048.92 3342.64 4046.12 3337.94 4042.46 3333.94L3980 3265.5L3933.9 3220.8C3931.64 3218.61 3929.13 3216.69 3926.42 3215.09L3900.72 3199.87C3888.8 3192.82 3881.5 3180.01 3881.5 3166.17C3881.5 3162.74 3881.95 3159.32 3882.84 3156.01L3896.3 3105.92C3898.38 3098.15 3898.08 3089.94 3895.43 3082.35L3879.94 3037.98C3878.32 3033.37 3875.88 3029.09 3872.72 3025.35L3853.77 3002.92C3849.65 2998.05 3846.76 2992.25 3845.33 2986.03L3834.84 2940.18C3834.28 2937.73 3833.49 2935.34 3832.48 2933.04L3785.46 2825.77C3783.5 2821.29 3780.74 2817.22 3777.31 2813.74L3752.07 2788.14C3749.04 2785.07 3746.53 2781.52 3744.63 2777.65L3701.97 2690.55C3700.33 2687.2 3698.23 2684.1 3695.73 2681.33L3685.05 2669.51C3679.18 2663.02 3675.6 2654.78 3674.86 2646.06L3673.92 2634.94C3673.32 2627.78 3670.79 2620.91 3666.61 2615.06L3590.5 2508.5L3548.09 2428.39C3546.37 2425.15 3544.21 2422.15 3541.68 2419.5L3506.56 2382.69C3504.86 2380.9 3503.32 2378.96 3501.97 2376.89L3459.46 2311.52C3458.16 2309.51 3457.03 2307.39 3456.1 2305.17L3439.33 2265.15C3436.81 2259.14 3432.87 2253.84 3427.83 2249.7L3411.11 2235.96C3408.71 2233.99 3406.55 2231.75 3404.67 2229.28L3382 2199.5L3358.44 2158.51C3357.48 2156.84 3356.4 2155.24 3355.21 2153.73L3334.66 2127.57C3331.25 2123.24 3328.78 2118.25 3327.4 2112.92L3324.5 2101.76C3323.5 2097.94 3321.95 2094.29 3319.89 2090.93L3294.89 2050.12C3291.04 2043.83 3289 2036.6 3289 2029.22V1982.19C3289 1978.85 3287.75 1975.63 3285.5 1973.17C3281.38 1968.65 3280.84 1961.93 3284.18 1956.81L3297.48 1936.47C3301.73 1929.97 3304 1922.36 3304 1914.58V1897.23C3304 1891.8 3305.1 1886.43 3307.25 1881.44L3328.5 1832L3346.5 1792.5L3410.96 1688.3C3412.32 1686.1 3413.88 1684.05 3415.63 1682.16L3458.84 1635.5C3465.69 1628.11 3469.5 1618.4 3469.5 1608.32V1596.88C3469.5 1588.5 3472.13 1580.34 3477.01 1573.54L3506.53 1532.44C3508.17 1530.15 3510.05 1528.05 3512.14 1526.15L3555.89 1486.46C3556.91 1485.53 3557.5 1484.21 3557.5 1482.83C3557.5 1480.36 3555.66 1478.27 3553.2 1477.96L3546.04 1477.07C3540.86 1476.42 3536.56 1472.75 3535.1 1467.73L3534.46 1465.52C3532.92 1460.2 3534.14 1454.46 3537.71 1450.22L3548.04 1437.97C3551.34 1434.05 3556.68 1432.52 3561.56 1434.08L3563.48 1434.69C3565.11 1435.21 3566.49 1436.3 3567.39 1437.75C3569.93 1441.85 3575.71 1442.32 3578.88 1438.68L3588.2 1427.98C3589.06 1427 3589.81 1425.92 3590.43 1424.77L3608.72 1390.86C3611.86 1385.05 3616.39 1380.1 3621.91 1376.46L3659 1352L3723.19 1306.41C3726.38 1304.15 3729.88 1302.37 3733.59 1301.12L3765.81 1290.27C3773.11 1287.81 3779.55 1283.29 3784.35 1277.26L3824.88 1226.29C3826.48 1224.28 3826.8 1221.53 3825.71 1219.2C3824.4 1216.43 3825.12 1213.13 3827.46 1211.15L3839.34 1201.09C3841.48 1199.28 3844.59 1199.19 3846.83 1200.87C3849.22 1202.67 3852.57 1202.43 3854.68 1200.32L3880.88 1174.12C3885.23 1169.77 3890.53 1166.48 3896.37 1164.51L3919.46 1156.71C3924.76 1154.92 3929.63 1152.04 3933.74 1148.26L3958.5 1125.5L4009.69 1084.08C4012.22 1082.03 4014.49 1079.69 4016.45 1077.1L4094.17 974.239C4096.05 971.755 4098.21 969.498 4100.61 967.516L4131.58 941.929C4138.95 935.845 4143.89 927.325 4145.52 917.912L4145.73 916.74C4146.89 910.025 4149.75 903.718 4154.03 898.418L4170.81 877.652C4174.88 872.625 4177.66 866.69 4178.93 860.353L4182.18 844.084C4182.72 841.369 4183.55 838.717 4184.64 836.172L4190.21 823.176C4193.26 816.057 4193.17 807.982 4189.97 800.931C4188.34 797.352 4187.5 793.466 4187.5 789.534V788.567C4187.5 779.896 4191.02 771.596 4197.25 765.565L4207.62 755.523C4214.41 748.96 4224.05 746.272 4233.25 748.38L4236.73 749.177C4240.47 750.035 4244.39 749.631 4247.88 748.028L4251.21 746.497C4256.89 743.889 4259.9 737.61 4258.39 731.551C4258.13 730.521 4258 729.463 4258 728.402V728.072C4258 721.683 4261.88 715.935 4267.8 713.544L4282.82 707.486C4285.26 706.498 4287.81 705.757 4290.4 705.274L4325.87 698.675C4328.28 698.226 4330.73 698 4333.19 698H4374.22C4379.68 698 4385.08 696.882 4390.1 694.714L4470.96 659.745C4473.65 658.585 4476.45 657.723 4479.32 657.173L4494.01 654.36C4496.99 653.789 4499.9 652.879 4502.68 651.648L4596.05 610.298C4600.96 608.124 4606.27 607 4611.64 607H4618.85C4626.49 607 4633.69 603.384 4638.25 597.25C4642.81 591.116 4650 587.5 4657.65 587.5H4720.45C4725.16 587.5 4729.55 585.127 4732.13 581.189C4735.35 576.273 4741.31 573.9 4747.03 575.252L4761.08 578.573C4763.68 579.189 4766.35 579.5 4769.03 579.5H4781.65C4784.82 579.5 4787.94 578.648 4790.67 577.033C4795.02 574.467 4800.25 573.871 4805.06 575.396L4813.16 577.967C4816.04 578.88 4818 581.552 4818 584.572V588.25C4818 590.045 4819.45 591.5 4821.25 591.5C4823.04 591.5 4824.5 590.045 4824.5 588.25V585.5C4824.5 582.186 4827.18 579.5 4830.5 579.5H4843.37C4844.45 579.5 4845.54 579.593 4846.6 579.779L4852.08 580.732C4862.29 582.508 4872.79 580.252 4881.37 574.441L4890.68 568.134C4896.14 564.435 4902.43 562.144 4908.99 561.464L4961.86 555.982C4964.83 555.673 4967.8 556.569 4970.1 558.468C4973.14 560.968 4977.27 561.686 4980.97 560.357L4989.93 557.141C4992.95 556.055 4996.14 555.5 4999.36 555.5H5017L5089.79 551.719C5092.59 551.573 5095.36 551.135 5098.07 550.41L5190.39 525.672C5195.71 524.246 5201.3 524.165 5206.67 525.434C5213.7 527.099 5221.08 526.43 5227.69 523.529L5243.36 516.656C5245.12 515.886 5246.93 515.244 5248.77 514.733L5307.5 498.5L5388 482L5454.02 469.535C5457.65 468.848 5461.18 467.661 5464.49 466.006L5512.54 441.979C5517.71 439.392 5523.57 438.5 5529.28 439.429C5537.34 440.742 5545.57 438.408 5551.74 433.06L5551.98 432.848C5555.28 429.988 5559.19 427.934 5563.42 426.849C5586.67 420.89 5623.81 411.5 5626 411.5C5627.93 411.5 5646.71 409.764 5661.16 408.393C5667.29 407.811 5673.48 408.717 5679.19 411.046L5704.23 421.257C5706.7 422.267 5709.55 421.368 5710.99 419.118C5712.21 417.23 5714.44 416.258 5716.65 416.655L5744.16 421.593C5749.34 422.522 5754.64 422.422 5759.78 421.299L5784 416L5813.22 408.694C5816.39 407.901 5819.65 407.5 5822.92 407.5H5887.06C5891.6 407.5 5896.05 406.266 5899.95 403.931C5904.22 401.369 5909.16 400.138 5914.13 400.396L5977.32 403.679C5981.41 403.892 5985.45 404.733 5989.29 406.172L6008.71 413.453C6013.2 415.137 6017.96 416 6022.75 416H6143.5L6183.61 412.495C6191.05 411.845 6198.53 413.292 6205.19 416.673L6218.59 423.472C6225.07 426.762 6232.33 428.223 6239.58 427.698L6304.5 423H6333.38C6338.97 423 6343.5 427.528 6343.5 433.114C6343.5 437.978 6346.96 442.153 6351.74 443.054L6392.71 450.778C6399.05 451.973 6405.05 447.483 6405.69 441.067C6406.51 432.846 6415.77 428.434 6422.67 432.971L6425 434.5L6442.5 448.628C6449.62 454.369 6458.48 457.5 6467.63 457.5H6491.5L6506.71 459.129C6512.31 459.73 6516.4 453.964 6513.99 448.874C6512.14 444.957 6514.13 440.3 6518.25 438.941L6553.8 427.194C6562.04 424.472 6570.94 424.504 6579.17 427.284L6591.18 431.347C6597.3 433.418 6603.83 433.975 6610.22 432.969L6673.5 423L6717.53 419.755C6719.84 419.585 6722.15 419.616 6724.45 419.846L6749.98 422.398C6753.97 422.797 6758 422.593 6761.93 421.794L6807.21 412.583C6812.35 411.539 6817.64 411.575 6822.76 412.687C6832.52 414.809 6842.72 412.977 6851.13 407.594L6855.48 404.814C6860.43 401.644 6866.02 399.605 6871.85 398.842L6939.5 390H6975.54C6986.96 390 6997.84 385.114 7005.43 376.575L7013.28 367.748C7015.96 364.728 7019.81 363 7023.85 363H7030C7034.42 363 7038 359.418 7038 355C7038 350.582 7041.58 347 7046 347H7053.85C7057.81 347 7061.62 348.476 7064.54 351.139L7094 378L7123.19 400.094C7128.32 403.974 7134.31 406.561 7140.65 407.635L7146.04 408.549C7155.37 410.132 7164.97 408.351 7173.12 403.523L7187.5 395L7206.99 382.003C7210.82 379.451 7215.54 378.616 7220.01 379.7L7220.19 379.744C7225.93 381.135 7230.45 385.545 7231.99 391.245C7232.65 393.713 7233.89 395.988 7235.61 397.884L7250.27 414.09C7251.42 415.358 7252.73 416.465 7254.17 417.383C7259.67 420.881 7263 426.946 7263 433.463V490.109C7263 492.697 7263.25 495.279 7263.75 497.818L7272.78 543.811C7273.59 547.912 7273.75 552.113 7273.25 556.263L7270.67 577.879C7270.23 581.596 7269.12 585.205 7267.41 588.535C7263.33 596.469 7256.07 602.297 7247.44 604.567L7211.82 613.942ZM5003.45 760.068C5001.59 753.104 4996.55 747.429 4989.86 744.764L4956.12 731.336C4951.42 729.462 4946.4 728.5 4941.33 728.5H4853.89C4851.3 728.5 4848.72 728.751 4846.18 729.249L4634.82 770.751C4632.28 771.249 4629.7 771.5 4627.11 771.5H4574.65C4565.49 771.5 4556.61 774.64 4549.5 780.396L4437.7 870.796C4434.26 873.579 4431.3 876.915 4428.95 880.666L4404 920.5L4293 1059.5L4240.37 1143.99C4239.12 1145.99 4238.06 1148.1 4237.18 1150.29L4196.86 1251.1C4195.96 1253.36 4195.4 1255.73 4195.2 1258.15C4193.47 1279.65 4218.62 1292.51 4235.03 1278.5L4241.05 1273.36C4243.66 1271.14 4245.83 1268.45 4247.44 1265.43L4264 1234.5L4334.01 1113.3C4335.66 1110.44 4336.95 1107.4 4337.86 1104.22L4347.28 1071.04C4348.42 1067.04 4350.17 1063.24 4352.48 1059.78L4412.62 969.562C4415.51 965.229 4419.22 961.502 4423.54 958.59L4499.06 907.646C4500.68 906.55 4502.39 905.575 4504.15 904.729L4627.08 845.876C4629.68 844.629 4632.42 843.668 4635.23 843.009L4801.5 804.055C4804.49 803.354 4807.55 803 4810.62 803H4944.01C4947.32 803 4950.62 802.589 4953.83 801.777L4978.06 795.642C4984.85 793.925 4990.92 790.111 4995.41 784.745L4998.9 780.572C5003.66 774.884 5005.36 767.235 5003.45 760.068ZM4213.55 1898.96C4219.71 1894.09 4227.17 1891.15 4235 1890.5L4283.62 1886.45C4290.87 1885.84 4298.04 1888.31 4303.39 1893.24C4310.25 1899.58 4313.18 1909.12 4311.06 1918.22L4297.62 1975.76C4295.91 1983.1 4296.3 1990.78 4298.76 1997.91L4310.57 2032.13C4313.13 2039.54 4313.45 2047.55 4311.5 2055.15L4307.26 2071.59C4306.42 2074.85 4306 2078.2 4306 2081.57V2156.4C4306 2160.11 4305.48 2163.81 4304.46 2167.39L4279 2256.5L4254.02 2331.88C4252.03 2337.87 4248.66 2343.31 4244.16 2347.75L4171.89 2419.15C4169.64 2421.38 4167.66 2423.86 4165.99 2426.55L4134.35 2477.63C4129.59 2485.32 4122.37 2491.16 4113.86 2494.22L4062.72 2512.57C4054.34 2515.58 4044.98 2513.48 4038.69 2507.19C4032.46 2500.96 4030.34 2491.71 4033.23 2483.39L4040.77 2461.68C4045.8 2447.2 4042.11 2431.11 4031.27 2420.27L4017.21 2406.22C4009.71 2398.71 4005.5 2388.54 4005.5 2377.93V2283.72C4005.5 2281.25 4005.73 2278.77 4006.19 2276.34L4020.42 2200.56C4020.81 2198.52 4021.35 2196.52 4022.04 2194.57L4051.23 2112.31C4053.06 2107.16 4055.92 2102.44 4059.64 2098.43L4118.02 2035.7C4120 2033.57 4121.74 2031.24 4123.21 2028.74L4183.69 1925.97C4186.21 1921.69 4189.5 1917.92 4193.39 1914.85L4213.55 1898.96ZM4535 1428.57C4527.07 1415.12 4527.7 1398.28 4536.6 1385.46L4547.91 1369.17C4550.29 1365.74 4553.18 1362.71 4556.5 1360.18L4567.3 1351.93C4574.85 1346.17 4580.1 1337.9 4582.12 1328.61L4582.51 1326.79C4584.44 1317.87 4583.24 1308.56 4579.11 1300.42C4573.1 1288.6 4573.4 1274.56 4579.9 1263L4598.13 1230.6C4600.03 1227.22 4602.42 1224.13 4605.2 1221.44L4638.31 1189.46C4642.35 1185.56 4648.36 1184.5 4653.49 1186.8C4661.32 1190.29 4664.08 1200.01 4659.27 1207.1L4648.12 1223.56C4642.53 1231.79 4642.1 1242.48 4647.01 1251.13C4652.41 1260.67 4663.18 1265.82 4674 1264.05L4713.78 1257.53C4715.92 1257.18 4718.09 1257 4720.26 1257H4780.83C4783.6 1257 4786.36 1257.29 4789.07 1257.86L4828.42 1266.14C4831.13 1266.71 4833.89 1267 4836.66 1267H4861.44C4875.71 1267 4888.9 1259.39 4896.05 1247.04L4905.21 1231.23C4909.61 1223.62 4916.4 1217.68 4924.52 1214.31L4939.65 1208.05C4944.5 1206.03 4949.7 1205 4954.96 1205H5024.5C5027.7 1205 5054.5 1186.67 5067.5 1177.5L5086.96 1160.47C5097.26 1151.46 5111.45 1148.34 5124.58 1152.19L5175 1167L5209.08 1173.12C5224.04 1175.8 5236.18 1186.73 5240.42 1201.33L5254.56 1249.98C5257.48 1260.07 5266.72 1267 5277.22 1267C5287.75 1267 5297 1273.97 5299.9 1284.09L5306.74 1307.9C5309.78 1318.49 5308.31 1329.87 5302.69 1339.35L5280.6 1376.56C5276.93 1382.74 5275 1389.79 5275 1396.98V1426.65C5275 1432.48 5276.27 1438.24 5278.73 1443.52L5280.98 1448.36C5289.11 1465.83 5283.62 1486.61 5267.93 1497.8L5247.92 1512.07C5241.14 1516.9 5233.02 1519.5 5224.7 1519.5H5140L4982.5 1530.5H4897.5L4813.62 1536.19C4810.55 1536.39 4807.47 1536.25 4804.43 1535.75L4678.22 1515.03C4676.07 1514.68 4673.91 1514.5 4671.74 1514.5H4592.88C4588 1514.5 4583.16 1513.61 4578.6 1511.86L4573.63 1509.96C4559.98 1504.74 4550.27 1492.5 4548.29 1478.02L4544.59 1450.96C4543.87 1445.71 4542.11 1440.65 4539.42 1436.08L4535 1428.57ZM4810.34 1679.69C4813.41 1677.59 4816.91 1676.21 4820.58 1675.66L4942.05 1657.44C4944.01 1657.15 4946 1657 4947.98 1657H5081L5233.52 1644.49C5237.48 1644.17 5241.47 1644.43 5245.36 1645.28L5315.18 1660.59C5326.5 1663.08 5336.18 1670.34 5341.73 1680.51L5346.92 1690.02C5353.23 1701.59 5353.44 1715.52 5347.47 1727.27L5341.68 1738.68C5340.56 1740.89 5339.24 1742.99 5337.73 1744.95L5321.9 1765.56C5316.46 1772.65 5308.8 1777.71 5300.14 1779.94L5273.55 1786.77C5265.39 1788.87 5258.1 1793.49 5252.72 1799.98L5229.03 1828.55C5227.68 1830.18 5226.46 1831.92 5225.38 1833.74L5215.64 1850.22C5210.41 1859.07 5208.79 1869.58 5211.11 1879.59L5214.88 1895.89C5217.19 1905.84 5215.2 1916.29 5209.41 1924.69C5205.23 1930.75 5203 1937.94 5203 1945.3V2039.82C5203 2053.07 5209.56 2065.46 5220.51 2072.9L5269.32 2106.08C5275.95 2110.59 5283.79 2113 5291.81 2113H5314.5C5335.17 2113 5352.44 2128.76 5354.33 2149.35L5357 2178.5V2229.64C5357 2246.39 5346.57 2261.36 5330.87 2267.16L5271.73 2289.03C5264.71 2291.63 5257.12 2292.2 5249.8 2290.7L5211.48 2282.82C5208.83 2282.27 5206.13 2282 5203.43 2282H5145.94C5137.22 2282 5128.74 2279.15 5121.79 2273.89L5091.71 2251.11C5084.76 2245.85 5076.28 2243 5067.56 2243H5053.51C5040.63 2243 5028.54 2236.8 5021.03 2226.35L4925.49 2093.44C4922.2 2088.86 4919.91 2083.65 4918.78 2078.13L4902.44 1998.45C4901.16 1992.24 4901.38 1985.81 4903.08 1979.71L4914.58 1938.3C4918.26 1925.04 4914.88 1910.83 4905.61 1900.66L4849 1838.5L4825.61 1805.14C4818.88 1795.54 4816.7 1783.46 4819.66 1772.1L4822.56 1760.95C4825.66 1749.06 4822.8 1736.41 4814.9 1727.01L4805.43 1715.74C4796.09 1704.63 4798.37 1687.89 4810.34 1679.69ZM5081.62 2687.75C5071.58 2689.2 5062.47 2694.4 5056.12 2702.31L5038.91 2723.75C5035.34 2728.2 5030.87 2731.83 5025.78 2734.41L5014.93 2739.9C5001.48 2746.71 4993 2760.51 4993 2775.59V2867.16C4993 2879.66 4998.84 2891.44 5008.79 2899.01L5058.03 2936.44C5063.26 2940.42 5069.39 2943.05 5075.88 2944.09L5171.5 2959.5L5226.93 2969.64C5240.09 2972.05 5253.59 2967.72 5262.89 2958.1L5284.08 2936.17C5288.94 2931.15 5295.03 2927.48 5301.75 2925.54L5307.18 2923.98C5313.94 2922.03 5320.07 2918.33 5324.94 2913.25L5345.28 2892.08C5350.96 2886.17 5354.68 2878.66 5355.95 2870.57L5362.26 2830.35C5364.56 2815.68 5358.54 2800.95 5346.64 2792.08L5291.5 2751L5217.96 2707.63C5215 2705.88 5211.82 2704.53 5208.51 2703.59L5136.67 2683.31C5131.28 2681.79 5125.64 2681.41 5120.1 2682.21L5081.62 2687.75ZM5410.88 2634.65C5418.09 2631.96 5424.22 2626.97 5428.32 2620.45L5450.34 2585.43C5451.78 2583.15 5453.44 2581.02 5455.3 2579.07L5519 2512.5L5584.5 2450.38C5591.78 2443.47 5594.26 2432.9 5590.81 2423.48C5587.55 2414.59 5579.58 2408.29 5570.19 2407.17L5488.15 2397.36C5483.42 2396.79 5478.63 2397.07 5474 2398.19L5335.62 2431.64C5331.89 2432.54 5328.31 2433.97 5324.99 2435.89L5265.79 2470.13C5259.7 2473.65 5252.8 2475.5 5245.77 2475.5H5187.11C5183.39 2475.5 5179.68 2474.98 5176.1 2473.96L5054 2439L4959.36 2424.17C4950.39 2422.77 4941.2 2424.45 4933.32 2428.96L4891.25 2453C4887.77 2454.99 4884.61 2457.49 4881.87 2460.42L4778.5 2571L4762.85 2591.52C4758.37 2597.39 4752.35 2601.91 4745.47 2604.57L4629.86 2649.27C4624.35 2651.4 4619.39 2654.72 4615.32 2658.99L4423.99 2859.86C4422 2861.95 4420.25 2864.24 4418.75 2866.7L4385.49 2921.52C4376.18 2936.88 4354.81 2939.17 4342.44 2926.15C4339.84 2923.41 4336.7 2921.25 4333.21 2919.79L4307.51 2909.03C4288.5 2901.07 4266.56 2908.85 4256.82 2927L4248.5 2942.5L4238.65 2966.2C4236.25 2971.99 4232.52 2977.13 4227.77 2981.21L4208.73 2997.56C4195.02 3009.33 4190.9 3028.82 4198.68 3045.13L4271.42 3197.59C4273.13 3201.18 4275.36 3204.49 4278.05 3207.41L4299.62 3230.92C4308.05 3240.11 4320.29 3244.84 4332.71 3243.71L4395.25 3238.02C4399.06 3237.68 4402.91 3237.88 4406.66 3238.62L4448.67 3246.96C4461.42 3249.49 4474.6 3245.67 4484.02 3236.72L4533.71 3189.48C4537.85 3185.54 4541.11 3180.76 4543.24 3175.45L4556 3143.82C4561 3131.44 4559.48 3117.37 4551.96 3106.34L4542.56 3092.53C4536.45 3083.57 4526.96 3077.46 4516.26 3075.63L4486.42 3070.52C4482.49 3069.84 4478.69 3068.59 4475.14 3066.79L4446.52 3052.33C4438.42 3048.23 4431.94 3041.5 4428.17 3033.23L4424.29 3024.72C4422.12 3019.96 4418.94 3015.73 4414.98 3012.32C4401.91 3001.09 4398.6 2982.19 4407.07 2967.18L4419.04 2945.97C4420.34 2943.66 4421.87 2941.49 4423.6 2939.48L4500.91 2850C4502.63 2848 4504.55 2846.19 4506.63 2844.57L4646.61 2735.74C4648.53 2734.25 4650.59 2732.94 4652.75 2731.82L4818.87 2645.66C4822.27 2643.9 4825.4 2641.65 4828.17 2639L4929.5 2541.63C4935.67 2535.7 4943.58 2531.91 4952.06 2530.8L5084.02 2513.67C5089.93 2512.9 5095.94 2513.46 5101.61 2515.32L5256.5 2566L5353.77 2609.54C5358.87 2611.82 5363.43 2615.14 5367.16 2619.29L5372.52 2625.25C5382.16 2635.96 5397.37 2639.69 5410.88 2634.65Z" fill="#0B3533"/>
<path d="M4547.56 2013L4527.88 1961.48H4536.92L4552.36 2003.64L4567.8 1961.48H4576.84L4557.32 2013H4547.56ZM4585.02 1967.16V1959.96H4594.54V1967.16H4585.02ZM4585.74 2013V1981.72H4579.98L4580.78 1975.08H4594.46V2013H4585.74ZM4617.27 2013.8C4614.66 2013.8 4612.15 2013.61 4609.75 2013.24C4607.41 2012.87 4605.46 2012.41 4603.91 2011.88V2004.52C4605.73 2005.21 4607.73 2005.75 4609.91 2006.12C4612.1 2006.49 4614.18 2006.68 4616.15 2006.68C4619.14 2006.68 4621.27 2006.41 4622.55 2005.88C4623.83 2005.35 4624.47 2004.31 4624.47 2002.76C4624.47 2001.64 4624.07 2000.76 4623.27 2000.12C4622.53 1999.48 4621.38 1998.89 4619.83 1998.36C4618.34 1997.83 4616.42 1997.19 4614.07 1996.44C4611.83 1995.69 4609.89 1994.89 4608.23 1994.04C4606.58 1993.13 4605.3 1991.99 4604.39 1990.6C4603.49 1989.21 4603.03 1987.4 4603.03 1985.16C4603.03 1981.69 4604.29 1979.03 4606.79 1977.16C4609.3 1975.24 4613.33 1974.28 4618.87 1974.28C4621.06 1974.28 4623.14 1974.44 4625.11 1974.76C4627.09 1975.08 4628.77 1975.48 4630.15 1975.96V1983.24C4628.66 1982.65 4627.01 1982.2 4625.19 1981.88C4623.43 1981.56 4621.78 1981.4 4620.23 1981.4C4617.46 1981.4 4615.35 1981.64 4613.91 1982.12C4612.53 1982.6 4611.83 1983.56 4611.83 1985C4611.83 1986.49 4612.55 1987.56 4613.99 1988.2C4615.49 1988.79 4617.86 1989.61 4621.11 1990.68C4624.1 1991.59 4626.47 1992.55 4628.23 1993.56C4629.99 1994.57 4631.25 1995.8 4631.99 1997.24C4632.79 1998.63 4633.19 2000.44 4633.19 2002.68C4633.19 2006.41 4631.83 2009.21 4629.11 2011.08C4626.39 2012.89 4622.45 2013.8 4617.27 2013.8ZM4655.05 2013.8C4651 2013.8 4647.96 2012.73 4645.93 2010.6C4643.96 2008.41 4642.97 2005.45 4642.97 2001.72V1981.88H4637.37V1975.08H4642.97V1966.36L4651.61 1963.72V1975.08H4661.69L4661.13 1981.88H4651.61V2001.24C4651.61 2003.43 4652.12 2004.97 4653.13 2005.88C4654.14 2006.73 4655.8 2007.16 4658.09 2007.16C4659.53 2007.16 4661.05 2006.89 4662.65 2006.36V2012.52C4660.57 2013.37 4658.04 2013.8 4655.05 2013.8ZM4681.16 2013.8C4678.76 2013.8 4676.52 2013.37 4674.44 2012.52C4672.41 2011.67 4670.79 2010.39 4669.56 2008.68C4668.33 2006.92 4667.72 2004.76 4667.72 2002.2C4667.72 1998.57 4668.95 1995.67 4671.4 1993.48C4673.91 1991.24 4677.75 1990.12 4682.92 1990.12H4695.08V1988.44C4695.08 1986.63 4694.79 1985.19 4694.2 1984.12C4693.67 1983.05 4692.65 1982.28 4691.16 1981.8C4689.72 1981.32 4687.59 1981.08 4684.76 1981.08C4680.28 1981.08 4676.09 1981.75 4672.2 1983.08V1976.6C4673.91 1975.91 4675.99 1975.35 4678.44 1974.92C4680.89 1974.49 4683.53 1974.28 4686.36 1974.28C4691.91 1974.28 4696.12 1975.4 4699 1977.64C4701.93 1979.88 4703.4 1983.53 4703.4 1988.6V2013H4695.96L4695.4 2009.16C4693.85 2010.65 4691.93 2011.8 4689.64 2012.6C4687.4 2013.4 4684.57 2013.8 4681.16 2013.8ZM4683.48 2007.56C4686.09 2007.56 4688.36 2007.13 4690.28 2006.28C4692.25 2005.37 4693.85 2004.17 4695.08 2002.68V1996.04H4683.08C4680.52 1996.04 4678.65 1996.55 4677.48 1997.56C4676.36 1998.52 4675.8 2000.01 4675.8 2002.04C4675.8 2004.01 4676.47 2005.43 4677.8 2006.28C4679.13 2007.13 4681.03 2007.56 4683.48 2007.56ZM4731.51 2013V1961.48H4740.23V1985.16L4762.15 1961.48H4772.23L4753.27 1982.28L4773.03 2013H4763.75L4747.83 1987.8L4740.23 1995.96V2013H4731.51ZM4795.47 2013.8C4788.86 2013.8 4783.74 2012.17 4780.11 2008.92C4776.49 2005.67 4774.67 2000.68 4774.67 1993.96C4774.67 1987.88 4776.22 1983.08 4779.31 1979.56C4782.41 1976.04 4787.1 1974.28 4793.39 1974.28C4799.15 1974.28 4803.47 1975.8 4806.35 1978.84C4809.29 1981.83 4810.75 1985.69 4810.75 1990.44V1997.48H4782.99C4783.42 2001.16 4784.75 2003.69 4786.99 2005.08C4789.23 2006.47 4792.65 2007.16 4797.23 2007.16C4799.15 2007.16 4801.13 2006.97 4803.15 2006.6C4805.18 2006.23 4806.94 2005.75 4808.43 2005.16V2011.56C4806.73 2012.31 4804.75 2012.87 4802.51 2013.24C4800.33 2013.61 4797.98 2013.8 4795.47 2013.8ZM4782.99 1991.8H4803.07V1989.16C4803.07 1986.55 4802.35 1984.52 4800.91 1983.08C4799.47 1981.59 4797.05 1980.84 4793.63 1980.84C4789.58 1980.84 4786.78 1981.72 4785.23 1983.48C4783.74 1985.24 4782.99 1988.01 4782.99 1991.8ZM4823.43 2027.08C4820.55 2027.08 4818.09 2026.71 4816.07 2025.96V2019.48C4816.97 2019.8 4817.8 2020.01 4818.55 2020.12C4819.35 2020.23 4820.15 2020.28 4820.95 2020.28C4822.6 2020.28 4823.93 2020.01 4824.95 2019.48C4825.96 2018.95 4826.84 2018.09 4827.59 2016.92C4828.39 2015.8 4829.24 2014.33 4830.15 2012.52L4813.27 1975.08H4822.31L4834.47 2003.24L4846.79 1975.08H4855.75L4840.31 2010.84C4838.97 2014.04 4837.53 2016.84 4835.99 2019.24C4834.49 2021.69 4832.73 2023.61 4830.71 2025C4828.73 2026.39 4826.31 2027.08 4823.43 2027.08Z" fill="#BABABA"/>
<path d="M3526.65 4718.8C3518.17 4718.8 3511.75 4716.48 3507.37 4711.84C3503.05 4707.2 3500.89 4700.93 3500.89 4693.04C3500.89 4687.39 3501.8 4682.53 3503.61 4678.48C3505.48 4674.37 3508.31 4671.23 3512.09 4669.04C3515.88 4666.8 3520.71 4665.68 3526.57 4665.68C3529.56 4665.68 3532.28 4665.92 3534.73 4666.4C3537.24 4666.83 3539.56 4667.41 3541.69 4668.16V4675.76C3539.56 4674.91 3537.27 4674.27 3534.81 4673.84C3532.41 4673.36 3529.88 4673.12 3527.21 4673.12C3520.81 4673.12 3516.28 4674.83 3513.61 4678.24C3511 4681.65 3509.69 4686.59 3509.69 4693.04C3509.69 4699.07 3511.13 4703.65 3514.01 4706.8C3516.89 4709.89 3521.35 4711.44 3527.37 4711.44C3529.83 4711.44 3532.28 4711.25 3534.73 4710.88C3537.24 4710.45 3539.59 4709.81 3541.77 4708.96V4716.64C3539.64 4717.33 3537.32 4717.87 3534.81 4718.24C3532.36 4718.61 3529.64 4718.8 3526.65 4718.8ZM3568.15 4718.8C3561.33 4718.8 3556.31 4717.09 3553.11 4713.68C3549.97 4710.27 3548.39 4705.39 3548.39 4699.04C3548.39 4692.69 3549.99 4687.81 3553.19 4684.4C3556.39 4680.99 3561.38 4679.28 3568.15 4679.28C3574.98 4679.28 3579.99 4680.99 3583.19 4684.4C3586.39 4687.81 3587.99 4692.69 3587.99 4699.04C3587.99 4705.39 3586.39 4710.27 3583.19 4713.68C3580.05 4717.09 3575.03 4718.8 3568.15 4718.8ZM3568.15 4711.44C3572.15 4711.44 3574.98 4710.48 3576.63 4708.56C3578.34 4706.59 3579.19 4703.41 3579.19 4699.04C3579.19 4694.67 3578.34 4691.52 3576.63 4689.6C3574.98 4687.68 3572.15 4686.72 3568.15 4686.72C3564.21 4686.72 3561.38 4687.68 3559.67 4689.6C3558.02 4691.52 3557.19 4694.67 3557.19 4699.04C3557.19 4703.41 3558.02 4706.59 3559.67 4708.56C3561.38 4710.48 3564.21 4711.44 3568.15 4711.44ZM3596.48 4718V4680.08H3604.48L3604.96 4684.48C3606.77 4683.31 3608.93 4682.24 3611.44 4681.28C3613.94 4680.32 3616.42 4679.65 3618.88 4679.28V4685.92C3617.38 4686.19 3615.76 4686.59 3614 4687.12C3612.29 4687.6 3610.66 4688.16 3609.12 4688.8C3607.57 4689.39 3606.26 4690 3605.2 4690.64V4718H3596.48ZM3634.65 4718.8C3632.25 4718.8 3630.01 4718.37 3627.93 4717.52C3625.9 4716.67 3624.27 4715.39 3623.05 4713.68C3621.82 4711.92 3621.21 4709.76 3621.21 4707.2C3621.21 4703.57 3622.43 4700.67 3624.89 4698.48C3627.39 4696.24 3631.23 4695.12 3636.41 4695.12H3648.57V4693.44C3648.57 4691.63 3648.27 4690.19 3647.69 4689.12C3647.15 4688.05 3646.14 4687.28 3644.65 4686.8C3643.21 4686.32 3641.07 4686.08 3638.25 4686.08C3633.77 4686.08 3629.58 4686.75 3625.69 4688.08V4681.6C3627.39 4680.91 3629.47 4680.35 3631.93 4679.92C3634.38 4679.49 3637.02 4679.28 3639.85 4679.28C3645.39 4679.28 3649.61 4680.4 3652.49 4682.64C3655.42 4684.88 3656.89 4688.53 3656.89 4693.6V4718H3649.45L3648.89 4714.16C3647.34 4715.65 3645.42 4716.8 3643.13 4717.6C3640.89 4718.4 3638.06 4718.8 3634.65 4718.8ZM3636.97 4712.56C3639.58 4712.56 3641.85 4712.13 3643.77 4711.28C3645.74 4710.37 3647.34 4709.17 3648.57 4707.68V4701.04H3636.57C3634.01 4701.04 3632.14 4701.55 3630.97 4702.56C3629.85 4703.52 3629.29 4705.01 3629.29 4707.04C3629.29 4709.01 3629.95 4710.43 3631.29 4711.28C3632.62 4712.13 3634.51 4712.56 3636.97 4712.56ZM3676 4718.8C3672.9 4718.8 3670.56 4718.05 3668.96 4716.56C3667.36 4715.01 3666.56 4712.48 3666.56 4708.96V4664.08H3675.28V4708.16C3675.28 4709.65 3675.54 4710.67 3676.08 4711.2C3676.61 4711.73 3677.41 4712 3678.48 4712C3679.76 4712 3680.98 4711.84 3682.16 4711.52V4717.84C3681.14 4718.21 3680.16 4718.45 3679.2 4718.56C3678.29 4718.72 3677.22 4718.8 3676 4718.8ZM3707.42 4718V4666.48H3716.14V4690.16L3738.06 4666.48H3748.14L3729.18 4687.28L3748.94 4718H3739.66L3723.74 4692.8L3716.14 4700.96V4718H3707.42ZM3771.38 4718.8C3764.77 4718.8 3759.65 4717.17 3756.02 4713.92C3752.39 4710.67 3750.58 4705.68 3750.58 4698.96C3750.58 4692.88 3752.13 4688.08 3755.22 4684.56C3758.31 4681.04 3763.01 4679.28 3769.3 4679.28C3775.06 4679.28 3779.38 4680.8 3782.26 4683.84C3785.19 4686.83 3786.66 4690.69 3786.66 4695.44V4702.48H3758.9C3759.33 4706.16 3760.66 4708.69 3762.9 4710.08C3765.14 4711.47 3768.55 4712.16 3773.14 4712.16C3775.06 4712.16 3777.03 4711.97 3779.06 4711.6C3781.09 4711.23 3782.85 4710.75 3784.34 4710.16V4716.56C3782.63 4717.31 3780.66 4717.87 3778.42 4718.24C3776.23 4718.61 3773.89 4718.8 3771.38 4718.8ZM3758.9 4696.8H3778.98V4694.16C3778.98 4691.55 3778.26 4689.52 3776.82 4688.08C3775.38 4686.59 3772.95 4685.84 3769.54 4685.84C3765.49 4685.84 3762.69 4686.72 3761.14 4688.48C3759.65 4690.24 3758.9 4693.01 3758.9 4696.8ZM3799.33 4732.08C3796.45 4732.08 3794 4731.71 3791.97 4730.96V4724.48C3792.88 4724.8 3793.71 4725.01 3794.45 4725.12C3795.25 4725.23 3796.05 4725.28 3796.85 4725.28C3798.51 4725.28 3799.84 4725.01 3800.85 4724.48C3801.87 4723.95 3802.75 4723.09 3803.49 4721.92C3804.29 4720.8 3805.15 4719.33 3806.05 4717.52L3789.17 4680.08H3798.21L3810.37 4708.24L3822.69 4680.08H3831.65L3816.21 4715.84C3814.88 4719.04 3813.44 4721.84 3811.89 4724.24C3810.4 4726.69 3808.64 4728.61 3806.61 4730C3804.64 4731.39 3802.21 4732.08 3799.33 4732.08Z" fill="#BABABA"/>
<path d="M3456.49 6236V6184.48H3464.17L3491.05 6222.4V6184.48H3499.69V6236H3492.01L3465.21 6198.16V6236H3456.49ZM3528 6236.8C3521.18 6236.8 3516.16 6235.09 3512.96 6231.68C3509.82 6228.27 3508.24 6223.39 3508.24 6217.04C3508.24 6210.69 3509.84 6205.81 3513.04 6202.4C3516.24 6198.99 3521.23 6197.28 3528 6197.28C3534.83 6197.28 3539.84 6198.99 3543.04 6202.4C3546.24 6205.81 3547.84 6210.69 3547.84 6217.04C3547.84 6223.39 3546.24 6228.27 3543.04 6231.68C3539.9 6235.09 3534.88 6236.8 3528 6236.8ZM3528 6229.44C3532 6229.44 3534.83 6228.48 3536.48 6226.56C3538.19 6224.59 3539.04 6221.41 3539.04 6217.04C3539.04 6212.67 3538.19 6209.52 3536.48 6207.6C3534.83 6205.68 3532 6204.72 3528 6204.72C3524.06 6204.72 3521.23 6205.68 3519.52 6207.6C3517.87 6209.52 3517.04 6212.67 3517.04 6217.04C3517.04 6221.41 3517.87 6224.59 3519.52 6226.56C3521.23 6228.48 3524.06 6229.44 3528 6229.44ZM3556.33 6236V6198.08H3564.33L3564.73 6202.08C3566.6 6200.59 3568.65 6199.41 3570.89 6198.56C3573.13 6197.71 3575.53 6197.28 3578.09 6197.28C3580.81 6197.28 3582.92 6197.73 3584.41 6198.64C3585.96 6199.49 3587.13 6200.69 3587.93 6202.24C3589.69 6200.8 3591.72 6199.63 3594.01 6198.72C3596.3 6197.76 3599.05 6197.28 3602.25 6197.28C3606.62 6197.28 3609.85 6198.4 3611.93 6200.64C3614.01 6202.88 3615.05 6206.32 3615.05 6210.96V6236H3606.49V6211.84C3606.49 6208.91 3605.88 6206.85 3604.65 6205.68C3603.42 6204.51 3601.42 6203.92 3598.65 6203.92C3596.84 6203.92 3595.1 6204.24 3593.45 6204.88C3591.85 6205.52 3590.46 6206.48 3589.29 6207.76C3589.45 6208.35 3589.56 6208.96 3589.61 6209.6C3589.66 6210.24 3589.69 6210.93 3589.69 6211.68V6236H3581.61V6211.92C3581.61 6209.15 3581.13 6207.12 3580.17 6205.84C3579.21 6204.56 3577.4 6203.92 3574.73 6203.92C3572.86 6203.92 3571.08 6204.37 3569.37 6205.28C3567.72 6206.13 3566.22 6207.17 3564.89 6208.4V6236H3556.33ZM3635.51 6236.8C3633.11 6236.8 3630.87 6236.37 3628.79 6235.52C3626.77 6234.67 3625.14 6233.39 3623.91 6231.68C3622.69 6229.92 3622.07 6227.76 3622.07 6225.2C3622.07 6221.57 3623.3 6218.67 3625.75 6216.48C3628.26 6214.24 3632.1 6213.12 3637.27 6213.12H3649.43V6211.44C3649.43 6209.63 3649.14 6208.19 3648.55 6207.12C3648.02 6206.05 3647.01 6205.28 3645.51 6204.8C3644.07 6204.32 3641.94 6204.08 3639.11 6204.08C3634.63 6204.08 3630.45 6204.75 3626.55 6206.08V6199.6C3628.26 6198.91 3630.34 6198.35 3632.79 6197.92C3635.25 6197.49 3637.89 6197.28 3640.71 6197.28C3646.26 6197.28 3650.47 6198.4 3653.35 6200.64C3656.29 6202.88 3657.75 6206.53 3657.75 6211.6V6236H3650.31L3649.75 6232.16C3648.21 6233.65 3646.29 6234.8 3643.99 6235.6C3641.75 6236.4 3638.93 6236.8 3635.51 6236.8ZM3637.83 6230.56C3640.45 6230.56 3642.71 6230.13 3644.63 6229.28C3646.61 6228.37 3648.21 6227.17 3649.43 6225.68V6219.04H3637.43C3634.87 6219.04 3633.01 6219.55 3631.83 6220.56C3630.71 6221.52 3630.15 6223.01 3630.15 6225.04C3630.15 6227.01 3630.82 6228.43 3632.15 6229.28C3633.49 6230.13 3635.38 6230.56 3637.83 6230.56ZM3683.1 6236.8C3679.69 6236.8 3676.68 6236.21 3674.06 6235.04C3671.45 6233.87 3669.42 6231.92 3667.98 6229.2C3666.54 6226.48 3665.82 6222.83 3665.82 6218.24C3665.82 6213.71 3666.6 6209.89 3668.14 6206.8C3669.69 6203.65 3671.82 6201.28 3674.54 6199.68C3677.32 6198.08 3680.44 6197.28 3683.9 6197.28C3686.2 6197.28 3688.22 6197.55 3689.98 6198.08C3691.8 6198.61 3693.53 6199.44 3695.18 6200.56V6182.08H3703.9V6236H3696.46L3695.9 6232.24C3694.2 6233.79 3692.33 6234.93 3690.3 6235.68C3688.28 6236.43 3685.88 6236.8 3683.1 6236.8ZM3685.42 6230.24C3689.32 6230.24 3692.57 6228.91 3695.18 6226.24V6207.28C3692.68 6205.04 3689.53 6203.92 3685.74 6203.92C3682.06 6203.92 3679.29 6205.15 3677.42 6207.6C3675.56 6210.05 3674.62 6213.63 3674.62 6218.32C3674.62 6222.85 3675.48 6225.97 3677.18 6227.68C3678.94 6229.39 3681.69 6230.24 3685.42 6230.24ZM3732.42 6236V6184.48H3741.14V6208.16L3763.06 6184.48H3773.14L3754.18 6205.28L3773.94 6236H3764.66L3748.74 6210.8L3741.14 6218.96V6236H3732.42ZM3796.39 6236.8C3789.78 6236.8 3784.66 6235.17 3781.03 6231.92C3777.4 6228.67 3775.59 6223.68 3775.59 6216.96C3775.59 6210.88 3777.14 6206.08 3780.23 6202.56C3783.32 6199.04 3788.02 6197.28 3794.31 6197.28C3800.07 6197.28 3804.39 6198.8 3807.27 6201.84C3810.2 6204.83 3811.67 6208.69 3811.67 6213.44V6220.48H3783.91C3784.34 6224.16 3785.67 6226.69 3787.91 6228.08C3790.15 6229.47 3793.56 6230.16 3798.15 6230.16C3800.07 6230.16 3802.04 6229.97 3804.07 6229.6C3806.1 6229.23 3807.86 6228.75 3809.35 6228.16V6234.56C3807.64 6235.31 3805.67 6235.87 3803.43 6236.24C3801.24 6236.61 3798.9 6236.8 3796.39 6236.8ZM3783.91 6214.8H3803.99V6212.16C3803.99 6209.55 3803.27 6207.52 3801.83 6206.08C3800.39 6204.59 3797.96 6203.84 3794.55 6203.84C3790.5 6203.84 3787.7 6204.72 3786.15 6206.48C3784.66 6208.24 3783.91 6211.01 3783.91 6214.8ZM3824.34 6250.08C3821.46 6250.08 3819.01 6249.71 3816.98 6248.96V6242.48C3817.89 6242.8 3818.72 6243.01 3819.46 6243.12C3820.26 6243.23 3821.06 6243.28 3821.86 6243.28C3823.52 6243.28 3824.85 6243.01 3825.86 6242.48C3826.88 6241.95 3827.76 6241.09 3828.5 6239.92C3829.3 6238.8 3830.16 6237.33 3831.06 6235.52L3814.18 6198.08H3823.22L3835.38 6226.24L3847.7 6198.08H3856.66L3841.22 6233.84C3839.89 6237.04 3838.45 6239.84 3836.9 6242.24C3835.41 6244.69 3833.65 6246.61 3831.62 6248C3829.65 6249.39 3827.22 6250.08 3824.34 6250.08Z" fill="#BABABA"/>
<path d="M2022.65 6769.8C2015.98 6769.8 2010.62 6768.95 2006.57 6767.24V6759.56C2008.86 6760.41 2011.31 6761.11 2013.93 6761.64C2016.59 6762.17 2019.23 6762.44 2021.85 6762.44C2025.95 6762.44 2029.02 6761.96 2031.05 6761C2033.13 6760.04 2034.17 6758.12 2034.17 6755.24C2034.17 6753.48 2033.74 6752.07 2032.89 6751C2032.03 6749.93 2030.62 6749.03 2028.65 6748.28C2026.67 6747.48 2023.95 6746.65 2020.49 6745.8C2014.94 6744.36 2011.05 6742.55 2008.81 6740.36C2006.57 6738.12 2005.45 6735.05 2005.45 6731.16C2005.45 6726.63 2007.1 6723.08 2010.41 6720.52C2013.71 6717.96 2018.65 6716.68 2025.21 6716.68C2028.19 6716.68 2030.99 6716.89 2033.61 6717.32C2036.27 6717.75 2038.35 6718.23 2039.85 6718.76V6726.44C2035.79 6724.89 2031.31 6724.12 2026.41 6724.12C2022.57 6724.12 2019.58 6724.63 2017.45 6725.64C2015.31 6726.65 2014.25 6728.49 2014.25 6731.16C2014.25 6732.71 2014.62 6733.96 2015.37 6734.92C2016.11 6735.88 2017.39 6736.71 2019.21 6737.4C2021.07 6738.09 2023.63 6738.87 2026.89 6739.72C2031.1 6740.79 2034.35 6742.07 2036.65 6743.56C2038.99 6745 2040.62 6746.71 2041.53 6748.68C2042.49 6750.6 2042.97 6752.79 2042.97 6755.24C2042.97 6759.77 2041.29 6763.35 2037.93 6765.96C2034.57 6768.52 2029.47 6769.8 2022.65 6769.8ZM2062.09 6769.8C2059.69 6769.8 2057.45 6769.37 2055.37 6768.52C2053.34 6767.67 2051.72 6766.39 2050.49 6764.68C2049.26 6762.92 2048.65 6760.76 2048.65 6758.2C2048.65 6754.57 2049.88 6751.67 2052.33 6749.48C2054.84 6747.24 2058.68 6746.12 2063.85 6746.12H2076.01V6744.44C2076.01 6742.63 2075.72 6741.19 2075.13 6740.12C2074.6 6739.05 2073.58 6738.28 2072.09 6737.8C2070.65 6737.32 2068.52 6737.08 2065.69 6737.08C2061.21 6737.08 2057.02 6737.75 2053.13 6739.08V6732.6C2054.84 6731.91 2056.92 6731.35 2059.37 6730.92C2061.82 6730.49 2064.46 6730.28 2067.29 6730.28C2072.84 6730.28 2077.05 6731.4 2079.93 6733.64C2082.86 6735.88 2084.33 6739.53 2084.33 6744.6V6769H2076.89L2076.33 6765.16C2074.78 6766.65 2072.86 6767.8 2070.57 6768.6C2068.33 6769.4 2065.5 6769.8 2062.09 6769.8ZM2064.41 6763.56C2067.02 6763.56 2069.29 6763.13 2071.21 6762.28C2073.18 6761.37 2074.78 6760.17 2076.01 6758.68V6752.04H2064.01C2061.45 6752.04 2059.58 6752.55 2058.41 6753.56C2057.29 6754.52 2056.73 6756.01 2056.73 6758.04C2056.73 6760.01 2057.4 6761.43 2058.73 6762.28C2060.06 6763.13 2061.96 6763.56 2064.41 6763.56ZM2094 6769V6731.08H2102L2102.4 6735.08C2104.11 6733.75 2106.13 6732.63 2108.48 6731.72C2110.88 6730.76 2113.52 6730.28 2116.4 6730.28C2121.31 6730.28 2124.88 6731.43 2127.12 6733.72C2129.36 6736.01 2130.48 6739.59 2130.48 6744.44V6769H2121.84V6744.84C2121.84 6741.91 2121.23 6739.85 2120 6738.68C2118.83 6737.51 2116.59 6736.92 2113.28 6736.92C2111.31 6736.92 2109.36 6737.32 2107.44 6738.12C2105.57 6738.92 2104 6739.96 2102.72 6741.24V6769H2094ZM2155.15 6769.8C2151.74 6769.8 2148.72 6769.21 2146.11 6768.04C2143.5 6766.87 2141.47 6764.92 2140.03 6762.2C2138.59 6759.48 2137.87 6755.83 2137.87 6751.24C2137.87 6746.71 2138.64 6742.89 2140.19 6739.8C2141.74 6736.65 2143.87 6734.28 2146.59 6732.68C2149.36 6731.08 2152.48 6730.28 2155.95 6730.28C2158.24 6730.28 2160.27 6730.55 2162.03 6731.08C2163.84 6731.61 2165.58 6732.44 2167.23 6733.56V6715.08H2175.95V6769H2168.51L2167.95 6765.24C2166.24 6766.79 2164.38 6767.93 2162.35 6768.68C2160.32 6769.43 2157.92 6769.8 2155.15 6769.8ZM2157.47 6763.24C2161.36 6763.24 2164.62 6761.91 2167.23 6759.24V6740.28C2164.72 6738.04 2161.58 6736.92 2157.79 6736.92C2154.11 6736.92 2151.34 6738.15 2149.47 6740.6C2147.6 6743.05 2146.67 6746.63 2146.67 6751.32C2146.67 6755.85 2147.52 6758.97 2149.23 6760.68C2150.99 6762.39 2153.74 6763.24 2157.47 6763.24ZM2195.47 6769.8C2192.38 6769.8 2190.03 6769.05 2188.43 6767.56C2186.83 6766.01 2186.03 6763.48 2186.03 6759.96V6715.08H2194.75V6759.16C2194.75 6760.65 2195.02 6761.67 2195.55 6762.2C2196.09 6762.73 2196.89 6763 2197.95 6763C2199.23 6763 2200.46 6762.84 2201.63 6762.52V6768.84C2200.62 6769.21 2199.63 6769.45 2198.67 6769.56C2197.77 6769.72 2196.7 6769.8 2195.47 6769.8ZM2227.65 6769.8C2221.04 6769.8 2215.92 6768.17 2212.29 6764.92C2208.67 6761.67 2206.85 6756.68 2206.85 6749.96C2206.85 6743.88 2208.4 6739.08 2211.49 6735.56C2214.59 6732.04 2219.28 6730.28 2225.57 6730.28C2231.33 6730.28 2235.65 6731.8 2238.53 6734.84C2241.47 6737.83 2242.93 6741.69 2242.93 6746.44V6753.48H2215.17C2215.6 6757.16 2216.93 6759.69 2219.17 6761.08C2221.41 6762.47 2224.83 6763.16 2229.41 6763.16C2231.33 6763.16 2233.31 6762.97 2235.33 6762.6C2237.36 6762.23 2239.12 6761.75 2240.61 6761.16V6767.56C2238.91 6768.31 2236.93 6768.87 2234.69 6769.24C2232.51 6769.61 2230.16 6769.8 2227.65 6769.8ZM2215.17 6747.8H2235.25V6745.16C2235.25 6742.55 2234.53 6740.52 2233.09 6739.08C2231.65 6737.59 2229.23 6736.84 2225.81 6736.84C2221.76 6736.84 2218.96 6737.72 2217.41 6739.48C2215.92 6741.24 2215.17 6744.01 2215.17 6747.8ZM2269.86 6769V6717.48H2278.58V6741.16L2300.5 6717.48H2310.58L2291.62 6738.28L2311.38 6769H2302.1L2286.18 6743.8L2278.58 6751.96V6769H2269.86ZM2333.83 6769.8C2327.21 6769.8 2322.09 6768.17 2318.47 6764.92C2314.84 6761.67 2313.03 6756.68 2313.03 6749.96C2313.03 6743.88 2314.57 6739.08 2317.67 6735.56C2320.76 6732.04 2325.45 6730.28 2331.75 6730.28C2337.51 6730.28 2341.83 6731.8 2344.71 6734.84C2347.64 6737.83 2349.11 6741.69 2349.11 6746.44V6753.48H2321.35C2321.77 6757.16 2323.11 6759.69 2325.35 6761.08C2327.59 6762.47 2331 6763.16 2335.59 6763.16C2337.51 6763.16 2339.48 6762.97 2341.51 6762.6C2343.53 6762.23 2345.29 6761.75 2346.79 6761.16V6767.56C2345.08 6768.31 2343.11 6768.87 2340.87 6769.24C2338.68 6769.61 2336.33 6769.8 2333.83 6769.8ZM2321.35 6747.8H2341.43V6745.16C2341.43 6742.55 2340.71 6740.52 2339.27 6739.08C2337.83 6737.59 2335.4 6736.84 2331.99 6736.84C2327.93 6736.84 2325.13 6737.72 2323.59 6739.48C2322.09 6741.24 2321.35 6744.01 2321.35 6747.8ZM2361.78 6783.08C2358.9 6783.08 2356.45 6782.71 2354.42 6781.96V6775.48C2355.33 6775.8 2356.15 6776.01 2356.9 6776.12C2357.7 6776.23 2358.5 6776.28 2359.3 6776.28C2360.95 6776.28 2362.29 6776.01 2363.3 6775.48C2364.31 6774.95 2365.19 6774.09 2365.94 6772.92C2366.74 6771.8 2367.59 6770.33 2368.5 6768.52L2351.62 6731.08H2360.66L2372.82 6759.24L2385.14 6731.08H2394.1L2378.66 6766.84C2377.33 6770.04 2375.89 6772.84 2374.34 6775.24C2372.85 6777.69 2371.09 6779.61 2369.06 6781C2367.09 6782.39 2364.66 6783.08 2361.78 6783.08Z" fill="#BABABA"/>
</svg>
